<?xml version="1.0" encoding="UTF-8" standalone="no"?>
<svg
   width="200"
   zoomAndPan="magnify"
   viewBox="0 0 150 150"
   height="200"
   preserveAspectRatio="xMidYMid"
   version="1.0"
   id="svg4"
   sodipodi:docname="abe dua.svg"
   inkscape:version="1.3.2 (091e20e, 2023-11-25, custom)"
   xmlns:inkscape="http://www.inkscape.org/namespaces/inkscape"
   xmlns:sodipodi="http://sodipodi.sourceforge.net/DTD/sodipodi-0.dtd"
   xmlns="http://www.w3.org/2000/svg"
   xmlns:svg="http://www.w3.org/2000/svg">
  <sodipodi:namedview
     id="namedview4"
     pagecolor="#ffffff"
     bordercolor="#000000"
     borderopacity="0.25"
     inkscape:showpageshadow="2"
     inkscape:pageopacity="0.0"
     inkscape:pagecheckerboard="0"
     inkscape:deskcolor="#d1d1d1"
     inkscape:zoom="1.532"
     inkscape:cx="99.869452"
     inkscape:cy="99.869452"
     inkscape:window-width="1920"
     inkscape:window-height="991"
     inkscape:window-x="-9"
     inkscape:window-y="-9"
     inkscape:window-maximized="1"
     inkscape:current-layer="svg4" />
  <defs
     id="defs2">
    <clipPath
       id="dbec81c7ab">
      <path
         d="m 112.5,112.5 h 150 v 150 h -150 z m 0,0"
         clip-rule="nonzero"
         id="path1" />
    </clipPath>
    <clipPath
       id="e8853b8960">
      <path
         d="m 136,129.58594 h 102.70312 v 115.5 H 136 Z m 0,0"
         clip-rule="nonzero"
         id="path2" />
    </clipPath>
  </defs>
  <g
     clip-path="url(#dbec81c7ab)"
     id="g3"
     transform="translate(-112.5,-112.5)">
    <path
       fill="#65934b"
       d="m 262.5,187.5 c 0,1.22656 -0.0312,2.45312 -0.0898,3.67969 -0.0625,1.22656 -0.15235,2.44922 -0.26954,3.67187 -0.12109,1.22266 -0.27343,2.4375 -0.45312,3.65235 -0.17969,1.21484 -0.39063,2.42578 -0.62891,3.6289 -0.23828,1.20313 -0.50781,2.39844 -0.80468,3.58985 -0.30079,1.1914 -0.62891,2.375 -0.98438,3.54687 -0.35547,1.17578 -0.74219,2.33984 -1.15234,3.49609 -0.41407,1.15625 -0.85547,2.30079 -1.32813,3.4375 -0.46875,1.13282 -0.96484,2.25391 -1.48828,3.36329 -0.52734,1.10937 -1.07812,2.20703 -1.65625,3.28906 -0.57812,1.08203 -1.18359,2.14844 -1.81641,3.20312 -0.6289,1.05078 -1.28515,2.08985 -1.96875,3.10938 -0.67968,1.01953 -1.38671,2.02344 -2.11718,3.00781 -0.73438,0.98828 -1.48828,1.95313 -2.26563,2.90234 -0.78125,0.94922 -1.58203,1.87891 -2.40625,2.78907 -0.82422,0.91015 -1.66797,1.79687 -2.53906,2.66406 -0.86719,0.87109 -1.75391,1.71484 -2.66406,2.53906 -0.91016,0.82422 -1.83985,1.625 -2.78907,2.40625 -0.94921,0.77735 -1.91406,1.53125 -2.90234,2.26563 -0.98437,0.73047 -1.98828,1.4375 -3.00781,2.11718 -1.01953,0.6836 -2.0586,1.33985 -3.10938,1.96875 -1.05468,0.63282 -2.12109,1.23829 -3.20312,1.81641 -1.08203,0.57813 -2.17969,1.12891 -3.28906,1.65625 -1.10938,0.52344 -2.23047,1.01953 -3.36329,1.48828 -1.13671,0.47266 -2.28125,0.91406 -3.4375,1.32813 -1.15625,0.41015 -2.32031,0.79687 -3.49609,1.15234 -1.17187,0.35547 -2.35547,0.68359 -3.54687,0.98438 -1.19141,0.29687 -2.38672,0.5664 -3.58985,0.80468 -1.20312,0.23828 -2.41406,0.44922 -3.6289,0.62891 -1.21485,0.17969 -2.42969,0.33203 -3.65235,0.45312 -1.22265,0.11719 -2.44531,0.20704 -3.67187,0.26954 -1.22657,0.0586 -2.45313,0.0898 -3.67969,0.0898 -1.22656,0 -2.45313,-0.0312 -3.67969,-0.0898 -1.22656,-0.0625 -2.44922,-0.15235 -3.67187,-0.26954 -1.22266,-0.12109 -2.4375,-0.27343 -3.65235,-0.45312 -1.21484,-0.17969 -2.42578,-0.39063 -3.6289,-0.62891 -1.20313,-0.23828 -2.39844,-0.50781 -3.58985,-0.80468 -1.1914,-0.30079 -2.375,-0.62891 -3.54687,-0.98438 -1.17578,-0.35547 -2.33985,-0.74219 -3.4961,-1.15234 -1.15625,-0.41407 -2.30078,-0.85547 -3.4375,-1.32813 -1.13281,-0.46875 -2.2539,-0.96484 -3.36328,-1.48828 -1.10937,-0.52734 -2.20703,-1.07812 -3.28906,-1.65625 -1.08203,-0.57812 -2.14844,-1.18359 -3.20312,-1.81641 -1.05079,-0.6289 -2.08985,-1.28515 -3.10938,-1.96875 -1.01953,-0.67968 -2.02344,-1.38671 -3.00781,-2.11718 -0.98828,-0.73438 -1.95313,-1.48828 -2.90235,-2.26563 -0.94921,-0.78125 -1.8789,-1.58203 -2.78906,-2.40625 -0.91015,-0.82422 -1.79687,-1.66797 -2.66406,-2.53906 -0.87109,-0.86719 -1.71484,-1.75391 -2.53906,-2.66406 -0.82422,-0.91016 -1.625,-1.83985 -2.40625,-2.78907 -0.77735,-0.94921 -1.53125,-1.91406 -2.26563,-2.90234 -0.73047,-0.98437 -1.4375,-1.98828 -2.11718,-3.00781 -0.6836,-1.01953 -1.33985,-2.0586 -1.96875,-3.10938 -0.63282,-1.05468 -1.23829,-2.12109 -1.81641,-3.20312 -0.57813,-1.08203 -1.12891,-2.17969 -1.65625,-3.28906 -0.52344,-1.10938 -1.01953,-2.23047 -1.48828,-3.36329 -0.47266,-1.13671 -0.91406,-2.28125 -1.32813,-3.4375 -0.41406,-1.15625 -0.79687,-2.32031 -1.15234,-3.49609 -0.35547,-1.17187 -0.68359,-2.35547 -0.98438,-3.54687 -0.29687,-1.19141 -0.5664,-2.38672 -0.80468,-3.58985 -0.23828,-1.20312 -0.44922,-2.41406 -0.62891,-3.6289 -0.17969,-1.21485 -0.33203,-2.42969 -0.45312,-3.65235 -0.11719,-1.22265 -0.20704,-2.44531 -0.26954,-3.67187 -0.0586,-1.22657 -0.0898,-2.45313 -0.0898,-3.67969 0,-1.22656 0.0312,-2.45313 0.0898,-3.67969 0.0625,-1.22656 0.15235,-2.44922 0.26954,-3.67187 0.12109,-1.22266 0.27343,-2.4375 0.45312,-3.65235 0.17969,-1.21484 0.39063,-2.42578 0.62891,-3.6289 0.23828,-1.20313 0.50781,-2.39844 0.80468,-3.58985 0.30079,-1.1914 0.62891,-2.375 0.98438,-3.54687 0.35547,-1.17578 0.73828,-2.33985 1.15234,-3.4961 0.41407,-1.15625 0.85547,-2.30078 1.32813,-3.4375 0.46875,-1.13281 0.96484,-2.2539 1.48828,-3.36328 0.52734,-1.10937 1.07812,-2.20703 1.65625,-3.28906 0.57812,-1.08203 1.18359,-2.14844 1.81641,-3.20312 0.6289,-1.05079 1.28515,-2.08985 1.96875,-3.10938 0.67968,-1.01953 1.38671,-2.02344 2.11718,-3.00781 0.73438,-0.98828 1.48828,-1.95313 2.26563,-2.90235 0.78125,-0.94921 1.58203,-1.8789 2.40625,-2.78906 0.82422,-0.91015 1.66797,-1.79687 2.53906,-2.66406 0.86719,-0.87109 1.75391,-1.71484 2.66406,-2.53906 0.91016,-0.82422 1.83985,-1.625 2.78906,-2.40625 0.94922,-0.77735 1.91407,-1.53125 2.90235,-2.26563 0.98437,-0.73047 1.98828,-1.4375 3.00781,-2.11718 1.01953,-0.6836 2.05859,-1.33985 3.10938,-1.96875 1.05468,-0.63282 2.12109,-1.23829 3.20312,-1.81641 1.08203,-0.57813 2.17969,-1.12891 3.28906,-1.65625 1.10938,-0.52344 2.23047,-1.01953 3.36328,-1.48828 1.13672,-0.47266 2.28125,-0.91406 3.4375,-1.32813 1.15625,-0.41406 2.32032,-0.79687 3.4961,-1.15234 1.17187,-0.35547 2.35547,-0.68359 3.54687,-0.98438 1.19141,-0.29687 2.38672,-0.5664 3.58985,-0.80468 1.20312,-0.23828 2.41406,-0.44922 3.6289,-0.62891 1.21485,-0.17969 2.42969,-0.33203 3.65235,-0.45312 1.22265,-0.11719 2.44531,-0.20704 3.67187,-0.26954 1.22656,-0.0586 2.45313,-0.0898 3.67969,-0.0898 1.22656,0 2.45312,0.0312 3.67969,0.0898 1.22656,0.0625 2.44922,0.15235 3.67187,0.26954 1.22266,0.12109 2.4375,0.27343 3.65235,0.45312 1.21484,0.17969 2.42578,0.39063 3.6289,0.62891 1.20313,0.23828 2.39844,0.50781 3.58985,0.80468 1.1914,0.30079 2.375,0.62891 3.54687,0.98438 1.17578,0.35547 2.33984,0.73828 3.49609,1.15234 1.15625,0.41407 2.30079,0.85547 3.4375,1.32813 1.13282,0.46875 2.25391,0.96484 3.36329,1.48828 1.10937,0.52734 2.20703,1.07812 3.28906,1.65625 1.08203,0.57812 2.14844,1.18359 3.20312,1.81641 1.05078,0.6289 2.08985,1.28515 3.10938,1.96875 1.01953,0.67968 2.02344,1.38671 3.00781,2.11718 0.98828,0.73438 1.95313,1.48828 2.90234,2.26563 0.94922,0.78125 1.87891,1.58203 2.78907,2.40625 0.91015,0.82422 1.79687,1.66797 2.66406,2.53906 0.87109,0.86719 1.71484,1.75391 2.53906,2.66406 0.82422,0.91016 1.625,1.83985 2.40625,2.78906 0.77735,0.94922 1.53125,1.91407 2.26563,2.90235 0.73047,0.98437 1.4375,1.98828 2.11718,3.00781 0.6836,1.01953 1.33985,2.05859 1.96875,3.10938 0.63282,1.05468 1.23829,2.12109 1.81641,3.20312 0.57813,1.08203 1.12891,2.17969 1.65625,3.28906 0.52344,1.10938 1.01953,2.23047 1.48828,3.36328 0.47266,1.13672 0.91406,2.28125 1.32813,3.4375 0.41015,1.15625 0.79687,2.32032 1.15234,3.4961 0.35547,1.17187 0.68359,2.35547 0.98438,3.54687 0.29687,1.19141 0.5664,2.38672 0.80468,3.58985 0.23828,1.20312 0.44922,2.41406 0.62891,3.6289 0.17969,1.21485 0.33203,2.42969 0.45312,3.65235 0.11719,1.22265 0.20704,2.44531 0.26954,3.67187 0.0586,1.22656 0.0898,2.45313 0.0898,3.67969 z m 0,0"
       fill-opacity="1"
       fill-rule="nonzero"
       id="path3" />
  </g>
  <g
     clip-path="url(#e8853b8960)"
     id="g4"
     transform="translate(-112.5,-112.5)">
    <path
       fill="#000000"
       d="m 150.29687,142.3125 c -1.13671,-0.45703 -3.41015,0 -4.54296,-0.68359 -1.13672,-0.67969 -1.13672,-2.5 0,-4.32032 1.13281,-1.82031 3.40625,-3.63672 5,-4.08984 1.58984,-0.45703 2.49609,0.45312 3.41015,0.90625 0.90625,0.45703 1.81641,0.45703 2.95313,0 1.13672,-0.45313 2.5,-1.36328 3.41015,-1.58984 0.90625,-0.22657 1.36328,0.22656 1.58594,1.13671 0.23047,0.91016 0.23047,2.27344 0.45703,3.1836 0.22656,0.91015 0.67969,1.36328 1.59375,1.58984 0.90625,0.22656 2.26953,0.22656 2.95313,0.6836 0.67968,0.45312 0.67968,1.36328 0.90625,2.04687 0.22656,0.67969 0.68359,1.13672 1.36718,1.36328 0.67969,0.22656 1.58985,0.22656 2.04297,0.6836 0.45703,0.45312 0.45703,1.36328 0.91016,2.04687 0.45312,0.67969 1.36328,1.13672 2.04297,1.36328 0.67969,0.22656 1.13672,0.22656 1.59375,0.67969 0.45312,0.45703 0.91015,1.36719 1.58984,2.04687 0.6836,0.67969 1.58985,1.13672 2.04297,1.82032 0.45703,0.67968 0.45703,1.59375 0.68359,2.73047 0.22657,1.13281 0.6836,2.49609 0.91016,3.41015 0.22656,0.90625 0.22656,1.36328 0.67969,1.81641 0.45703,0.45312 1.36328,0.91015 2.04687,1.14062 0.67969,0.22266 1.13672,0.22266 1.58985,-0.23047 0.45703,-0.45703 0.91015,-1.36328 1.13672,-2.5039 0.22656,-1.13672 0.22656,-2.5 -0.45704,-3.17969 -0.67968,-0.68359 -2.04296,-0.68359 -2.95312,-1.36719 -0.90625,-0.67968 -1.36328,-2.04297 -1.36328,-2.95312 0,-0.91016 0.45703,-1.36328 1.13672,-1.58985 0.68359,-0.23046 1.58984,-0.23046 2.27343,-0.45703 0.6836,-0.22656 1.13672,-0.68359 0.45704,-1.36328 -0.6875,-0.68359 -2.50391,-1.59375 -3.63672,-2.5039 -1.13672,-0.90625 -1.59375,-1.81641 -2.04688,-2.72657 -0.45703,-0.91015 -0.91015,-1.82031 -0.91015,-2.27343 0,-0.45704 0.45312,-0.45704 0.91015,-0.6836 0.45313,-0.22656 0.91016,-0.67969 0.91016,-1.36328 0,-0.67969 -0.45703,-1.59375 -0.6836,-2.5 -0.22656,-0.91016 -0.22656,-1.82031 -0.22656,-2.5 0,-0.68359 0,-1.14062 0.45313,-1.59375 0.45312,-0.45312 1.36328,-0.91016 1.82031,-0.68359 0.45312,0.23047 0.45312,1.13672 0.67969,1.82031 0.22656,0.68359 0.68359,1.13672 1.36328,0.91016 0.67969,-0.22657 1.59375,-1.13672 2.27344,-1.59375 0.67968,-0.45313 1.13671,-0.45313 1.59375,-0.22657 0.45312,0.22657 0.90625,0.6836 0.90625,1.36719 0,0.67969 -0.45313,1.58984 -0.90625,2.5 -0.45704,0.90625 -0.91407,1.82031 -0.91407,2.5 0,0.68359 0.45703,1.13672 1.13672,1.82031 0.6836,0.67969 1.59375,1.58985 1.82031,2.27344 0.22657,0.67969 -0.22656,1.13672 -0.45312,1.81641 -0.23047,0.68359 -0.23047,1.59375 -0.23047,2.5039 0,0.91016 0,1.81641 0.23047,2.5 0.22656,0.6836 0.67969,1.13672 1.13281,1.58985 0.45703,0.45312 0.91016,0.91015 0.6836,1.82422 -0.22657,0.90625 -1.13672,2.26953 -1.58985,3.17968 -0.45703,0.91016 -0.45703,1.36719 -0.45703,2.04688 0,0.68359 0,1.59375 0,2.5 0,0.91015 0,1.82031 0.23047,2.04687 0.22656,0.22657 0.67969,-0.22656 1.13281,-0.90625 0.45703,-0.6875 0.91016,-1.59375 1.36719,-2.5039 0.45312,-0.91016 0.90625,-1.82032 1.13672,-2.95703 0.22656,-1.13672 0.22656,-2.5 0.45312,-3.63672 0.22657,-1.13672 0.67969,-2.04688 1.13282,-2.5 0.45703,-0.45703 0.91406,-0.45703 1.36718,0 0.45313,0.45312 0.91016,1.36328 1.36328,2.04687 0.45704,0.67969 0.91016,1.13672 1.36329,1.13672 0.45312,0 0.91015,-0.45703 1.13671,-1.13672 0.22657,-0.68359 0.22657,-1.59375 0.45313,-2.95703 0.22656,-1.36328 0.68359,-3.18359 0.91016,-4.32031 0.22656,-1.13672 0.22656,-1.59375 0.45312,-1.82031 0.23047,-0.22657 0.68359,-0.22657 1.13672,0.23046 0.45312,0.45313 0.91016,1.36329 1.36719,2.26954 0.45312,0.91015 0.90625,1.82031 1.35937,2.27734 0.45703,0.45312 0.91016,0.45312 1.36328,0.22656 0.45703,-0.22656 0.91016,-0.68359 1.13672,-1.36328 0.23047,-0.68359 0.23047,-1.59375 0.6836,-2.50391 0.45312,-0.90625 1.36328,-1.8164 1.8164,-2.5 0.45313,-0.67968 0.45313,-1.13671 0.6836,-1.36328 0.22656,-0.23047 0.68359,-0.23047 0.90625,0.45703 0.23046,0.67969 0.23046,2.04297 0.23046,2.95313 0,0.91016 0,1.36328 0.22657,1.59375 0.22656,0.22266 0.68359,0.22266 1.36328,-0.23047 0.68359,-0.45312 1.58984,-1.36328 2.27344,-2.27344 0.67968,-0.91015 1.13671,-1.82031 1.58984,-2.27343 0.45703,-0.45704 0.91016,-0.45704 1.36328,-0.45704 0.45703,0 0.91016,0 1.36328,0.23047 0.45313,0.22657 0.91016,0.6836 1.36719,1.36328 0.45312,0.6836 0.90625,1.59375 1.35937,2.27344 0.45704,0.6836 0.91407,1.13672 1.13672,0.91016 0.23047,-0.22656 0.23047,-1.13672 0.45703,-1.82031 0.22657,-0.67969 0.67969,-1.13672 1.36329,-1.36329 0.67968,-0.22656 1.58984,-0.22656 2.27343,0.22657 0.67969,0.45703 1.13672,1.36718 1.36328,1.82031 0.22657,0.45312 0.22657,0.45312 0.45313,0.22656 0.22656,-0.22656 0.67969,-0.68359 1.13672,-1.13672 0.45312,-0.45312 0.91015,-0.91015 1.59375,-0.91015 0.67969,0 1.58984,0.45703 1.8164,1.13672 0.22657,0.68359 -0.22656,1.59375 -0.67968,2.27734 -0.45703,0.67969 -0.91407,1.13281 -1.13672,1.81641 -0.23047,0.68359 -0.23047,1.58984 0,2.5 0.22265,0.91015 0.67969,1.82031 1.35937,2.5039 0.6836,0.67969 1.59375,1.13672 1.82032,1.81641 0.22656,0.68359 -0.22657,1.59375 -0.6836,2.27344 -0.45312,0.68359 -0.90625,1.14062 -1.8164,0.91015 -0.91016,-0.22656 -2.27344,-1.13672 -3.17969,-1.8164 -0.91016,-0.6836 -1.36719,-1.13672 -1.59375,-1.82032 -0.22656,-0.68359 -0.22656,-1.59375 -0.45313,-2.04687 -0.22656,-0.45703 -0.68359,-0.45703 -0.91015,0 -0.22657,0.45312 -0.22657,1.36328 -0.6836,1.82031 -0.45312,0.45313 -1.36328,0.45313 -1.8164,0.22656 -0.45313,-0.22656 -0.45313,-0.68359 -0.90625,-1.13672 -0.45703,-0.45703 -1.36719,-0.91406 -2.04688,-1.13671 -0.68359,-0.23047 -1.14062,-0.23047 -1.36328,0.45312 -0.23047,0.68359 -0.23047,2.04688 -0.45703,2.95703 -0.22656,0.91016 -0.67969,1.36328 -1.13672,1.36328 -0.45312,0 -0.90625,-0.45312 -1.36328,-0.91015 -0.45313,-0.45313 -0.91016,-0.90625 -1.36328,-1.58985 -0.45313,-0.68359 -0.91016,-1.59375 -1.58985,-1.82031 -0.67968,-0.23047 -1.59375,0.22656 -2.04687,0.68359 -0.45313,0.45313 -0.45313,0.91016 -0.68359,1.36329 -0.22266,0.45703 -0.67969,0.91015 -1.58985,0.91015 -0.90625,0 -2.26953,-0.45312 -2.95312,-0.45312 -0.6836,0 -0.6836,0.45312 -0.91016,1.13672 -0.22656,0.67968 -0.67969,1.58984 -1.35937,2.26953 -0.6836,0.68359 -1.59375,1.14062 -2.73047,1.36328 -1.13672,0.23047 -2.5,0.23047 -3.63282,0.45703 -1.13671,0.22656 -2.05078,0.68359 -2.5039,1.59375 -0.45313,0.90625 -0.45313,2.26953 0,2.95312 0.45312,0.6836 1.36719,0.6836 2.27344,0.23047 0.91015,-0.45703 1.8164,-1.36718 2.5,-1.82031 0.68359,-0.45703 1.13671,-0.45703 1.36328,-0.67969 0.22656,-0.23047 0.22656,-0.6875 0.91015,-0.91406 0.6836,-0.22656 2.04297,-0.22656 2.95313,0 0.91015,0.22656 1.36328,0.68359 1.82031,0.45703 0.45313,-0.23047 0.90625,-1.13672 1.13672,-1.58984 0.22656,-0.45703 0.22656,-0.45703 0.67969,-0.6875 0.45312,-0.22266 1.36328,-0.67969 2.27343,0.004 0.90625,0.6836 1.82032,2.5 2.5,3.41016 0.67969,0.90625 1.13672,0.90625 1.58985,0.45313 0.45312,-0.45313 0.91015,-1.36329 1.58984,-1.82032 0.6836,-0.45312 1.59375,-0.45312 2.27344,0.23047 0.67969,0.67969 1.13672,2.04297 1.59375,3.1836 0.45312,1.13671 0.90625,2.04296 1.81641,2.5 0.91015,0.45312 2.27343,0.45312 3.41015,0.22656 1.13672,-0.22656 2.04297,-0.6836 3.17969,-0.90625 1.13672,-0.23047 2.5,-0.23047 2.95703,0.45312 0.45313,0.6836 -0.004,2.04688 -0.68359,2.72657 -0.67969,0.68359 -1.59375,0.68359 -1.81641,1.14062 -0.23047,0.45313 0.22266,1.36328 0.91016,1.81641 0.67968,0.45312 1.58593,0.45312 2.5,0.68359 0.90625,0.22656 1.8164,0.68359 2.26953,1.13672 0.45312,0.45312 0.45312,0.91016 0,1.58984 -0.45313,0.6836 -1.36328,1.58985 -1.36328,2.50391 0,0.90625 0.91015,1.81641 1.58984,2.5 0.67969,0.67969 1.13672,1.13672 1.36328,1.82031 0.23047,0.67969 0.23047,1.58985 0,2.5 -0.22656,0.90625 -0.68359,1.81641 -1.36328,2.04688 -0.67969,0.22265 -1.58984,-0.23047 -2.27344,-0.91016 -0.67968,-0.68359 -1.13672,-1.59375 -1.58984,-2.5 -0.45313,-0.91406 -0.91016,-1.82422 -1.58984,-2.27734 -0.6836,-0.45313 -1.58985,-0.45313 -2.04688,-1.13672 -0.45312,-0.67969 -0.45312,-2.04297 -0.90625,-3.17969 -0.45703,-1.14062 -1.36719,-2.04687 -2.27344,-2.50391 -0.91015,-0.45312 -1.8164,-0.45312 -2.72656,-0.90625 -0.91016,-0.45703 -1.82031,-1.36718 -2.5,-1.82031 -0.68359,-0.45703 -1.13672,-0.45703 -1.82031,-0.23047 -0.67969,0.22657 -1.58985,0.6836 -2.5,0.91016 -0.91016,0.22656 -1.81641,0.22656 -2.26953,-0.45313 -0.45703,-0.68359 -0.45703,-2.04687 -0.6836,-2.73046 -0.22656,-0.67969 -0.68359,-0.67969 -1.13672,-0.22657 -0.45312,0.45313 -0.91015,1.36719 -1.82031,2.04688 -0.90625,0.67969 -2.26953,1.13672 -3.17969,0.68359 -0.91015,-0.45703 -1.36328,-1.82031 -2.04296,-2.72656 -0.6836,-0.91406 -1.59375,-1.37109 -2.04688,-1.14063 -0.45703,0.22657 -0.45703,1.13672 -1.13672,1.59375 -0.68359,0.45313 -2.04687,0.45313 -2.95703,0 -0.90625,-0.45703 -1.35937,-1.36718 -2.04297,-1.59375 -0.68359,-0.23046 -1.58984,0.22657 -2.27344,0.6836 -0.68359,0.45312 -1.13671,0.91015 -1.13671,1.58984 0,0.6836 0.45312,1.59375 1.13671,2.27344 0.6836,0.68359 1.58985,1.14062 2.5,1.14062 0.91016,0 1.81641,-0.45703 2.95313,-0.91406 1.13672,-0.45312 2.5,-0.91015 3.41016,-0.67969 0.91015,0.22657 1.36328,1.13672 2.04687,1.59375 0.67969,0.45313 1.58984,0.45313 2.26953,0.45313 0.6836,0 1.13672,0 1.59375,0.45312 0.45313,0.45704 0.90625,1.36329 1.13672,1.36329 0.22266,0 0.22266,-0.90625 0.67969,-1.36329 0.45703,-0.45312 1.36328,-0.45312 2.5,-0.22656 1.13672,0.22656 2.5,0.6836 3.18359,1.58985 0.67969,0.91015 0.67969,2.27343 0.90625,2.73046 0.23047,0.45313 0.6836,0 0.91016,-0.45312 0.22656,-0.45703 0.22656,-0.91406 0.91015,-1.14063 0.67969,-0.22656 2.04297,-0.22656 2.5,0.45704 0.45313,0.68359 0,2.04687 0.22657,2.95703 0.22656,0.90625 1.13672,1.36328 2.04687,1.58984 0.90625,0.22656 1.81641,0.22656 2.5,0.22656 0.67969,0 1.13672,0 1.36328,0.45313 0.22657,0.45703 0.22657,1.36719 0,2.5039 -0.22656,1.13672 -0.68359,2.5 -0.91015,3.63672 -0.22657,1.13672 -0.22657,2.04688 -0.45313,2.72657 -0.23047,0.68359 -0.68359,1.14062 -1.13672,1.14062 -0.45703,0 -0.91015,-0.45703 -1.36328,-1.14062 -0.45312,-0.67969 -0.91015,-1.58985 -1.59375,-1.81641 -0.67969,-0.22656 -1.58984,0.23047 -2.5,0.23047 -0.90625,0 -1.8164,-0.45703 -2.26953,-1.14063 -0.45703,-0.67968 -0.45703,-1.59375 -0.91016,-2.5 -0.45703,-0.91015 -1.36328,-1.82031 -1.82031,-1.82031 -0.45312,0 -0.45312,0.91016 -1.13672,1.36328 -0.67968,0.45703 -2.04297,0.45703 -2.95312,0 -0.91016,-0.45312 -1.36328,-1.36328 -2.5,-2.04297 -1.13672,-0.68359 -2.95313,-1.14062 -4.31641,-1.36328 -1.36328,-0.23047 -2.27344,-0.23047 -2.95703,-0.23047 -0.67969,0 -1.13672,0 -1.58984,-0.22656 -0.45313,-0.22656 -0.91016,-0.68359 -1.36328,-1.58984 -0.45313,-0.91016 -0.90625,-2.27344 -1.58985,-3.1836 -0.68359,-0.91015 -1.58984,-1.36718 -2.5,-1.59375 -0.91015,-0.22656 -1.82031,-0.22656 -2.27344,0.6836 -0.45312,0.90625 -0.45312,2.72656 -0.22656,4.09375 0.22656,1.35937 0.67969,2.26953 1.82031,3.18359 1.13282,0.90625 2.94922,1.81641 4.54297,2.04688 1.58985,0.22265 2.95313,-0.23047 4.08985,-0.45704 1.13672,-0.22656 2.04687,-0.22656 2.95312,0 0.91016,0.22657 1.82031,0.67969 2.73047,1.13672 0.90625,0.45313 1.81641,0.90625 2.72656,1.13672 0.91016,0.22656 1.81641,0.22656 2.27344,0.22656 0.45313,0 0.45313,0 0.91016,0.45704 0.45312,0.45312 1.35937,1.36328 2.04297,2.27343 0.67968,0.91016 1.13671,1.81641 2.04687,2.04688 0.90625,0.22656 2.26953,-0.23047 3.17969,-0.45703 0.91015,-0.22657 1.36328,-0.22657 2.04687,0.68359 0.6836,0.90625 1.58985,2.72656 2.04297,3.86328 0.45703,1.13672 0.45703,1.59375 1.13672,1.82031 0.68359,0.22657 2.04688,0.22657 2.73047,0.67969 0.67969,0.45703 0.67969,1.36719 0.67969,2.04688 0,0.68359 0,1.13672 0.68359,2.05078 0.67969,0.90625 2.04297,2.26953 3.17969,3.63672 1.13672,1.36328 2.04687,2.72656 1.58984,4.09375 -0.45312,1.36328 -2.27344,2.72656 -3.17969,3.63672 -0.91015,0.90625 -0.91015,1.36328 -1.36718,1.36328 -0.45313,0 -1.35938,-0.45703 -2.04297,-0.91016 -0.67969,-0.45312 -1.13672,-0.91016 -1.36328,-0.91016 -0.22657,0 -0.22657,0.45704 -0.45313,0.45704 -0.23047,0 -0.68359,-0.45704 -1.36328,-1.36719 -0.68359,-0.90625 -1.58984,-2.26953 -2.5,-2.95313 -0.91016,-0.68359 -1.82031,-0.68359 -2.27734,-0.91015 -0.45313,-0.22657 -0.45313,-0.6836 -0.67969,-1.58985 -0.22656,-0.91406 -0.67969,-2.27734 -1.13672,-2.5039 -0.45312,-0.22657 -0.90625,0.68359 -1.81641,1.14062 -0.91015,0.45313 -2.27343,0.45313 -2.95312,0 -0.68359,-0.45703 -0.68359,-1.36719 -0.68359,-2.05078 0,-0.68359 0,-1.13672 0.22656,-1.81641 0.23047,-0.68359 0.68359,-1.59375 0.68359,-2.27343 0,-0.6836 -0.45312,-1.14063 -1.13672,-1.14063 -0.68359,0 -1.58984,0.45703 -2.27343,0.91016 -0.6836,0.45312 -1.13672,0.91015 -1.58985,0.68359 -0.45703,-0.22656 -0.91015,-1.13672 -1.36328,-2.27344 -0.45703,-1.13671 -0.91016,-2.5 -1.36719,-3.18359 -0.45312,-0.67969 -0.90625,-0.67969 -1.58593,-0.22656 -0.6836,0.45312 -1.59375,1.36328 -2.27344,1.8164 -0.6836,0.45704 -1.13672,0.45704 -1.59375,0 -0.45313,-0.45312 -0.91016,-1.36328 -1.58985,-2.26953 -0.68359,-0.91406 -1.58984,-1.82031 -2.5,-2.96093 -0.91015,-1.13672 -1.8164,-2.5 -2.5,-3.17969 -0.68359,-0.6836 -1.13671,-0.6836 -1.36328,0.22656 -0.22656,0.91016 -0.22656,2.73047 0,5.68359 0.22657,2.95704 0.67969,7.05079 1.13282,9.55079 0.45703,2.5 0.91406,3.41015 1.59375,4.77343 0.67968,1.36328 1.59375,3.1836 2.73046,5.23047 1.13282,2.04688 2.4961,4.32031 4.76954,7.50391 2.27343,3.17969 5.45312,7.27734 7.72656,9.77734 2.27344,2.5 3.63672,3.40625 5,4.54688 1.36328,1.13672 2.72656,2.5 3.63672,3.41015 0.90625,0.91016 1.36328,1.36328 1.59375,2.04688 0.22656,0.68359 0.22656,1.58984 0.22656,2.5 0,0.91015 0,1.82031 -0.68359,2.27344 -0.6836,0.45703 -2.04688,0.45703 -2.95313,0.23046 -0.91016,-0.23046 -1.36719,-0.6875 -1.82031,-1.14062 -0.45313,-0.45313 -0.91016,-0.91016 -1.58985,-1.81641 -0.67968,-0.91015 -1.59375,-2.27343 -2.04687,-2.5039 -0.45313,-0.22657 -0.45313,0.68359 -0.45313,1.36328 0,0.68359 0,1.14062 -0.45312,1.82031 -0.45703,0.68359 -1.36719,1.59375 -2.04688,2.04688 -0.68359,0.45703 -1.13671,0.45703 -1.58984,0 -0.45703,-0.45313 -0.91016,-1.36329 -1.82031,-2.5 -0.91016,-1.13672 -2.26953,-2.5 -2.95313,-3.1836 -0.68359,-0.68359 -0.68359,-0.68359 -0.68359,-0.22656 0,0.45312 0,1.36328 0,2.27344 0,0.91015 0,1.8164 0,2.5 0,0.67968 0,1.13672 -0.45313,1.36718 -0.45312,0.22657 -1.36328,0.22657 -2.04687,0.22657 -0.67969,0 -1.13672,0 -1.36328,-0.45703 -0.22656,-0.45313 -0.22656,-1.36329 -0.91016,-1.58985 -0.67969,-0.23047 -2.04297,0.22656 -2.72265,0.45313 -0.6875,0.22656 -0.6875,0.22656 -0.91016,0 -0.23047,-0.22657 -0.68359,-0.6836 -1.13672,-0.6836 -0.45703,0 -0.91016,0.45703 -1.13672,0.91016 -0.22656,0.45312 -0.22656,0.91016 -0.68359,0.91016 -0.45313,0 -1.36328,-0.45704 -1.81641,-0.91016 -0.45703,-0.45313 -0.45703,-0.91016 -0.45703,-1.58984 0,-0.6836 0,-1.58985 0,-2.27344 0,-0.6836 0,-1.13672 0,-1.36328 0,-0.23047 0,-0.23047 -0.22266,0 -0.23046,0.22656 -0.68359,0.67968 -1.13671,1.58984 -0.45704,0.91016 -0.91407,2.27344 -1.36719,3.18359 -0.45313,0.90625 -0.90625,1.36329 -1.58985,1.59375 -0.68359,0.22657 -1.58984,0.22657 -2.27343,0 -0.67969,-0.23046 -1.13672,-0.6875 -1.36328,-1.14062 -0.22657,-0.45313 -0.22657,-0.91016 0.22656,-1.58984 0.45703,-0.6836 1.36328,-1.58985 2.04687,-2.73047 0.67969,-1.13672 1.13672,-2.5 1.58985,-3.63672 0.45703,-1.13672 0.91015,-2.04688 1.13672,-3.1836 0.22656,-1.13671 0.22656,-2.5 0.45312,-3.63671 0.22656,-1.13672 0.68359,-2.04688 1.14063,-3.1836 0.45312,-1.13672 0.90625,-2.5 1.35937,-3.17969 0.45703,-0.6875 0.91016,-0.6875 1.13672,-1.82031 0.22656,-1.13672 0.22656,-3.41406 0.22656,-5.6875 0,-2.27344 0,-4.54687 -0.22656,-6.82031 -0.22656,-2.27344 -0.67969,-4.54688 -1.13672,-7.5 -0.45312,-2.96094 -0.90625,-6.59766 -1.13672,-10.00781 -0.22265,-3.41016 -0.22265,-6.59375 -0.45312,-8.1836 -0.22657,-1.59375 -0.6836,-1.59375 -1.13672,-1.14062 -0.45313,0.45703 -0.90625,1.36719 -1.58985,2.04687 -0.68359,0.6836 -1.58984,1.13672 -2.5,1.13672 -0.91015,0 -1.82031,-0.45312 -2.27343,-1.13672 -0.45313,-0.67968 -0.45313,-1.58984 -0.45313,-2.5 0,-0.91015 0,-1.8164 -0.45703,-2.27343 -0.45312,-0.45313 -1.35937,-0.45313 -2.04297,0 -0.67969,0.45703 -1.13672,1.36328 -1.36719,2.27343 -0.22265,0.91016 -0.22265,1.82032 -0.22265,2.5 0,0.6836 0,1.13672 0.45312,1.82032 0.45313,0.67968 1.36328,1.59375 2.04297,2.5 0.6836,0.91015 1.13672,1.82031 1.13672,2.73046 0,0.91016 -0.45312,1.81641 -1.35937,2.27344 -0.91407,0.45703 -2.27344,0.45703 -3.41016,0.45703 -1.13672,0 -2.04688,0 -2.5,0.45313 -0.45313,0.45312 -0.45313,1.36328 -0.68359,2.5039 -0.22657,1.13282 -0.6836,2.4961 -1.13672,3.63282 -0.45313,1.13672 -0.90625,2.04687 -1.58985,2.5 -0.68359,0.45703 -1.58984,0.45703 -2.27343,0.45703 -0.67969,0 -1.13672,0 -1.36329,0.45703 -0.22656,0.45312 -0.22656,1.36328 -0.22656,2.04297 0,0.68359 0,1.14062 -0.22656,1.82031 -0.22656,0.68359 -0.68359,1.58984 -1.13672,2.27344 -0.45703,0.68359 -0.91016,1.13672 -1.36328,1.82031 -0.45313,0.67969 -0.91016,1.58984 -1.13672,2.5 -0.22656,0.91016 -0.22656,1.82031 -0.22656,2.5 0,0.68359 0,1.13672 -0.6836,1.36719 -0.67968,0.22656 -2.04296,0.22656 -2.72265,-0.23047 -0.6836,-0.45313 -0.6836,-1.36328 -0.91406,-2.26953 -0.22266,-0.91406 -0.67969,-1.82422 -1.13672,-2.50391 -0.45313,-0.68359 -0.91016,-1.13672 -1.81641,-1.36719 -0.91016,-0.22265 -2.27344,-0.22265 -3.17969,-0.45312 -0.91015,-0.22656 -1.36718,-0.67969 -1.59375,-1.13281 -0.22656,-0.45703 -0.22656,-0.91407 0,-1.36719 0.22657,-0.45313 0.6836,-0.91016 1.13672,-1.36719 0.45313,-0.44922 0.91016,-0.90625 1.58985,-1.13281 0.68359,-0.22656 1.58984,-0.22656 2.04687,-0.67969 0.45313,-0.45703 0.45313,-1.36719 0.45313,-1.82031 0,-0.45703 0,-0.45703 0,-0.68359 0,-0.23047 0,-0.6836 0.68359,-1.13672 0.67969,-0.45703 2.04297,-0.91016 2.72656,-1.13672 0.67969,-0.22656 0.67969,-0.22656 0.67969,-0.6836 0,-0.45312 0,-1.36328 0,-2.27343 0,-0.91016 0,-1.82032 0.23047,-2.27344 0.22265,-0.45313 0.67969,-0.45313 1.58984,-0.45313 0.91016,0 2.27344,0 2.95703,-0.23046 0.67969,-0.22657 0.67969,-0.67969 0.67969,-1.36329 0,-0.68359 0,-1.58984 0,-2.27343 0,-0.67969 0,-1.13672 0.45313,-1.58985 0.45312,-0.45312 1.36328,-0.91015 2.27734,-1.14062 0.90625,-0.22656 1.8125,-0.22656 2.49609,-0.22656 0.6836,0 1.13672,0 1.36328,-0.22657 0.22657,-0.22656 0.22657,-0.68359 0,-1.59375 -0.22656,-0.90625 -0.67968,-2.26953 -0.45312,-3.40625 0.22656,-1.14062 1.13672,-2.05078 2.04687,-2.73047 0.90625,-0.67968 1.81641,-1.13671 1.81641,-1.58984 0,-0.45703 -0.91016,-0.91016 -1.36328,-1.14062 -0.45313,-0.22266 -0.45313,-0.22266 -0.68359,-0.22266 -0.22657,0 -0.6836,0 -1.36329,0.67969 -0.67968,0.68359 -1.59375,2.04687 -2.72656,2.73047 -1.13672,0.67968 -2.5,0.67968 -3.40625,1.13281 -0.91406,0.45703 -1.36719,1.36719 -1.59375,2.04687 -0.22656,0.6836 -0.22656,1.13672 -0.91015,1.36719 -0.6836,0.22656 -2.04297,0.22656 -2.72657,0.67969 -0.68359,0.45312 -0.68359,1.36719 -1.36328,2.04687 -0.68359,0.6836 -2.04687,1.14063 -2.95312,1.82032 -0.91016,0.68359 -1.36719,1.58984 -1.58985,2.27343 -0.23047,0.67969 -0.23047,1.13672 -0.45703,1.36328 -0.22656,0.23047 -0.67969,0.23047 -1.13672,0 -0.45312,-0.22656 -0.91015,-0.68359 -1.58984,-0.68359 -0.68359,0 -1.59375,0.45703 -2.27344,0.68359 -0.68359,0.23047 -1.13672,0.23047 -1.82031,-0.22656 -0.67969,-0.45703 -1.58984,-1.36328 -2.04297,-2.27344 -0.45312,-0.91015 -0.45312,-1.82031 0,-2.95703 0.45313,-1.13672 1.36328,-2.5 2.04297,-3.63672 0.68359,-1.13671 1.13672,-2.04687 2.04687,-2.72656 0.91016,-0.68359 2.27344,-1.14062 2.95704,-1.36719 0.67968,-0.22656 0.67968,-0.22656 0.67968,-0.67968 0,-0.45703 0,-1.36719 0,-2.05078 0,-0.67969 0,-1.13672 0.45703,-1.36329 0.45313,-0.22656 1.35938,-0.22656 2.27344,-0.22656 0.90625,0 1.81641,0 2.4961,-0.45312 0.68359,-0.45703 1.13671,-1.36328 1.36328,-2.04688 0.22656,-0.67969 0.22656,-1.13672 0.45703,-1.59375 0.22265,-0.45312 0.67969,-0.91015 1.36328,-0.67969 0.67969,0.22657 1.58984,1.13672 2.26953,1.81641 0.68359,0.68359 1.13672,1.14063 1.59375,1.14063 0.45313,0 0.91016,-0.45704 1.13672,-1.14063 0.22656,-0.67969 0.22656,-1.58984 0.45312,-2.04297 0.22657,-0.45703 0.6836,-0.45703 0.91016,-0.45703 0.22656,0 0.22656,0 0.22656,0.68359 0,0.67969 0,2.04297 0.45703,2.72657 0.45313,0.68359 1.35938,0.68359 1.81641,0 0.45313,-0.6836 0.45313,-2.04688 0.45313,-2.72657 0,-0.68359 0,-0.68359 0.23046,-0.68359 0.22657,0 0.67969,0 1.13282,0.45703 0.45312,0.45313 0.91015,1.36328 1.82031,1.82031 0.90625,0.45313 2.26953,0.45313 3.17969,0 0.91015,-0.45703 1.36718,-1.36718 1.82031,-2.04687 0.45312,-0.68359 0.91016,-1.13672 0.91016,-1.59375 0,-0.45313 -0.45704,-0.91016 -0.91016,-1.59375 -0.45313,-0.67969 -0.91016,-1.58984 -1.59375,-1.81641 -0.67969,-0.23047 -1.58984,0.22657 -2.72266,0.67969 -1.13672,0.45313 -2.5,0.91016 -3.63672,1.13672 -1.14062,0.23047 -2.04687,0.23047 -2.73046,0 -0.67969,-0.22656 -1.13672,-0.68359 -1.81641,-0.90625 -0.68359,-0.23047 -1.59375,-0.23047 -2.04688,0 -0.45312,0.22266 -0.45312,0.67969 -0.90625,0.90625 -0.45703,0.23047 -1.36718,0.23047 -2.27343,-0.22656 -0.91016,-0.45313 -1.82032,-1.36328 -2.72657,-1.82032 -0.91015,-0.45312 -1.82031,-0.45312 -2.27343,0 -0.45703,0.45704 -0.45703,1.36719 -0.45703,2.04688 0,0.68359 0,1.14062 -0.22657,1.36719 -0.22656,0.22656 -0.68359,0.22656 -1.13672,-0.22657 -0.45312,-0.45703 -0.90625,-1.36718 -1.58984,-1.82031 -0.67969,-0.45703 -1.58984,-0.45703 -2.04687,0 -0.45313,0.45313 -0.45313,1.36328 -0.90625,1.82031 -0.45704,0.45313 -1.36719,0.45313 -2.04688,0 -0.67969,-0.45703 -1.13672,-1.36718 -1.58984,-2.04687 -0.45313,-0.68359 -0.91016,-1.14063 -1.36328,-0.91016 -0.45704,0.22657 -0.91016,1.13672 -1.82032,2.04688 -0.91015,0.90625 -2.27343,1.82031 -3.40625,1.58984 -1.14062,-0.22656 -2.04687,-1.58984 -1.82031,-2.72656 0.22656,-1.14063 1.58984,-2.04688 2.5,-3.18359 0.91016,-1.14063 1.36719,-2.50391 1.82031,-3.86719 0.45313,-1.36328 0.90625,-2.72656 0.90625,-3.63672 0,-0.91016 -0.45312,-1.36328 -0.22656,-1.59375 0.22656,-0.22656 1.13672,-0.22656 2.27344,0 1.13672,0.23047 2.5,0.68359 3.17969,1.13672 0.68359,0.45703 0.68359,0.91406 0.91015,0.91406 0.22656,0 0.6836,-0.45703 0.91016,-1.36719 0.22656,-0.91015 0.22656,-2.27343 0.67969,-2.95703 0.45703,-0.67969 1.36718,-0.67969 2.04687,-0.67969 0.68359,0 1.13672,0 1.36328,0.45313 0.22656,0.45312 0.22656,1.36719 0.45703,2.27344 0.22266,0.91015 0.67969,1.82031 1.13282,2.04687 0.45312,0.23047 0.91015,-0.22656 1.13671,-0.68359 0.22657,-0.45313 0.22657,-0.90625 0.91016,-1.13672 0.68359,-0.22656 2.04297,-0.22656 2.72656,0.23047 0.6836,0.45312 0.6836,1.36328 0.91016,1.82031 0.22656,0.45313 0.68359,0.45313 0.91016,0.45313 0.22656,0 0.22656,0 0.45312,-0.45313 0.22656,-0.45703 0.68359,-1.36719 1.13672,-1.82031 0.45312,-0.45703 0.90625,-0.45703 1.36328,0 0.45313,0.45312 0.91016,1.36328 1.36328,2.27344 0.45313,0.91015 0.91016,1.82031 1.36328,2.27343 0.45313,0.45313 0.91016,0.45313 1.13672,0 0.22656,-0.45312 0.22656,-1.36328 0.45313,-1.82031 0.22656,-0.45312 0.68359,-0.45312 1.36718,0 0.67969,0.45703 1.58985,1.36719 1.81641,2.04688 0.22656,0.67968 -0.23047,1.13671 0,1.13671 0.22656,0 1.13672,-0.45703 2.27344,0 1.13672,0.45313 2.5,1.81641 3.63672,2.73047 1.13672,0.90625 2.04297,1.36328 2.27343,0.90625 0.22266,-0.45312 -0.23046,-1.8164 -1.13671,-2.95312 -0.91407,-1.14063 -2.27344,-2.04688 -4.54688,-3.64063 -2.27344,-1.58984 -5.45703,-3.86328 -7.26953,-5.45703 -1.82031,-1.58984 -2.27734,-2.5 -2.73047,-2.95312 -0.45703,-0.45703 -0.91016,-0.45703 -1.59375,-0.22657 -0.67969,0.22657 -1.58984,0.67969 -2.04297,0.67969 -0.45312,0 -0.45312,-0.45312 -0.67969,-1.36328 -0.23046,-0.91016 -0.6875,-2.27344 -1.14062,-2.95703 -0.45313,-0.68359 -0.90625,-0.68359 -1.58984,-0.22656 -0.67969,0.45312 -1.58985,1.36328 -2.4961,1.58984 -0.91406,0.23047 -1.82031,-0.22656 -2.27344,-0.45312 -0.45703,-0.23047 -0.45703,-0.23047 -0.45703,-0.91016 0,-0.68359 0,-2.04688 -1.13672,-2.5 z m 43.41016,85.03906 c 0.90625,0 1.81641,0 2.72656,0 0,1.36328 0,2.72656 0,4.08985 -0.45312,0.45312 -0.91015,0.91015 -1.36718,1.36328 0,0.91015 0,1.82031 0,2.73047 -0.45313,0.91015 -0.90625,1.82031 -1.35938,2.72656 -0.45703,0.91015 -0.91016,1.82031 -1.36328,2.73047 0,-1.36719 0,-2.73047 0,-4.09375 0,-1.36328 0,-2.72657 0,-4.09375 0.45312,-0.45313 0.90625,-0.91016 1.36328,-1.36328 0,-1.36329 0,-2.72657 0,-4.08985 z m 10.91016,-1.36328 c -1.36719,0 -2.73047,0 -4.09375,0 0,0.90625 0,1.81641 0,2.72656 2.27343,2.72657 4.54687,5.45703 6.8164,8.1836 0.45703,-0.45313 0.91016,-0.91016 1.36719,-1.36328 -0.91016,-1.36719 -1.82031,-2.73047 -2.73047,-4.09375 0,-1.36329 0,-2.72657 0,-4.08985 -0.45312,-0.45703 -0.90625,-0.91015 -1.35937,-1.36328 z m -19.77344,-60.03125 c 2.63281,0 4.76953,2.14063 4.76953,4.77734 0,2.63282 -2.13672,4.77344 -4.76953,4.77344 -2.63672,0 -4.77344,-2.14062 -4.77344,-4.77344 0,-2.63671 2.13672,-4.77734 4.77344,-4.77734 z m 0,0"
       fill-opacity="1"
       fill-rule="evenodd"
       id="path4" />
  </g>
</svg>
