<svg xmlns="http://www.w3.org/2000/svg" xmlns:xlink="http://www.w3.org/1999/xlink" width="500" zoomAndPan="magnify" viewBox="0 0 375 374.999991" height="500" preserveAspectRatio="xMidYMid meet" version="1.0"><defs><clipPath id="dbec81c7ab"><path d="M 112.5 112.5 L 262.5 112.5 L 262.5 262.5 L 112.5 262.5 Z M 112.5 112.5 " clip-rule="nonzero"/></clipPath><clipPath id="e8853b8960"><path d="M 136 129.585938 L 238.703125 129.585938 L 238.703125 245.085938 L 136 245.085938 Z M 136 129.585938 " clip-rule="nonzero"/></clipPath></defs><g clip-path="url(#dbec81c7ab)"><path fill="#65934b" d="M 262.5 187.5 C 262.5 188.726562 262.46875 189.953125 262.410156 191.179688 C 262.347656 192.40625 262.257812 193.628906 262.140625 194.851562 C 262.019531 196.074219 261.867188 197.289062 261.6875 198.503906 C 261.507812 199.71875 261.296875 200.929688 261.058594 202.132812 C 260.820312 203.335938 260.550781 204.53125 260.253906 205.722656 C 259.953125 206.914062 259.625 208.097656 259.269531 209.269531 C 258.914062 210.445312 258.527344 211.609375 258.117188 212.765625 C 257.703125 213.921875 257.261719 215.066406 256.789062 216.203125 C 256.320312 217.335938 255.824219 218.457031 255.300781 219.566406 C 254.773438 220.675781 254.222656 221.773438 253.644531 222.855469 C 253.066406 223.9375 252.460938 225.003906 251.828125 226.058594 C 251.199219 227.109375 250.542969 228.148438 249.859375 229.167969 C 249.179688 230.1875 248.472656 231.191406 247.742188 232.175781 C 247.007812 233.164062 246.253906 234.128906 245.476562 235.078125 C 244.695312 236.027344 243.894531 236.957031 243.070312 237.867188 C 242.246094 238.777344 241.402344 239.664062 240.53125 240.53125 C 239.664062 241.402344 238.777344 242.246094 237.867188 243.070312 C 236.957031 243.894531 236.027344 244.695312 235.078125 245.476562 C 234.128906 246.253906 233.164062 247.007812 232.175781 247.742188 C 231.191406 248.472656 230.1875 249.179688 229.167969 249.859375 C 228.148438 250.542969 227.109375 251.199219 226.058594 251.828125 C 225.003906 252.460938 223.9375 253.066406 222.855469 253.644531 C 221.773438 254.222656 220.675781 254.773438 219.566406 255.300781 C 218.457031 255.824219 217.335938 256.320312 216.203125 256.789062 C 215.066406 257.261719 213.921875 257.703125 212.765625 258.117188 C 211.609375 258.527344 210.445312 258.914062 209.269531 259.269531 C 208.097656 259.625 206.914062 259.953125 205.722656 260.253906 C 204.53125 260.550781 203.335938 260.820312 202.132812 261.058594 C 200.929688 261.296875 199.71875 261.507812 198.503906 261.6875 C 197.289062 261.867188 196.074219 262.019531 194.851562 262.140625 C 193.628906 262.257812 192.40625 262.347656 191.179688 262.410156 C 189.953125 262.46875 188.726562 262.5 187.5 262.5 C 186.273438 262.5 185.046875 262.46875 183.820312 262.410156 C 182.59375 262.347656 181.371094 262.257812 180.148438 262.140625 C 178.925781 262.019531 177.710938 261.867188 176.496094 261.6875 C 175.28125 261.507812 174.070312 261.296875 172.867188 261.058594 C 171.664062 260.820312 170.46875 260.550781 169.277344 260.253906 C 168.085938 259.953125 166.902344 259.625 165.730469 259.269531 C 164.554688 258.914062 163.390625 258.527344 162.234375 258.117188 C 161.078125 257.703125 159.933594 257.261719 158.796875 256.789062 C 157.664062 256.320312 156.542969 255.824219 155.433594 255.300781 C 154.324219 254.773438 153.226562 254.222656 152.144531 253.644531 C 151.0625 253.066406 149.996094 252.460938 148.941406 251.828125 C 147.890625 251.199219 146.851562 250.542969 145.832031 249.859375 C 144.8125 249.179688 143.808594 248.472656 142.824219 247.742188 C 141.835938 247.007812 140.871094 246.253906 139.921875 245.476562 C 138.972656 244.695312 138.042969 243.894531 137.132812 243.070312 C 136.222656 242.246094 135.335938 241.402344 134.46875 240.53125 C 133.597656 239.664062 132.753906 238.777344 131.929688 237.867188 C 131.105469 236.957031 130.304688 236.027344 129.523438 235.078125 C 128.746094 234.128906 127.992188 233.164062 127.257812 232.175781 C 126.527344 231.191406 125.820312 230.1875 125.140625 229.167969 C 124.457031 228.148438 123.800781 227.109375 123.171875 226.058594 C 122.539062 225.003906 121.933594 223.9375 121.355469 222.855469 C 120.777344 221.773438 120.226562 220.675781 119.699219 219.566406 C 119.175781 218.457031 118.679688 217.335938 118.210938 216.203125 C 117.738281 215.066406 117.296875 213.921875 116.882812 212.765625 C 116.46875 211.609375 116.085938 210.445312 115.730469 209.269531 C 115.375 208.097656 115.046875 206.914062 114.746094 205.722656 C 114.449219 204.53125 114.179688 203.335938 113.941406 202.132812 C 113.703125 200.929688 113.492188 199.71875 113.3125 198.503906 C 113.132812 197.289062 112.980469 196.074219 112.859375 194.851562 C 112.742188 193.628906 112.652344 192.40625 112.589844 191.179688 C 112.53125 189.953125 112.5 188.726562 112.5 187.5 C 112.5 186.273438 112.53125 185.046875 112.589844 183.820312 C 112.652344 182.59375 112.742188 181.371094 112.859375 180.148438 C 112.980469 178.925781 113.132812 177.710938 113.3125 176.496094 C 113.492188 175.28125 113.703125 174.070312 113.941406 172.867188 C 114.179688 171.664062 114.449219 170.46875 114.746094 169.277344 C 115.046875 168.085938 115.375 166.902344 115.730469 165.730469 C 116.085938 164.554688 116.46875 163.390625 116.882812 162.234375 C 117.296875 161.078125 117.738281 159.933594 118.210938 158.796875 C 118.679688 157.664062 119.175781 156.542969 119.699219 155.433594 C 120.226562 154.324219 120.777344 153.226562 121.355469 152.144531 C 121.933594 151.0625 122.539062 149.996094 123.171875 148.941406 C 123.800781 147.890625 124.457031 146.851562 125.140625 145.832031 C 125.820312 144.8125 126.527344 143.808594 127.257812 142.824219 C 127.992188 141.835938 128.746094 140.871094 129.523438 139.921875 C 130.304688 138.972656 131.105469 138.042969 131.929688 137.132812 C 132.753906 136.222656 133.597656 135.335938 134.46875 134.46875 C 135.335938 133.597656 136.222656 132.753906 137.132812 131.929688 C 138.042969 131.105469 138.972656 130.304688 139.921875 129.523438 C 140.871094 128.746094 141.835938 127.992188 142.824219 127.257812 C 143.808594 126.527344 144.8125 125.820312 145.832031 125.140625 C 146.851562 124.457031 147.890625 123.800781 148.941406 123.171875 C 149.996094 122.539062 151.0625 121.933594 152.144531 121.355469 C 153.226562 120.777344 154.324219 120.226562 155.433594 119.699219 C 156.542969 119.175781 157.664062 118.679688 158.796875 118.210938 C 159.933594 117.738281 161.078125 117.296875 162.234375 116.882812 C 163.390625 116.46875 164.554688 116.085938 165.730469 115.730469 C 166.902344 115.375 168.085938 115.046875 169.277344 114.746094 C 170.46875 114.449219 171.664062 114.179688 172.867188 113.941406 C 174.070312 113.703125 175.28125 113.492188 176.496094 113.3125 C 177.710938 113.132812 178.925781 112.980469 180.148438 112.859375 C 181.371094 112.742188 182.59375 112.652344 183.820312 112.589844 C 185.046875 112.53125 186.273438 112.5 187.5 112.5 C 188.726562 112.5 189.953125 112.53125 191.179688 112.589844 C 192.40625 112.652344 193.628906 112.742188 194.851562 112.859375 C 196.074219 112.980469 197.289062 113.132812 198.503906 113.3125 C 199.71875 113.492188 200.929688 113.703125 202.132812 113.941406 C 203.335938 114.179688 204.53125 114.449219 205.722656 114.746094 C 206.914062 115.046875 208.097656 115.375 209.269531 115.730469 C 210.445312 116.085938 211.609375 116.46875 212.765625 116.882812 C 213.921875 117.296875 215.066406 117.738281 216.203125 118.210938 C 217.335938 118.679688 218.457031 119.175781 219.566406 119.699219 C 220.675781 120.226562 221.773438 120.777344 222.855469 121.355469 C 223.9375 121.933594 225.003906 122.539062 226.058594 123.171875 C 227.109375 123.800781 228.148438 124.457031 229.167969 125.140625 C 230.1875 125.820312 231.191406 126.527344 232.175781 127.257812 C 233.164062 127.992188 234.128906 128.746094 235.078125 129.523438 C 236.027344 130.304688 236.957031 131.105469 237.867188 131.929688 C 238.777344 132.753906 239.664062 133.597656 240.53125 134.46875 C 241.402344 135.335938 242.246094 136.222656 243.070312 137.132812 C 243.894531 138.042969 244.695312 138.972656 245.476562 139.921875 C 246.253906 140.871094 247.007812 141.835938 247.742188 142.824219 C 248.472656 143.808594 249.179688 144.8125 249.859375 145.832031 C 250.542969 146.851562 251.199219 147.890625 251.828125 148.941406 C 252.460938 149.996094 253.066406 151.0625 253.644531 152.144531 C 254.222656 153.226562 254.773438 154.324219 255.300781 155.433594 C 255.824219 156.542969 256.320312 157.664062 256.789062 158.796875 C 257.261719 159.933594 257.703125 161.078125 258.117188 162.234375 C 258.527344 163.390625 258.914062 164.554688 259.269531 165.730469 C 259.625 166.902344 259.953125 168.085938 260.253906 169.277344 C 260.550781 170.46875 260.820312 171.664062 261.058594 172.867188 C 261.296875 174.070312 261.507812 175.28125 261.6875 176.496094 C 261.867188 177.710938 262.019531 178.925781 262.140625 180.148438 C 262.257812 181.371094 262.347656 182.59375 262.410156 183.820312 C 262.46875 185.046875 262.5 186.273438 262.5 187.5 Z M 262.5 187.5 " fill-opacity="1" fill-rule="nonzero"/></g><g clip-path="url(#e8853b8960)"><path fill="#000000" d="M 150.296875 142.3125 C 149.160156 141.855469 146.886719 142.3125 145.753906 141.628906 C 144.617188 140.949219 144.617188 139.128906 145.753906 137.308594 C 146.886719 135.488281 149.160156 133.671875 150.753906 133.21875 C 152.34375 132.761719 153.25 133.671875 154.164062 134.125 C 155.070312 134.582031 155.980469 134.582031 157.117188 134.125 C 158.253906 133.671875 159.617188 132.761719 160.527344 132.535156 C 161.433594 132.308594 161.890625 132.761719 162.113281 133.671875 C 162.34375 134.582031 162.34375 135.945312 162.570312 136.855469 C 162.796875 137.765625 163.25 138.21875 164.164062 138.445312 C 165.070312 138.671875 166.433594 138.671875 167.117188 139.128906 C 167.796875 139.582031 167.796875 140.492188 168.023438 141.175781 C 168.25 141.855469 168.707031 142.3125 169.390625 142.539062 C 170.070312 142.765625 170.980469 142.765625 171.433594 143.222656 C 171.890625 143.675781 171.890625 144.585938 172.34375 145.269531 C 172.796875 145.949219 173.707031 146.40625 174.386719 146.632812 C 175.066406 146.859375 175.523438 146.859375 175.980469 147.3125 C 176.433594 147.769531 176.890625 148.679688 177.570312 149.359375 C 178.253906 150.039062 179.160156 150.496094 179.613281 151.179688 C 180.070312 151.859375 180.070312 152.773438 180.296875 153.910156 C 180.523438 155.042969 180.980469 156.40625 181.207031 157.320312 C 181.433594 158.226562 181.433594 158.683594 181.886719 159.136719 C 182.34375 159.589844 183.25 160.046875 183.933594 160.277344 C 184.613281 160.5 185.070312 160.5 185.523438 160.046875 C 185.980469 159.589844 186.433594 158.683594 186.660156 157.542969 C 186.886719 156.40625 186.886719 155.042969 186.203125 154.363281 C 185.523438 153.679688 184.160156 153.679688 183.25 152.996094 C 182.34375 152.316406 181.886719 150.953125 181.886719 150.042969 C 181.886719 149.132812 182.34375 148.679688 183.023438 148.453125 C 183.707031 148.222656 184.613281 148.222656 185.296875 147.996094 C 185.980469 147.769531 186.433594 147.3125 185.753906 146.632812 C 185.066406 145.949219 183.25 145.039062 182.117188 144.128906 C 180.980469 143.222656 180.523438 142.3125 180.070312 141.402344 C 179.613281 140.492188 179.160156 139.582031 179.160156 139.128906 C 179.160156 138.671875 179.613281 138.671875 180.070312 138.445312 C 180.523438 138.21875 180.980469 137.765625 180.980469 137.082031 C 180.980469 136.402344 180.523438 135.488281 180.296875 134.582031 C 180.070312 133.671875 180.070312 132.761719 180.070312 132.082031 C 180.070312 131.398438 180.070312 130.941406 180.523438 130.488281 C 180.976562 130.035156 181.886719 129.578125 182.34375 129.804688 C 182.796875 130.035156 182.796875 130.941406 183.023438 131.625 C 183.25 132.308594 183.707031 132.761719 184.386719 132.535156 C 185.066406 132.308594 185.980469 131.398438 186.660156 130.941406 C 187.339844 130.488281 187.796875 130.488281 188.253906 130.714844 C 188.707031 130.941406 189.160156 131.398438 189.160156 132.082031 C 189.160156 132.761719 188.707031 133.671875 188.253906 134.582031 C 187.796875 135.488281 187.339844 136.402344 187.339844 137.082031 C 187.339844 137.765625 187.796875 138.21875 188.476562 138.902344 C 189.160156 139.582031 190.070312 140.492188 190.296875 141.175781 C 190.523438 141.855469 190.070312 142.3125 189.84375 142.992188 C 189.613281 143.675781 189.613281 144.585938 189.613281 145.496094 C 189.613281 146.40625 189.613281 147.3125 189.84375 147.996094 C 190.070312 148.679688 190.523438 149.132812 190.976562 149.585938 C 191.433594 150.039062 191.886719 150.496094 191.660156 151.410156 C 191.433594 152.316406 190.523438 153.679688 190.070312 154.589844 C 189.613281 155.5 189.613281 155.957031 189.613281 156.636719 C 189.613281 157.320312 189.613281 158.230469 189.613281 159.136719 C 189.613281 160.046875 189.613281 160.957031 189.84375 161.183594 C 190.070312 161.410156 190.523438 160.957031 190.976562 160.277344 C 191.433594 159.589844 191.886719 158.683594 192.34375 157.773438 C 192.796875 156.863281 193.25 155.953125 193.480469 154.816406 C 193.707031 153.679688 193.707031 152.316406 193.933594 151.179688 C 194.160156 150.042969 194.613281 149.132812 195.066406 148.679688 C 195.523438 148.222656 195.980469 148.222656 196.433594 148.679688 C 196.886719 149.132812 197.34375 150.042969 197.796875 150.726562 C 198.253906 151.40625 198.707031 151.863281 199.160156 151.863281 C 199.613281 151.863281 200.070312 151.40625 200.296875 150.726562 C 200.523438 150.042969 200.523438 149.132812 200.75 147.769531 C 200.976562 146.40625 201.433594 144.585938 201.660156 143.449219 C 201.886719 142.3125 201.886719 141.855469 202.113281 141.628906 C 202.34375 141.402344 202.796875 141.402344 203.25 141.859375 C 203.703125 142.3125 204.160156 143.222656 204.617188 144.128906 C 205.070312 145.039062 205.523438 145.949219 205.976562 146.40625 C 206.433594 146.859375 206.886719 146.859375 207.339844 146.632812 C 207.796875 146.40625 208.25 145.949219 208.476562 145.269531 C 208.707031 144.585938 208.707031 143.675781 209.160156 142.765625 C 209.613281 141.859375 210.523438 140.949219 210.976562 140.265625 C 211.429688 139.585938 211.429688 139.128906 211.660156 138.902344 C 211.886719 138.671875 212.34375 138.671875 212.566406 139.359375 C 212.796875 140.039062 212.796875 141.402344 212.796875 142.3125 C 212.796875 143.222656 212.796875 143.675781 213.023438 143.90625 C 213.25 144.128906 213.707031 144.128906 214.386719 143.675781 C 215.070312 143.222656 215.976562 142.3125 216.660156 141.402344 C 217.339844 140.492188 217.796875 139.582031 218.25 139.128906 C 218.707031 138.671875 219.160156 138.671875 219.613281 138.671875 C 220.070312 138.671875 220.523438 138.671875 220.976562 138.902344 C 221.429688 139.128906 221.886719 139.585938 222.34375 140.265625 C 222.796875 140.949219 223.25 141.859375 223.703125 142.539062 C 224.160156 143.222656 224.617188 143.675781 224.839844 143.449219 C 225.070312 143.222656 225.070312 142.3125 225.296875 141.628906 C 225.523438 140.949219 225.976562 140.492188 226.660156 140.265625 C 227.339844 140.039062 228.25 140.039062 228.933594 140.492188 C 229.613281 140.949219 230.070312 141.859375 230.296875 142.3125 C 230.523438 142.765625 230.523438 142.765625 230.75 142.539062 C 230.976562 142.3125 231.429688 141.855469 231.886719 141.402344 C 232.339844 140.949219 232.796875 140.492188 233.480469 140.492188 C 234.160156 140.492188 235.070312 140.949219 235.296875 141.628906 C 235.523438 142.3125 235.070312 143.222656 234.617188 143.90625 C 234.160156 144.585938 233.703125 145.039062 233.480469 145.722656 C 233.25 146.40625 233.25 147.3125 233.480469 148.222656 C 233.703125 149.132812 234.160156 150.042969 234.839844 150.726562 C 235.523438 151.40625 236.433594 151.863281 236.660156 152.542969 C 236.886719 153.226562 236.433594 154.136719 235.976562 154.816406 C 235.523438 155.5 235.070312 155.957031 234.160156 155.726562 C 233.25 155.5 231.886719 154.589844 230.980469 153.910156 C 230.070312 153.226562 229.613281 152.773438 229.386719 152.089844 C 229.160156 151.40625 229.160156 150.496094 228.933594 150.042969 C 228.707031 149.585938 228.25 149.585938 228.023438 150.042969 C 227.796875 150.496094 227.796875 151.40625 227.339844 151.863281 C 226.886719 152.316406 225.976562 152.316406 225.523438 152.089844 C 225.070312 151.863281 225.070312 151.40625 224.617188 150.953125 C 224.160156 150.496094 223.25 150.039062 222.570312 149.816406 C 221.886719 149.585938 221.429688 149.585938 221.207031 150.269531 C 220.976562 150.953125 220.976562 152.316406 220.75 153.226562 C 220.523438 154.136719 220.070312 154.589844 219.613281 154.589844 C 219.160156 154.589844 218.707031 154.136719 218.25 153.679688 C 217.796875 153.226562 217.339844 152.773438 216.886719 152.089844 C 216.433594 151.40625 215.976562 150.496094 215.296875 150.269531 C 214.617188 150.039062 213.703125 150.496094 213.25 150.953125 C 212.796875 151.40625 212.796875 151.863281 212.566406 152.316406 C 212.34375 152.773438 211.886719 153.226562 210.976562 153.226562 C 210.070312 153.226562 208.707031 152.773438 208.023438 152.773438 C 207.339844 152.773438 207.339844 153.226562 207.113281 153.910156 C 206.886719 154.589844 206.433594 155.5 205.753906 156.179688 C 205.070312 156.863281 204.160156 157.320312 203.023438 157.542969 C 201.886719 157.773438 200.523438 157.773438 199.390625 158 C 198.253906 158.226562 197.339844 158.683594 196.886719 159.59375 C 196.433594 160.5 196.433594 161.863281 196.886719 162.546875 C 197.339844 163.230469 198.253906 163.230469 199.160156 162.777344 C 200.070312 162.320312 200.976562 161.410156 201.660156 160.957031 C 202.34375 160.5 202.796875 160.5 203.023438 160.277344 C 203.25 160.046875 203.25 159.589844 203.933594 159.363281 C 204.617188 159.136719 205.976562 159.136719 206.886719 159.363281 C 207.796875 159.589844 208.25 160.046875 208.707031 159.820312 C 209.160156 159.589844 209.613281 158.683594 209.84375 158.230469 C 210.070312 157.773438 210.070312 157.773438 210.523438 157.542969 C 210.976562 157.320312 211.886719 156.863281 212.796875 157.546875 C 213.703125 158.230469 214.617188 160.046875 215.296875 160.957031 C 215.976562 161.863281 216.433594 161.863281 216.886719 161.410156 C 217.339844 160.957031 217.796875 160.046875 218.476562 159.589844 C 219.160156 159.136719 220.070312 159.136719 220.75 159.820312 C 221.429688 160.5 221.886719 161.863281 222.34375 163.003906 C 222.796875 164.140625 223.25 165.046875 224.160156 165.503906 C 225.070312 165.957031 226.433594 165.957031 227.570312 165.730469 C 228.707031 165.503906 229.613281 165.046875 230.75 164.824219 C 231.886719 164.59375 233.25 164.59375 233.707031 165.277344 C 234.160156 165.960938 233.703125 167.324219 233.023438 168.003906 C 232.34375 168.6875 231.429688 168.6875 231.207031 169.144531 C 230.976562 169.597656 231.429688 170.507812 232.117188 170.960938 C 232.796875 171.414062 233.703125 171.414062 234.617188 171.644531 C 235.523438 171.871094 236.433594 172.328125 236.886719 172.78125 C 237.339844 173.234375 237.339844 173.691406 236.886719 174.371094 C 236.433594 175.054688 235.523438 175.960938 235.523438 176.875 C 235.523438 177.78125 236.433594 178.691406 237.113281 179.375 C 237.792969 180.054688 238.25 180.511719 238.476562 181.195312 C 238.707031 181.875 238.707031 182.785156 238.476562 183.695312 C 238.25 184.601562 237.792969 185.511719 237.113281 185.742188 C 236.433594 185.964844 235.523438 185.511719 234.839844 184.832031 C 234.160156 184.148438 233.703125 183.238281 233.25 182.332031 C 232.796875 181.417969 232.339844 180.507812 231.660156 180.054688 C 230.976562 179.601562 230.070312 179.601562 229.613281 178.917969 C 229.160156 178.238281 229.160156 176.875 228.707031 175.738281 C 228.25 174.597656 227.339844 173.691406 226.433594 173.234375 C 225.523438 172.78125 224.617188 172.78125 223.707031 172.328125 C 222.796875 171.871094 221.886719 170.960938 221.207031 170.507812 C 220.523438 170.050781 220.070312 170.050781 219.386719 170.277344 C 218.707031 170.503906 217.796875 170.960938 216.886719 171.1875 C 215.976562 171.414062 215.070312 171.414062 214.617188 170.734375 C 214.160156 170.050781 214.160156 168.6875 213.933594 168.003906 C 213.707031 167.324219 213.25 167.324219 212.796875 167.777344 C 212.34375 168.230469 211.886719 169.144531 210.976562 169.824219 C 210.070312 170.503906 208.707031 170.960938 207.796875 170.507812 C 206.886719 170.050781 206.433594 168.6875 205.753906 167.78125 C 205.070312 166.867188 204.160156 166.410156 203.707031 166.640625 C 203.25 166.867188 203.25 167.777344 202.570312 168.234375 C 201.886719 168.6875 200.523438 168.6875 199.613281 168.234375 C 198.707031 167.777344 198.253906 166.867188 197.570312 166.640625 C 196.886719 166.410156 195.980469 166.867188 195.296875 167.324219 C 194.613281 167.777344 194.160156 168.234375 194.160156 168.914062 C 194.160156 169.597656 194.613281 170.507812 195.296875 171.1875 C 195.980469 171.871094 196.886719 172.328125 197.796875 172.328125 C 198.707031 172.328125 199.613281 171.871094 200.75 171.414062 C 201.886719 170.960938 203.25 170.503906 204.160156 170.734375 C 205.070312 170.960938 205.523438 171.871094 206.207031 172.328125 C 206.886719 172.78125 207.796875 172.78125 208.476562 172.78125 C 209.160156 172.78125 209.613281 172.78125 210.070312 173.234375 C 210.523438 173.691406 210.976562 174.597656 211.207031 174.597656 C 211.429688 174.597656 211.429688 173.691406 211.886719 173.234375 C 212.34375 172.78125 213.25 172.78125 214.386719 173.007812 C 215.523438 173.234375 216.886719 173.691406 217.570312 174.597656 C 218.25 175.507812 218.25 176.871094 218.476562 177.328125 C 218.707031 177.78125 219.160156 177.328125 219.386719 176.875 C 219.613281 176.417969 219.613281 175.960938 220.296875 175.734375 C 220.976562 175.507812 222.339844 175.507812 222.796875 176.191406 C 223.25 176.875 222.796875 178.238281 223.023438 179.148438 C 223.25 180.054688 224.160156 180.511719 225.070312 180.738281 C 225.976562 180.964844 226.886719 180.964844 227.570312 180.964844 C 228.25 180.964844 228.707031 180.964844 228.933594 181.417969 C 229.160156 181.875 229.160156 182.785156 228.933594 183.921875 C 228.707031 185.058594 228.25 186.421875 228.023438 187.558594 C 227.796875 188.695312 227.796875 189.605469 227.570312 190.285156 C 227.339844 190.96875 226.886719 191.425781 226.433594 191.425781 C 225.976562 191.425781 225.523438 190.96875 225.070312 190.285156 C 224.617188 189.605469 224.160156 188.695312 223.476562 188.46875 C 222.796875 188.242188 221.886719 188.699219 220.976562 188.699219 C 220.070312 188.699219 219.160156 188.242188 218.707031 187.558594 C 218.25 186.878906 218.25 185.964844 217.796875 185.058594 C 217.339844 184.148438 216.433594 183.238281 215.976562 183.238281 C 215.523438 183.238281 215.523438 184.148438 214.839844 184.601562 C 214.160156 185.058594 212.796875 185.058594 211.886719 184.601562 C 210.976562 184.148438 210.523438 183.238281 209.386719 182.558594 C 208.25 181.875 206.433594 181.417969 205.070312 181.195312 C 203.707031 180.964844 202.796875 180.964844 202.113281 180.964844 C 201.433594 180.964844 200.976562 180.964844 200.523438 180.738281 C 200.070312 180.511719 199.613281 180.054688 199.160156 179.148438 C 198.707031 178.238281 198.253906 176.875 197.570312 175.964844 C 196.886719 175.054688 195.980469 174.597656 195.070312 174.371094 C 194.160156 174.144531 193.25 174.144531 192.796875 175.054688 C 192.34375 175.960938 192.34375 177.78125 192.570312 179.148438 C 192.796875 180.507812 193.25 181.417969 194.390625 182.332031 C 195.523438 183.238281 197.339844 184.148438 198.933594 184.378906 C 200.523438 184.601562 201.886719 184.148438 203.023438 183.921875 C 204.160156 183.695312 205.070312 183.695312 205.976562 183.921875 C 206.886719 184.148438 207.796875 184.601562 208.707031 185.058594 C 209.613281 185.511719 210.523438 185.964844 211.433594 186.195312 C 212.34375 186.421875 213.25 186.421875 213.707031 186.421875 C 214.160156 186.421875 214.160156 186.421875 214.617188 186.878906 C 215.070312 187.332031 215.976562 188.242188 216.660156 189.152344 C 217.339844 190.0625 217.796875 190.96875 218.707031 191.199219 C 219.613281 191.425781 220.976562 190.96875 221.886719 190.742188 C 222.796875 190.515625 223.25 190.515625 223.933594 191.425781 C 224.617188 192.332031 225.523438 194.152344 225.976562 195.289062 C 226.433594 196.425781 226.433594 196.882812 227.113281 197.109375 C 227.796875 197.335938 229.160156 197.335938 229.84375 197.789062 C 230.523438 198.246094 230.523438 199.15625 230.523438 199.835938 C 230.523438 200.519531 230.523438 200.972656 231.207031 201.886719 C 231.886719 202.792969 233.25 204.15625 234.386719 205.523438 C 235.523438 206.886719 236.433594 208.25 235.976562 209.617188 C 235.523438 210.980469 233.703125 212.34375 232.796875 213.253906 C 231.886719 214.160156 231.886719 214.617188 231.429688 214.617188 C 230.976562 214.617188 230.070312 214.160156 229.386719 213.707031 C 228.707031 213.253906 228.25 212.796875 228.023438 212.796875 C 227.796875 212.796875 227.796875 213.253906 227.570312 213.253906 C 227.339844 213.253906 226.886719 212.796875 226.207031 211.886719 C 225.523438 210.980469 224.617188 209.617188 223.707031 208.933594 C 222.796875 208.25 221.886719 208.25 221.429688 208.023438 C 220.976562 207.796875 220.976562 207.339844 220.75 206.433594 C 220.523438 205.519531 220.070312 204.15625 219.613281 203.929688 C 219.160156 203.703125 218.707031 204.613281 217.796875 205.070312 C 216.886719 205.523438 215.523438 205.523438 214.84375 205.070312 C 214.160156 204.613281 214.160156 203.703125 214.160156 203.019531 C 214.160156 202.335938 214.160156 201.882812 214.386719 201.203125 C 214.617188 200.519531 215.070312 199.609375 215.070312 198.929688 C 215.070312 198.246094 214.617188 197.789062 213.933594 197.789062 C 213.25 197.789062 212.34375 198.246094 211.660156 198.699219 C 210.976562 199.152344 210.523438 199.609375 210.070312 199.382812 C 209.613281 199.15625 209.160156 198.246094 208.707031 197.109375 C 208.25 195.972656 207.796875 194.609375 207.339844 193.925781 C 206.886719 193.246094 206.433594 193.246094 205.753906 193.699219 C 205.070312 194.152344 204.160156 195.0625 203.480469 195.515625 C 202.796875 195.972656 202.34375 195.972656 201.886719 195.515625 C 201.433594 195.0625 200.976562 194.152344 200.296875 193.246094 C 199.613281 192.332031 198.707031 191.425781 197.796875 190.285156 C 196.886719 189.148438 195.980469 187.785156 195.296875 187.105469 C 194.613281 186.421875 194.160156 186.421875 193.933594 187.332031 C 193.707031 188.242188 193.707031 190.0625 193.933594 193.015625 C 194.160156 195.972656 194.613281 200.066406 195.066406 202.566406 C 195.523438 205.066406 195.980469 205.976562 196.660156 207.339844 C 197.339844 208.703125 198.253906 210.523438 199.390625 212.570312 C 200.523438 214.617188 201.886719 216.890625 204.160156 220.074219 C 206.433594 223.253906 209.613281 227.351562 211.886719 229.851562 C 214.160156 232.351562 215.523438 233.257812 216.886719 234.398438 C 218.25 235.535156 219.613281 236.898438 220.523438 237.808594 C 221.429688 238.71875 221.886719 239.171875 222.117188 239.855469 C 222.34375 240.539062 222.34375 241.445312 222.34375 242.355469 C 222.34375 243.265625 222.34375 244.175781 221.660156 244.628906 C 220.976562 245.085938 219.613281 245.085938 218.707031 244.859375 C 217.796875 244.628906 217.339844 244.171875 216.886719 243.71875 C 216.433594 243.265625 215.976562 242.808594 215.296875 241.902344 C 214.617188 240.992188 213.703125 239.628906 213.25 239.398438 C 212.796875 239.171875 212.796875 240.082031 212.796875 240.761719 C 212.796875 241.445312 212.796875 241.902344 212.34375 242.582031 C 211.886719 243.265625 210.976562 244.175781 210.296875 244.628906 C 209.613281 245.085938 209.160156 245.085938 208.707031 244.628906 C 208.25 244.175781 207.796875 243.265625 206.886719 242.128906 C 205.976562 240.992188 204.617188 239.628906 203.933594 238.945312 C 203.25 238.261719 203.25 238.261719 203.25 238.71875 C 203.25 239.171875 203.25 240.082031 203.25 240.992188 C 203.25 241.902344 203.25 242.808594 203.25 243.492188 C 203.25 244.171875 203.25 244.628906 202.796875 244.859375 C 202.34375 245.085938 201.433594 245.085938 200.75 245.085938 C 200.070312 245.085938 199.613281 245.085938 199.386719 244.628906 C 199.160156 244.175781 199.160156 243.265625 198.476562 243.039062 C 197.796875 242.808594 196.433594 243.265625 195.753906 243.492188 C 195.066406 243.71875 195.066406 243.71875 194.84375 243.492188 C 194.613281 243.265625 194.160156 242.808594 193.707031 242.808594 C 193.25 242.808594 192.796875 243.265625 192.570312 243.71875 C 192.34375 244.171875 192.34375 244.628906 191.886719 244.628906 C 191.433594 244.628906 190.523438 244.171875 190.070312 243.71875 C 189.613281 243.265625 189.613281 242.808594 189.613281 242.128906 C 189.613281 241.445312 189.613281 240.539062 189.613281 239.855469 C 189.613281 239.171875 189.613281 238.71875 189.613281 238.492188 C 189.613281 238.261719 189.613281 238.261719 189.390625 238.492188 C 189.160156 238.71875 188.707031 239.171875 188.253906 240.082031 C 187.796875 240.992188 187.339844 242.355469 186.886719 243.265625 C 186.433594 244.171875 185.980469 244.628906 185.296875 244.859375 C 184.613281 245.085938 183.707031 245.085938 183.023438 244.859375 C 182.34375 244.628906 181.886719 244.171875 181.660156 243.71875 C 181.433594 243.265625 181.433594 242.808594 181.886719 242.128906 C 182.34375 241.445312 183.25 240.539062 183.933594 239.398438 C 184.613281 238.261719 185.070312 236.898438 185.523438 235.761719 C 185.980469 234.625 186.433594 233.714844 186.660156 232.578125 C 186.886719 231.441406 186.886719 230.078125 187.113281 228.941406 C 187.339844 227.804688 187.796875 226.894531 188.253906 225.757812 C 188.707031 224.621094 189.160156 223.257812 189.613281 222.578125 C 190.070312 221.890625 190.523438 221.890625 190.75 220.757812 C 190.976562 219.621094 190.976562 217.34375 190.976562 215.070312 C 190.976562 212.796875 190.976562 210.523438 190.75 208.25 C 190.523438 205.976562 190.070312 203.703125 189.613281 200.75 C 189.160156 197.789062 188.707031 194.152344 188.476562 190.742188 C 188.253906 187.332031 188.253906 184.148438 188.023438 182.558594 C 187.796875 180.964844 187.339844 180.964844 186.886719 181.417969 C 186.433594 181.875 185.980469 182.785156 185.296875 183.464844 C 184.613281 184.148438 183.707031 184.601562 182.796875 184.601562 C 181.886719 184.601562 180.976562 184.148438 180.523438 183.464844 C 180.070312 182.785156 180.070312 181.875 180.070312 180.964844 C 180.070312 180.054688 180.070312 179.148438 179.613281 178.691406 C 179.160156 178.238281 178.253906 178.238281 177.570312 178.691406 C 176.890625 179.148438 176.433594 180.054688 176.203125 180.964844 C 175.980469 181.875 175.980469 182.785156 175.980469 183.464844 C 175.980469 184.148438 175.980469 184.601562 176.433594 185.285156 C 176.886719 185.964844 177.796875 186.878906 178.476562 187.785156 C 179.160156 188.695312 179.613281 189.605469 179.613281 190.515625 C 179.613281 191.425781 179.160156 192.332031 178.253906 192.789062 C 177.339844 193.246094 175.980469 193.246094 174.84375 193.246094 C 173.707031 193.246094 172.796875 193.246094 172.34375 193.699219 C 171.890625 194.152344 171.890625 195.0625 171.660156 196.203125 C 171.433594 197.335938 170.976562 198.699219 170.523438 199.835938 C 170.070312 200.972656 169.617188 201.882812 168.933594 202.335938 C 168.25 202.792969 167.34375 202.792969 166.660156 202.792969 C 165.980469 202.792969 165.523438 202.792969 165.296875 203.25 C 165.070312 203.703125 165.070312 204.613281 165.070312 205.292969 C 165.070312 205.976562 165.070312 206.433594 164.84375 207.113281 C 164.617188 207.796875 164.160156 208.703125 163.707031 209.386719 C 163.25 210.070312 162.796875 210.523438 162.34375 211.207031 C 161.890625 211.886719 161.433594 212.796875 161.207031 213.707031 C 160.980469 214.617188 160.980469 215.527344 160.980469 216.207031 C 160.980469 216.890625 160.980469 217.34375 160.296875 217.574219 C 159.617188 217.800781 158.253906 217.800781 157.574219 217.34375 C 156.890625 216.890625 156.890625 215.980469 156.660156 215.074219 C 156.4375 214.160156 155.980469 213.25 155.523438 212.570312 C 155.070312 211.886719 154.613281 211.433594 153.707031 211.203125 C 152.796875 210.980469 151.433594 210.980469 150.527344 210.75 C 149.617188 210.523438 149.160156 210.070312 148.933594 209.617188 C 148.707031 209.160156 148.707031 208.703125 148.933594 208.25 C 149.160156 207.796875 149.617188 207.339844 150.070312 206.882812 C 150.523438 206.433594 150.980469 205.976562 151.660156 205.75 C 152.34375 205.523438 153.25 205.523438 153.707031 205.070312 C 154.160156 204.613281 154.160156 203.703125 154.160156 203.25 C 154.160156 202.792969 154.160156 202.792969 154.160156 202.566406 C 154.160156 202.335938 154.160156 201.882812 154.84375 201.429688 C 155.523438 200.972656 156.886719 200.519531 157.570312 200.292969 C 158.25 200.066406 158.25 200.066406 158.25 199.609375 C 158.25 199.15625 158.25 198.246094 158.25 197.335938 C 158.25 196.425781 158.25 195.515625 158.480469 195.0625 C 158.703125 194.609375 159.160156 194.609375 160.070312 194.609375 C 160.980469 194.609375 162.34375 194.609375 163.027344 194.378906 C 163.707031 194.152344 163.707031 193.699219 163.707031 193.015625 C 163.707031 192.332031 163.707031 191.425781 163.707031 190.742188 C 163.707031 190.0625 163.707031 189.605469 164.160156 189.152344 C 164.613281 188.699219 165.523438 188.242188 166.4375 188.011719 C 167.34375 187.785156 168.25 187.785156 168.933594 187.785156 C 169.617188 187.785156 170.070312 187.785156 170.296875 187.558594 C 170.523438 187.332031 170.523438 186.875 170.296875 185.964844 C 170.070312 185.058594 169.617188 183.695312 169.84375 182.558594 C 170.070312 181.417969 170.980469 180.507812 171.890625 179.828125 C 172.796875 179.148438 173.707031 178.691406 173.707031 178.238281 C 173.707031 177.78125 172.796875 177.328125 172.34375 177.097656 C 171.890625 176.875 171.890625 176.875 171.660156 176.875 C 171.433594 176.875 170.976562 176.875 170.296875 177.554688 C 169.617188 178.238281 168.703125 179.601562 167.570312 180.285156 C 166.433594 180.964844 165.070312 180.964844 164.164062 181.417969 C 163.25 181.875 162.796875 182.785156 162.570312 183.464844 C 162.34375 184.148438 162.34375 184.601562 161.660156 184.832031 C 160.976562 185.058594 159.617188 185.058594 158.933594 185.511719 C 158.25 185.964844 158.25 186.878906 157.570312 187.558594 C 156.886719 188.242188 155.523438 188.699219 154.617188 189.378906 C 153.707031 190.0625 153.25 190.96875 153.027344 191.652344 C 152.796875 192.332031 152.796875 192.789062 152.570312 193.015625 C 152.34375 193.246094 151.890625 193.246094 151.433594 193.015625 C 150.980469 192.789062 150.523438 192.332031 149.84375 192.332031 C 149.160156 192.332031 148.25 192.789062 147.570312 193.015625 C 146.886719 193.246094 146.433594 193.246094 145.75 192.789062 C 145.070312 192.332031 144.160156 191.425781 143.707031 190.515625 C 143.253906 189.605469 143.253906 188.695312 143.707031 187.558594 C 144.160156 186.421875 145.070312 185.058594 145.75 183.921875 C 146.433594 182.785156 146.886719 181.875 147.796875 181.195312 C 148.707031 180.511719 150.070312 180.054688 150.753906 179.828125 C 151.433594 179.601562 151.433594 179.601562 151.433594 179.148438 C 151.433594 178.691406 151.433594 177.78125 151.433594 177.097656 C 151.433594 176.417969 151.433594 175.960938 151.890625 175.734375 C 152.34375 175.507812 153.25 175.507812 154.164062 175.507812 C 155.070312 175.507812 155.980469 175.507812 156.660156 175.054688 C 157.34375 174.597656 157.796875 173.691406 158.023438 173.007812 C 158.25 172.328125 158.25 171.871094 158.480469 171.414062 C 158.703125 170.960938 159.160156 170.503906 159.84375 170.734375 C 160.523438 170.960938 161.433594 171.871094 162.113281 172.550781 C 162.796875 173.234375 163.25 173.691406 163.707031 173.691406 C 164.160156 173.691406 164.617188 173.234375 164.84375 172.550781 C 165.070312 171.871094 165.070312 170.960938 165.296875 170.507812 C 165.523438 170.050781 165.980469 170.050781 166.207031 170.050781 C 166.433594 170.050781 166.433594 170.050781 166.433594 170.734375 C 166.433594 171.414062 166.433594 172.777344 166.890625 173.460938 C 167.34375 174.144531 168.25 174.144531 168.707031 173.460938 C 169.160156 172.777344 169.160156 171.414062 169.160156 170.734375 C 169.160156 170.050781 169.160156 170.050781 169.390625 170.050781 C 169.617188 170.050781 170.070312 170.050781 170.523438 170.507812 C 170.976562 170.960938 171.433594 171.871094 172.34375 172.328125 C 173.25 172.78125 174.613281 172.78125 175.523438 172.328125 C 176.433594 171.871094 176.890625 170.960938 177.34375 170.28125 C 177.796875 169.597656 178.253906 169.144531 178.253906 168.6875 C 178.253906 168.234375 177.796875 167.777344 177.34375 167.09375 C 176.890625 166.414062 176.433594 165.503906 175.75 165.277344 C 175.070312 165.046875 174.160156 165.503906 173.027344 165.957031 C 171.890625 166.410156 170.527344 166.867188 169.390625 167.09375 C 168.25 167.324219 167.34375 167.324219 166.660156 167.09375 C 165.980469 166.867188 165.523438 166.410156 164.84375 166.1875 C 164.160156 165.957031 163.25 165.957031 162.796875 166.1875 C 162.34375 166.410156 162.34375 166.867188 161.890625 167.09375 C 161.433594 167.324219 160.523438 167.324219 159.617188 166.867188 C 158.707031 166.414062 157.796875 165.503906 156.890625 165.046875 C 155.980469 164.59375 155.070312 164.59375 154.617188 165.046875 C 154.160156 165.503906 154.160156 166.414062 154.160156 167.09375 C 154.160156 167.777344 154.160156 168.234375 153.933594 168.460938 C 153.707031 168.6875 153.25 168.6875 152.796875 168.234375 C 152.34375 167.777344 151.890625 166.867188 151.207031 166.414062 C 150.527344 165.957031 149.617188 165.957031 149.160156 166.414062 C 148.707031 166.867188 148.707031 167.777344 148.253906 168.234375 C 147.796875 168.6875 146.886719 168.6875 146.207031 168.234375 C 145.527344 167.777344 145.070312 166.867188 144.617188 166.1875 C 144.164062 165.503906 143.707031 165.046875 143.253906 165.277344 C 142.796875 165.503906 142.34375 166.414062 141.433594 167.324219 C 140.523438 168.230469 139.160156 169.144531 138.027344 168.914062 C 136.886719 168.6875 135.980469 167.324219 136.207031 166.1875 C 136.433594 165.046875 137.796875 164.140625 138.707031 163.003906 C 139.617188 161.863281 140.074219 160.5 140.527344 159.136719 C 140.980469 157.773438 141.433594 156.410156 141.433594 155.5 C 141.433594 154.589844 140.980469 154.136719 141.207031 153.90625 C 141.433594 153.679688 142.34375 153.679688 143.480469 153.90625 C 144.617188 154.136719 145.980469 154.589844 146.660156 155.042969 C 147.34375 155.5 147.34375 155.957031 147.570312 155.957031 C 147.796875 155.957031 148.253906 155.5 148.480469 154.589844 C 148.707031 153.679688 148.707031 152.316406 149.160156 151.632812 C 149.617188 150.953125 150.527344 150.953125 151.207031 150.953125 C 151.890625 150.953125 152.34375 150.953125 152.570312 151.40625 C 152.796875 151.859375 152.796875 152.773438 153.027344 153.679688 C 153.25 154.589844 153.707031 155.5 154.160156 155.726562 C 154.613281 155.957031 155.070312 155.5 155.296875 155.042969 C 155.523438 154.589844 155.523438 154.136719 156.207031 153.90625 C 156.890625 153.679688 158.25 153.679688 158.933594 154.136719 C 159.617188 154.589844 159.617188 155.5 159.84375 155.957031 C 160.070312 156.410156 160.527344 156.410156 160.753906 156.410156 C 160.980469 156.410156 160.980469 156.410156 161.207031 155.957031 C 161.433594 155.5 161.890625 154.589844 162.34375 154.136719 C 162.796875 153.679688 163.25 153.679688 163.707031 154.136719 C 164.160156 154.589844 164.617188 155.5 165.070312 156.410156 C 165.523438 157.320312 165.980469 158.230469 166.433594 158.683594 C 166.886719 159.136719 167.34375 159.136719 167.570312 158.683594 C 167.796875 158.230469 167.796875 157.320312 168.023438 156.863281 C 168.25 156.410156 168.707031 156.410156 169.390625 156.863281 C 170.070312 157.320312 170.980469 158.230469 171.207031 158.910156 C 171.433594 159.589844 170.976562 160.046875 171.207031 160.046875 C 171.433594 160.046875 172.34375 159.589844 173.480469 160.046875 C 174.617188 160.5 175.980469 161.863281 177.117188 162.777344 C 178.253906 163.683594 179.160156 164.140625 179.390625 163.683594 C 179.613281 163.230469 179.160156 161.867188 178.253906 160.730469 C 177.339844 159.589844 175.980469 158.683594 173.707031 157.089844 C 171.433594 155.5 168.25 153.226562 166.4375 151.632812 C 164.617188 150.042969 164.160156 149.132812 163.707031 148.679688 C 163.25 148.222656 162.796875 148.222656 162.113281 148.453125 C 161.433594 148.679688 160.523438 149.132812 160.070312 149.132812 C 159.617188 149.132812 159.617188 148.679688 159.390625 147.769531 C 159.160156 146.859375 158.703125 145.496094 158.25 144.8125 C 157.796875 144.128906 157.34375 144.128906 156.660156 144.585938 C 155.980469 145.039062 155.070312 145.949219 154.164062 146.175781 C 153.25 146.40625 152.34375 145.949219 151.890625 145.722656 C 151.433594 145.492188 151.433594 145.492188 151.433594 144.8125 C 151.433594 144.128906 151.433594 142.765625 150.296875 142.3125 Z M 193.707031 227.351562 C 194.613281 227.351562 195.523438 227.351562 196.433594 227.351562 C 196.433594 228.714844 196.433594 230.078125 196.433594 231.441406 C 195.980469 231.894531 195.523438 232.351562 195.066406 232.804688 C 195.066406 233.714844 195.066406 234.625 195.066406 235.535156 C 194.613281 236.445312 194.160156 237.355469 193.707031 238.261719 C 193.25 239.171875 192.796875 240.082031 192.34375 240.992188 C 192.34375 239.625 192.34375 238.261719 192.34375 236.898438 C 192.34375 235.535156 192.34375 234.171875 192.34375 232.804688 C 192.796875 232.351562 193.25 231.894531 193.707031 231.441406 C 193.707031 230.078125 193.707031 228.714844 193.707031 227.351562 Z M 204.617188 225.988281 C 203.25 225.988281 201.886719 225.988281 200.523438 225.988281 C 200.523438 226.894531 200.523438 227.804688 200.523438 228.714844 C 202.796875 231.441406 205.070312 234.171875 207.339844 236.898438 C 207.796875 236.445312 208.25 235.988281 208.707031 235.535156 C 207.796875 234.167969 206.886719 232.804688 205.976562 231.441406 C 205.976562 230.078125 205.976562 228.714844 205.976562 227.351562 C 205.523438 226.894531 205.070312 226.441406 204.617188 225.988281 Z M 184.84375 165.957031 C 187.476562 165.957031 189.613281 168.097656 189.613281 170.734375 C 189.613281 173.367188 187.476562 175.507812 184.84375 175.507812 C 182.207031 175.507812 180.070312 173.367188 180.070312 170.734375 C 180.070312 168.097656 182.207031 165.957031 184.84375 165.957031 Z M 184.84375 165.957031 " fill-opacity="1" fill-rule="evenodd"/></g></svg>