<?xml version="1.0" encoding="UTF-8" standalone="no"?>
<svg
   width="200"
   zoomAndPan="magnify"
   viewBox="0 0 150 150"
   height="200"
   preserveAspectRatio="xMidYMid"
   version="1.0"
   id="svg4"
   sodipodi:docname="bese-saka.svg"
   inkscape:version="1.3.2 (091e20e, 2023-11-25, custom)"
   xmlns:inkscape="http://www.inkscape.org/namespaces/inkscape"
   xmlns:sodipodi="http://sodipodi.sourceforge.net/DTD/sodipodi-0.dtd"
   xmlns="http://www.w3.org/2000/svg"
   xmlns:svg="http://www.w3.org/2000/svg">
  <sodipodi:namedview
     id="namedview4"
     pagecolor="#ffffff"
     bordercolor="#000000"
     borderopacity="0.25"
     inkscape:showpageshadow="2"
     inkscape:pageopacity="0.0"
     inkscape:pagecheckerboard="0"
     inkscape:deskcolor="#d1d1d1"
     inkscape:zoom="1.532"
     inkscape:cx="99.869452"
     inkscape:cy="99.869452"
     inkscape:window-width="1920"
     inkscape:window-height="991"
     inkscape:window-x="-9"
     inkscape:window-y="-9"
     inkscape:window-maximized="1"
     inkscape:current-layer="svg4" />
  <defs
     id="defs2">
    <clipPath
       id="2fb54c7aa9">
      <path
         d="m 112.5,112.5 h 150 v 150 h -150 z m 0,0"
         clip-rule="nonzero"
         id="path1" />
    </clipPath>
    <clipPath
       id="8fa01c8473">
      <path
         d="m 140.25,139.89453 h 94.5 v 95.25 h -94.5 z m 0,0"
         clip-rule="nonzero"
         id="path2" />
    </clipPath>
  </defs>
  <g
     clip-path="url(#2fb54c7aa9)"
     id="g3"
     transform="translate(-112.5,-112.5)">
    <path
       fill="#65934b"
       d="m 262.5,187.5 c 0,1.22656 -0.0312,2.45312 -0.0898,3.67969 -0.0625,1.22656 -0.15235,2.44922 -0.26954,3.67187 -0.12109,1.22266 -0.27343,2.4375 -0.45312,3.65235 -0.17969,1.21484 -0.39063,2.42578 -0.62891,3.6289 -0.23828,1.20313 -0.50781,2.39844 -0.80468,3.58985 -0.30079,1.1914 -0.62891,2.375 -0.98438,3.54687 -0.35547,1.17578 -0.74219,2.33984 -1.15234,3.49609 -0.41407,1.15625 -0.85547,2.30079 -1.32813,3.4375 -0.46875,1.13282 -0.96484,2.25391 -1.48828,3.36329 -0.52734,1.10937 -1.07812,2.20703 -1.65625,3.28906 -0.57812,1.08203 -1.18359,2.14844 -1.81641,3.20312 -0.6289,1.05078 -1.28515,2.08985 -1.96875,3.10938 -0.67968,1.01953 -1.38671,2.02344 -2.11718,3.00781 -0.73438,0.98828 -1.48828,1.95313 -2.26563,2.90234 -0.78125,0.94922 -1.58203,1.87891 -2.40625,2.78907 -0.82422,0.91015 -1.66797,1.79687 -2.53906,2.66406 -0.86719,0.87109 -1.75391,1.71484 -2.66406,2.53906 -0.91016,0.82422 -1.83985,1.625 -2.78907,2.40625 -0.94921,0.77735 -1.91406,1.53125 -2.90234,2.26563 -0.98437,0.73047 -1.98828,1.4375 -3.00781,2.11718 -1.01953,0.6836 -2.0586,1.33985 -3.10938,1.96875 -1.05468,0.63282 -2.12109,1.23829 -3.20312,1.81641 -1.08203,0.57813 -2.17969,1.12891 -3.28906,1.65625 -1.10938,0.52344 -2.23047,1.01953 -3.36329,1.48828 -1.13671,0.47266 -2.28125,0.91406 -3.4375,1.32813 -1.15625,0.41015 -2.32031,0.79687 -3.49609,1.15234 -1.17187,0.35547 -2.35547,0.68359 -3.54687,0.98438 -1.19141,0.29687 -2.38672,0.5664 -3.58985,0.80468 -1.20312,0.23828 -2.41406,0.44922 -3.6289,0.62891 -1.21485,0.17969 -2.42969,0.33203 -3.65235,0.45312 -1.22265,0.11719 -2.44531,0.20704 -3.67187,0.26954 -1.22657,0.0586 -2.45313,0.0898 -3.67969,0.0898 -1.22656,0 -2.45313,-0.0312 -3.67969,-0.0898 -1.22656,-0.0625 -2.44922,-0.15235 -3.67187,-0.26954 -1.22266,-0.12109 -2.4375,-0.27343 -3.65235,-0.45312 -1.21484,-0.17969 -2.42578,-0.39063 -3.6289,-0.62891 -1.20313,-0.23828 -2.39844,-0.50781 -3.58985,-0.80468 -1.1914,-0.30079 -2.375,-0.62891 -3.54687,-0.98438 -1.17578,-0.35547 -2.33985,-0.74219 -3.4961,-1.15234 -1.15625,-0.41407 -2.30078,-0.85547 -3.4375,-1.32813 -1.13281,-0.46875 -2.2539,-0.96484 -3.36328,-1.48828 -1.10937,-0.52734 -2.20703,-1.07812 -3.28906,-1.65625 -1.08203,-0.57812 -2.14844,-1.18359 -3.20312,-1.81641 -1.05079,-0.6289 -2.08985,-1.28515 -3.10938,-1.96875 -1.01953,-0.67968 -2.02344,-1.38671 -3.00781,-2.11718 -0.98828,-0.73438 -1.95313,-1.48828 -2.90235,-2.26563 -0.94921,-0.78125 -1.8789,-1.58203 -2.78906,-2.40625 -0.91015,-0.82422 -1.79687,-1.66797 -2.66406,-2.53906 -0.87109,-0.86719 -1.71484,-1.75391 -2.53906,-2.66406 -0.82422,-0.91016 -1.625,-1.83985 -2.40625,-2.78907 -0.77735,-0.94921 -1.53125,-1.91406 -2.26563,-2.90234 -0.73047,-0.98437 -1.4375,-1.98828 -2.11718,-3.00781 -0.6836,-1.01953 -1.33985,-2.0586 -1.96875,-3.10938 -0.63282,-1.05468 -1.23829,-2.12109 -1.81641,-3.20312 -0.57813,-1.08203 -1.12891,-2.17969 -1.65625,-3.28906 -0.52344,-1.10938 -1.01953,-2.23047 -1.48828,-3.36329 -0.47266,-1.13671 -0.91406,-2.28125 -1.32813,-3.4375 -0.41406,-1.15625 -0.79687,-2.32031 -1.15234,-3.49609 -0.35547,-1.17187 -0.68359,-2.35547 -0.98438,-3.54687 -0.29687,-1.19141 -0.5664,-2.38672 -0.80468,-3.58985 -0.23828,-1.20312 -0.44922,-2.41406 -0.62891,-3.6289 -0.17969,-1.21485 -0.33203,-2.42969 -0.45312,-3.65235 -0.11719,-1.22265 -0.20704,-2.44531 -0.26954,-3.67187 -0.0586,-1.22657 -0.0898,-2.45313 -0.0898,-3.67969 0,-1.22656 0.0312,-2.45313 0.0898,-3.67969 0.0625,-1.22656 0.15235,-2.44922 0.26954,-3.67187 0.12109,-1.22266 0.27343,-2.4375 0.45312,-3.65235 0.17969,-1.21484 0.39063,-2.42578 0.62891,-3.6289 0.23828,-1.20313 0.50781,-2.39844 0.80468,-3.58985 0.30079,-1.1914 0.62891,-2.375 0.98438,-3.54687 0.35547,-1.17578 0.73828,-2.33985 1.15234,-3.4961 0.41407,-1.15625 0.85547,-2.30078 1.32813,-3.4375 0.46875,-1.13281 0.96484,-2.2539 1.48828,-3.36328 0.52734,-1.10937 1.07812,-2.20703 1.65625,-3.28906 0.57812,-1.08203 1.18359,-2.14844 1.81641,-3.20312 0.6289,-1.05079 1.28515,-2.08985 1.96875,-3.10938 0.67968,-1.01953 1.38671,-2.02344 2.11718,-3.00781 0.73438,-0.98828 1.48828,-1.95313 2.26563,-2.90235 0.78125,-0.94921 1.58203,-1.8789 2.40625,-2.78906 0.82422,-0.91015 1.66797,-1.79687 2.53906,-2.66406 0.86719,-0.87109 1.75391,-1.71484 2.66406,-2.53906 0.91016,-0.82422 1.83985,-1.625 2.78906,-2.40625 0.94922,-0.77735 1.91407,-1.53125 2.90235,-2.26563 0.98437,-0.73047 1.98828,-1.4375 3.00781,-2.11718 1.01953,-0.6836 2.05859,-1.33985 3.10938,-1.96875 1.05468,-0.63282 2.12109,-1.23829 3.20312,-1.81641 1.08203,-0.57813 2.17969,-1.12891 3.28906,-1.65625 1.10938,-0.52344 2.23047,-1.01953 3.36328,-1.48828 1.13672,-0.47266 2.28125,-0.91406 3.4375,-1.32813 1.15625,-0.41406 2.32032,-0.79687 3.4961,-1.15234 1.17187,-0.35547 2.35547,-0.68359 3.54687,-0.98438 1.19141,-0.29687 2.38672,-0.5664 3.58985,-0.80468 1.20312,-0.23828 2.41406,-0.44922 3.6289,-0.62891 1.21485,-0.17969 2.42969,-0.33203 3.65235,-0.45312 1.22265,-0.11719 2.44531,-0.20704 3.67187,-0.26954 1.22656,-0.0586 2.45313,-0.0898 3.67969,-0.0898 1.22656,0 2.45312,0.0312 3.67969,0.0898 1.22656,0.0625 2.44922,0.15235 3.67187,0.26954 1.22266,0.12109 2.4375,0.27343 3.65235,0.45312 1.21484,0.17969 2.42578,0.39063 3.6289,0.62891 1.20313,0.23828 2.39844,0.50781 3.58985,0.80468 1.1914,0.30079 2.375,0.62891 3.54687,0.98438 1.17578,0.35547 2.33984,0.73828 3.49609,1.15234 1.15625,0.41407 2.30079,0.85547 3.4375,1.32813 1.13282,0.46875 2.25391,0.96484 3.36329,1.48828 1.10937,0.52734 2.20703,1.07812 3.28906,1.65625 1.08203,0.57812 2.14844,1.18359 3.20312,1.81641 1.05078,0.6289 2.08985,1.28515 3.10938,1.96875 1.01953,0.67968 2.02344,1.38671 3.00781,2.11718 0.98828,0.73438 1.95313,1.48828 2.90234,2.26563 0.94922,0.78125 1.87891,1.58203 2.78907,2.40625 0.91015,0.82422 1.79687,1.66797 2.66406,2.53906 0.87109,0.86719 1.71484,1.75391 2.53906,2.66406 0.82422,0.91016 1.625,1.83985 2.40625,2.78906 0.77735,0.94922 1.53125,1.91407 2.26563,2.90235 0.73047,0.98437 1.4375,1.98828 2.11718,3.00781 0.6836,1.01953 1.33985,2.05859 1.96875,3.10938 0.63282,1.05468 1.23829,2.12109 1.81641,3.20312 0.57813,1.08203 1.12891,2.17969 1.65625,3.28906 0.52344,1.10938 1.01953,2.23047 1.48828,3.36328 0.47266,1.13672 0.91406,2.28125 1.32813,3.4375 0.41015,1.15625 0.79687,2.32032 1.15234,3.4961 0.35547,1.17187 0.68359,2.35547 0.98438,3.54687 0.29687,1.19141 0.5664,2.38672 0.80468,3.58985 0.23828,1.20312 0.44922,2.41406 0.62891,3.6289 0.17969,1.21485 0.33203,2.42969 0.45312,3.65235 0.11719,1.22265 0.20704,2.44531 0.26954,3.67187 0.0586,1.22656 0.0898,2.45313 0.0898,3.67969 z m 0,0"
       fill-opacity="1"
       fill-rule="nonzero"
       id="path3" />
  </g>
  <g
     clip-path="url(#8fa01c8473)"
     id="g4"
     transform="translate(-112.5,-112.5)">
    <path
       fill="#000000"
       d="m 186.44531,162.75781 c -1.6914,-2.96484 -3.38672,-5.92578 -5.07812,-8.46875 -1.69532,-2.53906 -3.38282,-4.65625 -6.13672,-6.5625 -2.75,-1.90234 -6.5586,-3.59765 -10.36719,-4.44531 -3.80859,-0.84375 -7.61719,-0.84375 -11.00391,0 -3.38671,0.84766 -6.34765,2.54297 -8.67578,5.29297 -2.32812,2.75 -4.01953,6.5625 -4.44531,10.16015 -0.42187,3.60157 0.42578,6.98438 1.26953,9.94922 0.84766,2.96094 1.69531,5.50391 3.38672,8.04297 1.69141,2.54297 4.23438,5.08203 6.76953,6.98828 2.53906,1.90235 5.08203,3.17188 7.6211,4.44141 -1.69532,1.27344 -3.38672,2.54297 -5.71485,4.66016 -2.32812,2.11718 -5.28906,5.07812 -7.19531,7.83203 -1.90625,2.75 -2.75,5.29297 -3.38672,7.41015 -0.63281,2.11719 -1.05469,3.8086 -1.05469,6.5625 0,2.75 0.42188,6.5586 1.47657,9.52344 1.05859,2.96484 2.7539,5.07813 4.44921,6.77344 1.69141,1.69531 3.38282,2.96484 6.34375,3.60156 2.96485,0.63281 7.19532,0.63281 10.3711,0.42188 3.17187,-0.21094 5.28906,-0.63672 8.03906,-2.11719 2.75391,-1.48047 6.13672,-4.02344 8.67578,-6.98828 2.54297,-2.96485 4.23438,-6.34766 5.92578,-9.73438 1.26953,2.11719 2.53907,4.23438 4.44141,6.77344 1.90625,2.53906 4.44922,5.50391 7.62109,7.62109 3.17188,2.11719 6.98438,3.38672 10.78907,3.8086 3.8125,0.42578 7.62109,0 10.79296,-0.84766 3.17579,-0.84766 5.71485,-2.11328 7.83204,-4.44531 2.11328,-2.32813 3.80859,-5.71485 4.65234,-9.10156 0.84766,-3.38672 0.84766,-6.77344 0.21094,-9.73438 -0.63282,-2.96484 -1.90235,-5.50781 -3.17578,-7.83594 -1.26954,-2.32422 -2.53516,-4.44531 -4.23047,-6.35156 -1.69141,-1.90234 -3.80469,-3.59766 -6.13672,-4.86719 -2.32422,-1.26953 -4.86328,-2.11718 -7.40235,-2.96484 1.69141,-1.26953 3.38282,-2.53906 5.5,-4.01953 2.11719,-1.48047 4.65625,-3.17578 6.98438,-5.71485 2.32422,-2.53906 4.44141,-5.92578 5.92187,-8.89062 1.48438,-2.96484 2.32813,-5.50391 2.32813,-8.46875 0,-2.96484 -0.84375,-6.35156 -2.11719,-9.09766 -1.26953,-2.7539 -2.96094,-4.87109 -4.65234,-6.5664 -1.69531,-1.69141 -3.38672,-2.96094 -5.07813,-3.8086 -1.69531,-0.84765 -3.38672,-1.26953 -5.92578,-1.48437 -2.53906,-0.21094 -5.92578,-0.21094 -9.09765,0.63672 -3.17579,0.84765 -6.13672,2.53906 -8.67579,4.44531 -2.53906,1.90625 -4.65625,4.02344 -6.35156,6.13672 -1.6914,2.11719 -2.96094,4.23437 -3.80469,6.14062 -0.84765,1.90625 -1.27343,3.59766 -1.69531,5.29297 z M 187.71484,178 c 5.60938,0 10.15625,4.54687 10.15625,10.16016 0,5.60937 -4.54687,10.16015 -10.15625,10.16015 -5.60937,0 -10.15625,-4.55078 -10.15625,-10.16015 0,-5.61329 4.54688,-10.16016 10.15625,-10.16016 z m 9.00391,29 c -0.21094,1.48047 -0.21094,3.59766 0.63672,5.71484 0.84765,2.11719 2.53906,4.23438 4.23047,6.13672 1.69531,1.90625 3.38672,3.60156 5.28906,4.66016 1.90625,1.05859 4.02344,1.48047 6.13672,1.48047 2.11719,0 4.23437,-0.42188 5.92578,-1.48047 1.69531,-1.0586 2.96484,-2.75391 3.80859,-4.23438 0.84766,-1.48437 1.26953,-2.7539 1.48047,-4.65625 0.21485,-1.90625 0.21485,-4.44531 -0.21094,-6.77734 -0.42187,-2.32813 -1.26953,-4.44141 -2.96093,-6.34766 -1.69141,-1.90625 -4.23438,-3.59765 -6.5586,-4.44531 -2.32812,-0.84766 -4.44531,-0.84766 -5.71484,-0.63672 -1.26953,0.21485 -1.69531,0.63672 -1.90625,1.26953 -0.21094,0.63672 -0.21094,1.48438 0.42578,2.75391 0.63281,1.26953 1.90234,2.96484 2.96094,3.80859 1.05859,0.84766 1.90625,0.84766 2.96484,1.0586 1.0586,0.21093 2.32422,0.63672 3.38281,1.48437 1.0586,0.84375 1.90625,2.11328 2.32813,3.59766 0.42578,1.48047 0.42578,3.17578 0.21094,4.4414 -0.21094,1.27344 -0.63282,2.1211 -1.48047,2.75391 -0.84766,0.63672 -2.11328,1.05859 -3.38281,1.26953 -1.27344,0.21094 -2.53907,0.21094 -3.59766,-0.42187 -1.05859,-0.63672 -1.90625,-1.90625 -2.32813,-3.38672 -0.42578,-1.48047 -0.42578,-3.17578 -0.63671,-4.23438 -0.21094,-1.05859 -0.63672,-1.48047 -1.48047,-2.32812 -0.84766,-0.84766 -2.11719,-2.11328 -3.17188,-2.96485 -1.05859,-0.84375 -1.90625,-1.26953 -2.7539,-1.48046 -0.84766,-0.21094 -1.69141,-0.21094 -2.32813,0.21093 -0.63281,0.42188 -1.05469,1.26953 -1.26953,2.75391 z m -16.90625,0 c 0.21094,1.48047 0.21094,3.59766 -0.63281,5.71484 -0.84766,2.11719 -2.53907,4.23438 -4.23047,6.13672 -1.69531,1.90625 -3.38672,3.60156 -5.29297,4.66016 -1.90234,1.05859 -4.01953,1.48047 -6.13672,1.48047 -2.11328,0 -4.23047,-0.42188 -5.92578,-1.48047 -1.69141,-1.0586 -2.96094,-2.75391 -3.80859,-4.23438 -0.84766,-1.48437 -1.26954,-2.7539 -1.48047,-4.65625 -0.21094,-1.90625 -0.21094,-4.44531 0.21093,-6.77734 0.42188,-2.32813 1.26954,-4.44141 2.96485,-6.34766 1.6914,-1.90625 4.23047,-3.59765 6.55859,-4.44531 2.32813,-0.84766 4.44531,-0.84766 5.71485,-0.63672 1.26562,0.21485 1.6914,0.63672 1.90234,1.26953 0.21094,0.63672 0.21094,1.48438 -0.42188,2.75391 -0.63671,1.26953 -1.90625,2.96484 -2.96093,3.80859 -1.0586,0.84766 -1.90625,0.84766 -2.96485,1.0586 -1.05859,0.21093 -2.32812,0.63672 -3.38672,1.48437 -1.05859,0.84375 -1.90234,2.11328 -2.32421,3.59766 -0.42579,1.48047 -0.42579,3.17578 -0.21485,4.4414 0.21094,1.27344 0.63672,2.1211 1.48438,2.75391 0.84375,0.63672 2.11328,1.05859 3.38281,1.26953 1.26953,0.21094 2.53906,0.21094 3.59766,-0.42187 1.05859,-0.63672 1.90625,-1.90625 2.32812,-3.38672 0.42188,-1.48047 0.42188,-3.17578 0.63281,-4.23438 0.21094,-1.05859 0.63672,-1.48047 1.48438,-2.32812 0.84375,-0.84766 2.11328,-2.11328 3.17187,-2.96485 1.0586,-0.84375 1.90625,-1.26953 2.75391,-1.48046 0.84375,-0.21094 1.69141,-0.21094 2.32422,0.21093 0.63672,0.42188 1.05859,1.26953 1.26953,2.75391 z m 15.73437,-39.79688 c -0.21093,-1.48046 -0.21093,-3.60156 0.63282,-5.71875 0.84765,-2.11328 2.53906,-4.23046 4.23047,-6.13671 1.6914,-1.90625 3.38671,-3.59766 5.29296,-4.65625 1.90235,-1.0586 4.01954,-1.48047 6.13282,-1.48047 2.11718,0 4.23437,0.42187 5.92968,1.48047 1.69141,1.05859 2.96094,2.75 3.80469,4.23437 0.84766,1.48047 1.27344,2.75 1.48438,4.65625 0.21093,1.90234 0.21093,4.44531 -0.21094,6.77344 -0.42578,2.32812 -1.27344,4.44531 -2.96484,6.35156 -1.69141,1.90234 -4.23047,3.59766 -6.5586,4.44531 -2.32812,0.84375 -4.44531,0.84375 -5.71484,0.63282 -1.26953,-0.21094 -1.69141,-0.63282 -1.90235,-1.26954 -0.21093,-0.63281 -0.21093,-1.48046 0.42188,-2.75 0.63672,-1.26953 1.90234,-2.96484 2.96094,-3.8125 1.05859,-0.84375 1.90625,-0.84375 2.96093,-1.05859 1.0625,-0.21094 2.32813,-0.63281 3.38672,-1.48047 1.0586,-0.84765 1.90625,-2.11719 2.32813,-3.59765 0.42578,-1.48047 0.42578,-3.17579 0.21484,-4.44532 -0.21094,-1.26953 -0.63672,-2.11718 -1.48437,-2.7539 -0.84375,-0.63282 -2.11328,-1.0586 -3.38282,-1.26953 -1.27343,-0.21094 -2.54296,-0.21094 -3.59765,0.42578 -1.0586,0.63281 -1.90625,1.90234 -2.32813,3.38672 -0.42187,1.48046 -0.42187,3.17578 -0.63281,4.23437 -0.21484,1.05469 -0.63672,1.48047 -1.48437,2.32813 -0.84766,0.84375 -2.11719,2.11328 -3.17579,2.96093 -1.05468,0.84766 -1.90234,1.26953 -2.75,1.48438 -0.84375,0.21094 -1.6914,0.21094 -2.32812,-0.21485 -0.63281,-0.42187 -1.05469,-1.26953 -1.26563,-2.75 z m -16.72656,0.0898 c 0.0742,-1.49219 -0.12109,-3.60156 -1.15625,-5.63281 -1.03515,-2.03125 -2.91406,-3.98829 -4.77344,-5.73047 -1.85937,-1.74219 -3.69921,-3.26953 -5.6914,-4.15235 -1.9961,-0.8789 -4.14063,-1.10547 -6.2461,-0.91406 -2.10937,0.19531 -4.17968,0.80859 -5.76953,2.01953 -1.58984,1.20703 -2.69531,3.01172 -3.54297,4.75391 -0.84765,1.74609 -1.42968,3.43359 -1.46875,5.34765 -0.0352,1.91797 0.47657,4.0625 1.2461,6.15235 0.77344,2.08594 1.8125,4.11719 3.67187,5.85937 1.85938,1.74219 4.54297,3.19922 6.9375,3.82813 2.39453,0.6289 4.5,0.4375 5.7461,0.10937 1.24609,-0.32422 1.6289,-0.78906 1.78125,-1.4375 0.15234,-0.65234 0.0742,-1.49609 -0.67188,-2.69922 -0.75,-1.21093 -2.16797,-2.78125 -3.29687,-3.52343 -1.13282,-0.75 -1.97657,-0.67188 -3.04688,-0.78907 -1.07422,-0.11328 -2.375,-0.41796 -3.50781,-1.16406 -1.13281,-0.74609 -2.08984,-1.93359 -2.64844,-3.37109 -0.55469,-1.4375 -0.71094,-3.1211 -0.61719,-4.40625 0.0937,-1.28516 0.44141,-2.16406 1.22657,-2.875 0.78515,-0.71094 2.00781,-1.2461 3.2539,-1.57422 1.2461,-0.32813 2.50782,-0.44141 3.6211,0.0937 1.10937,0.53516 2.07031,1.72266 2.6289,3.16016 0.55469,1.43359 0.71094,3.12109 1.01563,4.15625 0.30859,1.03515 0.76953,1.41796 1.6914,2.18359 0.91797,0.76562 2.29688,1.91406 3.42969,2.66016 1.12891,0.74609 2.01172,1.08984 2.875,1.22265 0.86328,0.13672 1.70313,0.0586 2.29688,-0.42187 0.59375,-0.47657 0.9375,-1.35938 1.01562,-2.85547 z m 0,0"
       fill-opacity="1"
       fill-rule="evenodd"
       id="path4" />
  </g>
</svg>
