<svg xmlns="http://www.w3.org/2000/svg" xmlns:xlink="http://www.w3.org/1999/xlink" width="500" zoomAndPan="magnify" viewBox="0 0 375 374.999991" height="500" preserveAspectRatio="xMidYMid meet" version="1.0"><defs><clipPath id="2fb54c7aa9"><path d="M 112.5 112.5 L 262.5 112.5 L 262.5 262.5 L 112.5 262.5 Z M 112.5 112.5 " clip-rule="nonzero"/></clipPath><clipPath id="8fa01c8473"><path d="M 140.25 139.894531 L 234.75 139.894531 L 234.75 235.144531 L 140.25 235.144531 Z M 140.25 139.894531 " clip-rule="nonzero"/></clipPath></defs><g clip-path="url(#2fb54c7aa9)"><path fill="#65934b" d="M 262.5 187.5 C 262.5 188.726562 262.46875 189.953125 262.410156 191.179688 C 262.347656 192.40625 262.257812 193.628906 262.140625 194.851562 C 262.019531 196.074219 261.867188 197.289062 261.6875 198.503906 C 261.507812 199.71875 261.296875 200.929688 261.058594 202.132812 C 260.820312 203.335938 260.550781 204.53125 260.253906 205.722656 C 259.953125 206.914062 259.625 208.097656 259.269531 209.269531 C 258.914062 210.445312 258.527344 211.609375 258.117188 212.765625 C 257.703125 213.921875 257.261719 215.066406 256.789062 216.203125 C 256.320312 217.335938 255.824219 218.457031 255.300781 219.566406 C 254.773438 220.675781 254.222656 221.773438 253.644531 222.855469 C 253.066406 223.9375 252.460938 225.003906 251.828125 226.058594 C 251.199219 227.109375 250.542969 228.148438 249.859375 229.167969 C 249.179688 230.1875 248.472656 231.191406 247.742188 232.175781 C 247.007812 233.164062 246.253906 234.128906 245.476562 235.078125 C 244.695312 236.027344 243.894531 236.957031 243.070312 237.867188 C 242.246094 238.777344 241.402344 239.664062 240.53125 240.53125 C 239.664062 241.402344 238.777344 242.246094 237.867188 243.070312 C 236.957031 243.894531 236.027344 244.695312 235.078125 245.476562 C 234.128906 246.253906 233.164062 247.007812 232.175781 247.742188 C 231.191406 248.472656 230.1875 249.179688 229.167969 249.859375 C 228.148438 250.542969 227.109375 251.199219 226.058594 251.828125 C 225.003906 252.460938 223.9375 253.066406 222.855469 253.644531 C 221.773438 254.222656 220.675781 254.773438 219.566406 255.300781 C 218.457031 255.824219 217.335938 256.320312 216.203125 256.789062 C 215.066406 257.261719 213.921875 257.703125 212.765625 258.117188 C 211.609375 258.527344 210.445312 258.914062 209.269531 259.269531 C 208.097656 259.625 206.914062 259.953125 205.722656 260.253906 C 204.53125 260.550781 203.335938 260.820312 202.132812 261.058594 C 200.929688 261.296875 199.71875 261.507812 198.503906 261.6875 C 197.289062 261.867188 196.074219 262.019531 194.851562 262.140625 C 193.628906 262.257812 192.40625 262.347656 191.179688 262.410156 C 189.953125 262.46875 188.726562 262.5 187.5 262.5 C 186.273438 262.5 185.046875 262.46875 183.820312 262.410156 C 182.59375 262.347656 181.371094 262.257812 180.148438 262.140625 C 178.925781 262.019531 177.710938 261.867188 176.496094 261.6875 C 175.28125 261.507812 174.070312 261.296875 172.867188 261.058594 C 171.664062 260.820312 170.46875 260.550781 169.277344 260.253906 C 168.085938 259.953125 166.902344 259.625 165.730469 259.269531 C 164.554688 258.914062 163.390625 258.527344 162.234375 258.117188 C 161.078125 257.703125 159.933594 257.261719 158.796875 256.789062 C 157.664062 256.320312 156.542969 255.824219 155.433594 255.300781 C 154.324219 254.773438 153.226562 254.222656 152.144531 253.644531 C 151.0625 253.066406 149.996094 252.460938 148.941406 251.828125 C 147.890625 251.199219 146.851562 250.542969 145.832031 249.859375 C 144.8125 249.179688 143.808594 248.472656 142.824219 247.742188 C 141.835938 247.007812 140.871094 246.253906 139.921875 245.476562 C 138.972656 244.695312 138.042969 243.894531 137.132812 243.070312 C 136.222656 242.246094 135.335938 241.402344 134.46875 240.53125 C 133.597656 239.664062 132.753906 238.777344 131.929688 237.867188 C 131.105469 236.957031 130.304688 236.027344 129.523438 235.078125 C 128.746094 234.128906 127.992188 233.164062 127.257812 232.175781 C 126.527344 231.191406 125.820312 230.1875 125.140625 229.167969 C 124.457031 228.148438 123.800781 227.109375 123.171875 226.058594 C 122.539062 225.003906 121.933594 223.9375 121.355469 222.855469 C 120.777344 221.773438 120.226562 220.675781 119.699219 219.566406 C 119.175781 218.457031 118.679688 217.335938 118.210938 216.203125 C 117.738281 215.066406 117.296875 213.921875 116.882812 212.765625 C 116.46875 211.609375 116.085938 210.445312 115.730469 209.269531 C 115.375 208.097656 115.046875 206.914062 114.746094 205.722656 C 114.449219 204.53125 114.179688 203.335938 113.941406 202.132812 C 113.703125 200.929688 113.492188 199.71875 113.3125 198.503906 C 113.132812 197.289062 112.980469 196.074219 112.859375 194.851562 C 112.742188 193.628906 112.652344 192.40625 112.589844 191.179688 C 112.53125 189.953125 112.5 188.726562 112.5 187.5 C 112.5 186.273438 112.53125 185.046875 112.589844 183.820312 C 112.652344 182.59375 112.742188 181.371094 112.859375 180.148438 C 112.980469 178.925781 113.132812 177.710938 113.3125 176.496094 C 113.492188 175.28125 113.703125 174.070312 113.941406 172.867188 C 114.179688 171.664062 114.449219 170.46875 114.746094 169.277344 C 115.046875 168.085938 115.375 166.902344 115.730469 165.730469 C 116.085938 164.554688 116.46875 163.390625 116.882812 162.234375 C 117.296875 161.078125 117.738281 159.933594 118.210938 158.796875 C 118.679688 157.664062 119.175781 156.542969 119.699219 155.433594 C 120.226562 154.324219 120.777344 153.226562 121.355469 152.144531 C 121.933594 151.0625 122.539062 149.996094 123.171875 148.941406 C 123.800781 147.890625 124.457031 146.851562 125.140625 145.832031 C 125.820312 144.8125 126.527344 143.808594 127.257812 142.824219 C 127.992188 141.835938 128.746094 140.871094 129.523438 139.921875 C 130.304688 138.972656 131.105469 138.042969 131.929688 137.132812 C 132.753906 136.222656 133.597656 135.335938 134.46875 134.46875 C 135.335938 133.597656 136.222656 132.753906 137.132812 131.929688 C 138.042969 131.105469 138.972656 130.304688 139.921875 129.523438 C 140.871094 128.746094 141.835938 127.992188 142.824219 127.257812 C 143.808594 126.527344 144.8125 125.820312 145.832031 125.140625 C 146.851562 124.457031 147.890625 123.800781 148.941406 123.171875 C 149.996094 122.539062 151.0625 121.933594 152.144531 121.355469 C 153.226562 120.777344 154.324219 120.226562 155.433594 119.699219 C 156.542969 119.175781 157.664062 118.679688 158.796875 118.210938 C 159.933594 117.738281 161.078125 117.296875 162.234375 116.882812 C 163.390625 116.46875 164.554688 116.085938 165.730469 115.730469 C 166.902344 115.375 168.085938 115.046875 169.277344 114.746094 C 170.46875 114.449219 171.664062 114.179688 172.867188 113.941406 C 174.070312 113.703125 175.28125 113.492188 176.496094 113.3125 C 177.710938 113.132812 178.925781 112.980469 180.148438 112.859375 C 181.371094 112.742188 182.59375 112.652344 183.820312 112.589844 C 185.046875 112.53125 186.273438 112.5 187.5 112.5 C 188.726562 112.5 189.953125 112.53125 191.179688 112.589844 C 192.40625 112.652344 193.628906 112.742188 194.851562 112.859375 C 196.074219 112.980469 197.289062 113.132812 198.503906 113.3125 C 199.71875 113.492188 200.929688 113.703125 202.132812 113.941406 C 203.335938 114.179688 204.53125 114.449219 205.722656 114.746094 C 206.914062 115.046875 208.097656 115.375 209.269531 115.730469 C 210.445312 116.085938 211.609375 116.46875 212.765625 116.882812 C 213.921875 117.296875 215.066406 117.738281 216.203125 118.210938 C 217.335938 118.679688 218.457031 119.175781 219.566406 119.699219 C 220.675781 120.226562 221.773438 120.777344 222.855469 121.355469 C 223.9375 121.933594 225.003906 122.539062 226.058594 123.171875 C 227.109375 123.800781 228.148438 124.457031 229.167969 125.140625 C 230.1875 125.820312 231.191406 126.527344 232.175781 127.257812 C 233.164062 127.992188 234.128906 128.746094 235.078125 129.523438 C 236.027344 130.304688 236.957031 131.105469 237.867188 131.929688 C 238.777344 132.753906 239.664062 133.597656 240.53125 134.46875 C 241.402344 135.335938 242.246094 136.222656 243.070312 137.132812 C 243.894531 138.042969 244.695312 138.972656 245.476562 139.921875 C 246.253906 140.871094 247.007812 141.835938 247.742188 142.824219 C 248.472656 143.808594 249.179688 144.8125 249.859375 145.832031 C 250.542969 146.851562 251.199219 147.890625 251.828125 148.941406 C 252.460938 149.996094 253.066406 151.0625 253.644531 152.144531 C 254.222656 153.226562 254.773438 154.324219 255.300781 155.433594 C 255.824219 156.542969 256.320312 157.664062 256.789062 158.796875 C 257.261719 159.933594 257.703125 161.078125 258.117188 162.234375 C 258.527344 163.390625 258.914062 164.554688 259.269531 165.730469 C 259.625 166.902344 259.953125 168.085938 260.253906 169.277344 C 260.550781 170.46875 260.820312 171.664062 261.058594 172.867188 C 261.296875 174.070312 261.507812 175.28125 261.6875 176.496094 C 261.867188 177.710938 262.019531 178.925781 262.140625 180.148438 C 262.257812 181.371094 262.347656 182.59375 262.410156 183.820312 C 262.46875 185.046875 262.5 186.273438 262.5 187.5 Z M 262.5 187.5 " fill-opacity="1" fill-rule="nonzero"/></g><g clip-path="url(#8fa01c8473)"><path fill="#000000" d="M 186.445312 162.757812 C 184.753906 159.792969 183.058594 156.832031 181.367188 154.289062 C 179.671875 151.75 177.984375 149.632812 175.230469 147.726562 C 172.480469 145.824219 168.671875 144.128906 164.863281 143.28125 C 161.054688 142.4375 157.246094 142.4375 153.859375 143.28125 C 150.472656 144.128906 147.511719 145.824219 145.183594 148.574219 C 142.855469 151.324219 141.164062 155.136719 140.738281 158.734375 C 140.316406 162.335938 141.164062 165.71875 142.007812 168.683594 C 142.855469 171.644531 143.703125 174.1875 145.394531 176.726562 C 147.085938 179.269531 149.628906 181.808594 152.164062 183.714844 C 154.703125 185.617188 157.246094 186.886719 159.785156 188.15625 C 158.089844 189.429688 156.398438 190.699219 154.070312 192.816406 C 151.742188 194.933594 148.78125 197.894531 146.875 200.648438 C 144.96875 203.398438 144.125 205.941406 143.488281 208.058594 C 142.855469 210.175781 142.433594 211.867188 142.433594 214.621094 C 142.433594 217.371094 142.855469 221.179688 143.910156 224.144531 C 144.96875 227.109375 146.664062 229.222656 148.359375 230.917969 C 150.050781 232.613281 151.742188 233.882812 154.703125 234.519531 C 157.667969 235.152344 161.898438 235.152344 165.074219 234.941406 C 168.246094 234.730469 170.363281 234.304688 173.113281 232.824219 C 175.867188 231.34375 179.25 228.800781 181.789062 225.835938 C 184.332031 222.871094 186.023438 219.488281 187.714844 216.101562 C 188.984375 218.21875 190.253906 220.335938 192.15625 222.875 C 194.0625 225.414062 196.605469 228.378906 199.777344 230.496094 C 202.949219 232.613281 206.761719 233.882812 210.566406 234.304688 C 214.378906 234.730469 218.1875 234.304688 221.359375 233.457031 C 224.535156 232.609375 227.074219 231.34375 229.191406 229.011719 C 231.304688 226.683594 233 223.296875 233.84375 219.910156 C 234.691406 216.523438 234.691406 213.136719 234.054688 210.175781 C 233.421875 207.210938 232.152344 204.667969 230.878906 202.339844 C 229.609375 200.015625 228.34375 197.894531 226.648438 195.988281 C 224.957031 194.085938 222.84375 192.390625 220.511719 191.121094 C 218.1875 189.851562 215.648438 189.003906 213.109375 188.15625 C 214.800781 186.886719 216.492188 185.617188 218.609375 184.136719 C 220.726562 182.65625 223.265625 180.960938 225.59375 178.421875 C 227.917969 175.882812 230.035156 172.496094 231.515625 169.53125 C 233 166.566406 233.84375 164.027344 233.84375 161.0625 C 233.84375 158.097656 233 154.710938 231.726562 151.964844 C 230.457031 149.210938 228.765625 147.09375 227.074219 145.398438 C 225.378906 143.707031 223.6875 142.4375 221.996094 141.589844 C 220.300781 140.742188 218.609375 140.320312 216.070312 140.105469 C 213.53125 139.894531 210.144531 139.894531 206.972656 140.742188 C 203.796875 141.589844 200.835938 143.28125 198.296875 145.1875 C 195.757812 147.09375 193.640625 149.210938 191.945312 151.324219 C 190.253906 153.441406 188.984375 155.558594 188.140625 157.464844 C 187.292969 159.371094 186.867188 161.0625 186.445312 162.757812 Z M 187.714844 178 C 193.324219 178 197.871094 182.546875 197.871094 188.160156 C 197.871094 193.769531 193.324219 198.320312 187.714844 198.320312 C 182.105469 198.320312 177.558594 193.769531 177.558594 188.160156 C 177.558594 182.546875 182.105469 178 187.714844 178 Z M 196.71875 207 C 196.507812 208.480469 196.507812 210.597656 197.355469 212.714844 C 198.203125 214.832031 199.894531 216.949219 201.585938 218.851562 C 203.28125 220.757812 204.972656 222.453125 206.875 223.511719 C 208.78125 224.570312 210.898438 224.992188 213.011719 224.992188 C 215.128906 224.992188 217.246094 224.570312 218.9375 223.511719 C 220.632812 222.453125 221.902344 220.757812 222.746094 219.277344 C 223.59375 217.792969 224.015625 216.523438 224.226562 214.621094 C 224.441406 212.714844 224.441406 210.175781 224.015625 207.84375 C 223.59375 205.515625 222.746094 203.402344 221.054688 201.496094 C 219.363281 199.589844 216.820312 197.898438 214.496094 197.050781 C 212.167969 196.203125 210.050781 196.203125 208.78125 196.414062 C 207.511719 196.628906 207.085938 197.050781 206.875 197.683594 C 206.664062 198.320312 206.664062 199.167969 207.300781 200.4375 C 207.933594 201.707031 209.203125 203.402344 210.261719 204.246094 C 211.320312 205.09375 212.167969 205.09375 213.226562 205.304688 C 214.285156 205.515625 215.550781 205.941406 216.609375 206.789062 C 217.667969 207.632812 218.515625 208.902344 218.9375 210.386719 C 219.363281 211.867188 219.363281 213.5625 219.148438 214.828125 C 218.9375 216.101562 218.515625 216.949219 217.667969 217.582031 C 216.820312 218.21875 215.554688 218.640625 214.285156 218.851562 C 213.011719 219.0625 211.746094 219.0625 210.6875 218.429688 C 209.628906 217.792969 208.78125 216.523438 208.359375 215.042969 C 207.933594 213.5625 207.933594 211.867188 207.722656 210.808594 C 207.511719 209.75 207.085938 209.328125 206.242188 208.480469 C 205.394531 207.632812 204.125 206.367188 203.070312 205.515625 C 202.011719 204.671875 201.164062 204.246094 200.316406 204.035156 C 199.46875 203.824219 198.625 203.824219 197.988281 204.246094 C 197.355469 204.667969 196.933594 205.515625 196.71875 207 Z M 179.8125 207 C 180.023438 208.480469 180.023438 210.597656 179.179688 212.714844 C 178.332031 214.832031 176.640625 216.949219 174.949219 218.851562 C 173.253906 220.757812 171.5625 222.453125 169.65625 223.511719 C 167.753906 224.570312 165.636719 224.992188 163.519531 224.992188 C 161.40625 224.992188 159.289062 224.570312 157.59375 223.511719 C 155.902344 222.453125 154.632812 220.757812 153.785156 219.277344 C 152.9375 217.792969 152.515625 216.523438 152.304688 214.621094 C 152.09375 212.714844 152.09375 210.175781 152.515625 207.84375 C 152.9375 205.515625 153.785156 203.402344 155.480469 201.496094 C 157.171875 199.589844 159.710938 197.898438 162.039062 197.050781 C 164.367188 196.203125 166.484375 196.203125 167.753906 196.414062 C 169.019531 196.628906 169.445312 197.050781 169.65625 197.683594 C 169.867188 198.320312 169.867188 199.167969 169.234375 200.4375 C 168.597656 201.707031 167.328125 203.402344 166.273438 204.246094 C 165.214844 205.09375 164.367188 205.09375 163.308594 205.304688 C 162.25 205.515625 160.980469 205.941406 159.921875 206.789062 C 158.863281 207.632812 158.019531 208.902344 157.597656 210.386719 C 157.171875 211.867188 157.171875 213.5625 157.382812 214.828125 C 157.59375 216.101562 158.019531 216.949219 158.867188 217.582031 C 159.710938 218.21875 160.980469 218.640625 162.25 218.851562 C 163.519531 219.0625 164.789062 219.0625 165.847656 218.429688 C 166.90625 217.792969 167.753906 216.523438 168.175781 215.042969 C 168.597656 213.5625 168.597656 211.867188 168.808594 210.808594 C 169.019531 209.75 169.445312 209.328125 170.292969 208.480469 C 171.136719 207.632812 172.40625 206.367188 173.464844 205.515625 C 174.523438 204.671875 175.371094 204.246094 176.21875 204.035156 C 177.0625 203.824219 177.910156 203.824219 178.542969 204.246094 C 179.179688 204.667969 179.601562 205.515625 179.8125 207 Z M 195.546875 167.203125 C 195.335938 165.722656 195.335938 163.601562 196.179688 161.484375 C 197.027344 159.371094 198.71875 157.253906 200.410156 155.347656 C 202.101562 153.441406 203.796875 151.75 205.703125 150.691406 C 207.605469 149.632812 209.722656 149.210938 211.835938 149.210938 C 213.953125 149.210938 216.070312 149.632812 217.765625 150.691406 C 219.457031 151.75 220.726562 153.441406 221.570312 154.925781 C 222.417969 156.40625 222.84375 157.675781 223.054688 159.582031 C 223.265625 161.484375 223.265625 164.027344 222.84375 166.355469 C 222.417969 168.683594 221.570312 170.800781 219.878906 172.707031 C 218.1875 174.609375 215.648438 176.304688 213.320312 177.152344 C 210.992188 177.996094 208.875 177.996094 207.605469 177.785156 C 206.335938 177.574219 205.914062 177.152344 205.703125 176.515625 C 205.492188 175.882812 205.492188 175.035156 206.125 173.765625 C 206.761719 172.496094 208.027344 170.800781 209.085938 169.953125 C 210.144531 169.109375 210.992188 169.109375 212.046875 168.894531 C 213.109375 168.683594 214.375 168.261719 215.433594 167.414062 C 216.492188 166.566406 217.339844 165.296875 217.761719 163.816406 C 218.1875 162.335938 218.1875 160.640625 217.976562 159.371094 C 217.765625 158.101562 217.339844 157.253906 216.492188 156.617188 C 215.648438 155.984375 214.378906 155.558594 213.109375 155.347656 C 211.835938 155.136719 210.566406 155.136719 209.511719 155.773438 C 208.453125 156.40625 207.605469 157.675781 207.183594 159.160156 C 206.761719 160.640625 206.761719 162.335938 206.550781 163.394531 C 206.335938 164.449219 205.914062 164.875 205.066406 165.722656 C 204.21875 166.566406 202.949219 167.835938 201.890625 168.683594 C 200.835938 169.53125 199.988281 169.953125 199.140625 170.167969 C 198.296875 170.378906 197.449219 170.378906 196.8125 169.953125 C 196.179688 169.53125 195.757812 168.683594 195.546875 167.203125 Z M 178.820312 167.292969 C 178.894531 165.800781 178.699219 163.691406 177.664062 161.660156 C 176.628906 159.628906 174.75 157.671875 172.890625 155.929688 C 171.03125 154.1875 169.191406 152.660156 167.199219 151.777344 C 165.203125 150.898438 163.058594 150.671875 160.953125 150.863281 C 158.84375 151.058594 156.773438 151.671875 155.183594 152.882812 C 153.59375 154.089844 152.488281 155.894531 151.640625 157.636719 C 150.792969 159.382812 150.210938 161.070312 150.171875 162.984375 C 150.136719 164.902344 150.648438 167.046875 151.417969 169.136719 C 152.191406 171.222656 153.230469 173.253906 155.089844 174.996094 C 156.949219 176.738281 159.632812 178.195312 162.027344 178.824219 C 164.421875 179.453125 166.527344 179.261719 167.773438 178.933594 C 169.019531 178.609375 169.402344 178.144531 169.554688 177.496094 C 169.707031 176.84375 169.628906 176 168.882812 174.796875 C 168.132812 173.585938 166.714844 172.015625 165.585938 171.273438 C 164.453125 170.523438 163.609375 170.601562 162.539062 170.484375 C 161.464844 170.371094 160.164062 170.066406 159.03125 169.320312 C 157.898438 168.574219 156.941406 167.386719 156.382812 165.949219 C 155.828125 164.511719 155.671875 162.828125 155.765625 161.542969 C 155.859375 160.257812 156.207031 159.378906 156.992188 158.667969 C 157.777344 157.957031 159 157.421875 160.246094 157.09375 C 161.492188 156.765625 162.753906 156.652344 163.867188 157.1875 C 164.976562 157.722656 165.9375 158.910156 166.496094 160.347656 C 167.050781 161.78125 167.207031 163.46875 167.511719 164.503906 C 167.820312 165.539062 168.28125 165.921875 169.203125 166.6875 C 170.121094 167.453125 171.5 168.601562 172.632812 169.347656 C 173.761719 170.09375 174.644531 170.4375 175.507812 170.570312 C 176.371094 170.707031 177.210938 170.628906 177.804688 170.148438 C 178.398438 169.671875 178.742188 168.789062 178.820312 167.292969 Z M 178.820312 167.292969 " fill-opacity="1" fill-rule="evenodd"/></g></svg>