<?xml version="1.0" encoding="UTF-8" standalone="no"?>
<svg
   width="200"
   zoomAndPan="magnify"
   viewBox="0 0 150 150"
   height="200"
   preserveAspectRatio="xMidYMid"
   version="1.0"
   id="svg4"
   sodipodi:docname="denkyem.svg"
   inkscape:version="1.3.2 (091e20e, 2023-11-25, custom)"
   xmlns:inkscape="http://www.inkscape.org/namespaces/inkscape"
   xmlns:sodipodi="http://sodipodi.sourceforge.net/DTD/sodipodi-0.dtd"
   xmlns="http://www.w3.org/2000/svg"
   xmlns:svg="http://www.w3.org/2000/svg">
  <sodipodi:namedview
     id="namedview4"
     pagecolor="#ffffff"
     bordercolor="#000000"
     borderopacity="0.25"
     inkscape:showpageshadow="2"
     inkscape:pageopacity="0.0"
     inkscape:pagecheckerboard="0"
     inkscape:deskcolor="#d1d1d1"
     inkscape:zoom="1.532"
     inkscape:cx="99.869452"
     inkscape:cy="99.869452"
     inkscape:window-width="1920"
     inkscape:window-height="991"
     inkscape:window-x="-9"
     inkscape:window-y="-9"
     inkscape:window-maximized="1"
     inkscape:current-layer="svg4" />
  <defs
     id="defs2">
    <clipPath
       id="2f4adbec56">
      <path
         d="m 112.5,112.5 h 150 v 150 h -150 z m 0,0"
         clip-rule="nonzero"
         id="path1" />
    </clipPath>
    <clipPath
       id="f531725281">
      <path
         d="m 140.96094,137.58984 h 93 v 99.75 h -93 z m 0,0"
         clip-rule="nonzero"
         id="path2" />
    </clipPath>
  </defs>
  <g
     clip-path="url(#2f4adbec56)"
     id="g3"
     transform="translate(-112.5,-112.5)">
    <path
       fill="#65934b"
       d="m 262.5,187.5 c 0,1.22656 -0.0312,2.45312 -0.0898,3.67969 -0.0625,1.22656 -0.15235,2.44922 -0.26954,3.67187 -0.12109,1.22266 -0.27343,2.4375 -0.45312,3.65235 -0.17969,1.21484 -0.39063,2.42578 -0.62891,3.6289 -0.23828,1.20313 -0.50781,2.39844 -0.80468,3.58985 -0.30079,1.1914 -0.62891,2.375 -0.98438,3.54687 -0.35547,1.17578 -0.74219,2.33984 -1.15234,3.49609 -0.41407,1.15625 -0.85547,2.30079 -1.32813,3.4375 -0.46875,1.13282 -0.96484,2.25391 -1.48828,3.36329 -0.52734,1.10937 -1.07812,2.20703 -1.65625,3.28906 -0.57812,1.08203 -1.18359,2.14844 -1.81641,3.20312 -0.6289,1.05078 -1.28515,2.08985 -1.96875,3.10938 -0.67968,1.01953 -1.38671,2.02344 -2.11718,3.00781 -0.73438,0.98828 -1.48828,1.95313 -2.26563,2.90234 -0.78125,0.94922 -1.58203,1.87891 -2.40625,2.78907 -0.82422,0.91015 -1.66797,1.79687 -2.53906,2.66406 -0.86719,0.87109 -1.75391,1.71484 -2.66406,2.53906 -0.91016,0.82422 -1.83985,1.625 -2.78907,2.40625 -0.94921,0.77735 -1.91406,1.53125 -2.90234,2.26563 -0.98437,0.73047 -1.98828,1.4375 -3.00781,2.11718 -1.01953,0.6836 -2.0586,1.33985 -3.10938,1.96875 -1.05468,0.63282 -2.12109,1.23829 -3.20312,1.81641 -1.08203,0.57813 -2.17969,1.12891 -3.28906,1.65625 -1.10938,0.52344 -2.23047,1.01953 -3.36329,1.48828 -1.13671,0.47266 -2.28125,0.91406 -3.4375,1.32813 -1.15625,0.41015 -2.32031,0.79687 -3.49609,1.15234 -1.17187,0.35547 -2.35547,0.68359 -3.54687,0.98438 -1.19141,0.29687 -2.38672,0.5664 -3.58985,0.80468 -1.20312,0.23828 -2.41406,0.44922 -3.6289,0.62891 -1.21485,0.17969 -2.42969,0.33203 -3.65235,0.45312 -1.22265,0.11719 -2.44531,0.20704 -3.67187,0.26954 -1.22657,0.0586 -2.45313,0.0898 -3.67969,0.0898 -1.22656,0 -2.45313,-0.0312 -3.67969,-0.0898 -1.22656,-0.0625 -2.44922,-0.15235 -3.67187,-0.26954 -1.22266,-0.12109 -2.4375,-0.27343 -3.65235,-0.45312 -1.21484,-0.17969 -2.42578,-0.39063 -3.6289,-0.62891 -1.20313,-0.23828 -2.39844,-0.50781 -3.58985,-0.80468 -1.1914,-0.30079 -2.375,-0.62891 -3.54687,-0.98438 -1.17578,-0.35547 -2.33985,-0.74219 -3.4961,-1.15234 -1.15625,-0.41407 -2.30078,-0.85547 -3.4375,-1.32813 -1.13281,-0.46875 -2.2539,-0.96484 -3.36328,-1.48828 -1.10937,-0.52734 -2.20703,-1.07812 -3.28906,-1.65625 -1.08203,-0.57812 -2.14844,-1.18359 -3.20312,-1.81641 -1.05079,-0.6289 -2.08985,-1.28515 -3.10938,-1.96875 -1.01953,-0.67968 -2.02344,-1.38671 -3.00781,-2.11718 -0.98828,-0.73438 -1.95313,-1.48828 -2.90235,-2.26563 -0.94921,-0.78125 -1.8789,-1.58203 -2.78906,-2.40625 -0.91015,-0.82422 -1.79687,-1.66797 -2.66406,-2.53906 -0.87109,-0.86719 -1.71484,-1.75391 -2.53906,-2.66406 -0.82422,-0.91016 -1.625,-1.83985 -2.40625,-2.78907 -0.77735,-0.94921 -1.53125,-1.91406 -2.26563,-2.90234 -0.73047,-0.98437 -1.4375,-1.98828 -2.11718,-3.00781 -0.6836,-1.01953 -1.33985,-2.0586 -1.96875,-3.10938 -0.63282,-1.05468 -1.23829,-2.12109 -1.81641,-3.20312 -0.57813,-1.08203 -1.12891,-2.17969 -1.65625,-3.28906 -0.52344,-1.10938 -1.01953,-2.23047 -1.48828,-3.36329 -0.47266,-1.13671 -0.91406,-2.28125 -1.32813,-3.4375 -0.41406,-1.15625 -0.79687,-2.32031 -1.15234,-3.49609 -0.35547,-1.17187 -0.68359,-2.35547 -0.98438,-3.54687 -0.29687,-1.19141 -0.5664,-2.38672 -0.80468,-3.58985 -0.23828,-1.20312 -0.44922,-2.41406 -0.62891,-3.6289 -0.17969,-1.21485 -0.33203,-2.42969 -0.45312,-3.65235 -0.11719,-1.22265 -0.20704,-2.44531 -0.26954,-3.67187 -0.0586,-1.22657 -0.0898,-2.45313 -0.0898,-3.67969 0,-1.22656 0.0312,-2.45313 0.0898,-3.67969 0.0625,-1.22656 0.15235,-2.44922 0.26954,-3.67187 0.12109,-1.22266 0.27343,-2.4375 0.45312,-3.65235 0.17969,-1.21484 0.39063,-2.42578 0.62891,-3.6289 0.23828,-1.20313 0.50781,-2.39844 0.80468,-3.58985 0.30079,-1.1914 0.62891,-2.375 0.98438,-3.54687 0.35547,-1.17578 0.73828,-2.33985 1.15234,-3.4961 0.41407,-1.15625 0.85547,-2.30078 1.32813,-3.4375 0.46875,-1.13281 0.96484,-2.2539 1.48828,-3.36328 0.52734,-1.10937 1.07812,-2.20703 1.65625,-3.28906 0.57812,-1.08203 1.18359,-2.14844 1.81641,-3.20312 0.6289,-1.05079 1.28515,-2.08985 1.96875,-3.10938 0.67968,-1.01953 1.38671,-2.02344 2.11718,-3.00781 0.73438,-0.98828 1.48828,-1.95313 2.26563,-2.90235 0.78125,-0.94921 1.58203,-1.8789 2.40625,-2.78906 0.82422,-0.91015 1.66797,-1.79687 2.53906,-2.66406 0.86719,-0.87109 1.75391,-1.71484 2.66406,-2.53906 0.91016,-0.82422 1.83985,-1.625 2.78906,-2.40625 0.94922,-0.77735 1.91407,-1.53125 2.90235,-2.26563 0.98437,-0.73047 1.98828,-1.4375 3.00781,-2.11718 1.01953,-0.6836 2.05859,-1.33985 3.10938,-1.96875 1.05468,-0.63282 2.12109,-1.23829 3.20312,-1.81641 1.08203,-0.57813 2.17969,-1.12891 3.28906,-1.65625 1.10938,-0.52344 2.23047,-1.01953 3.36328,-1.48828 1.13672,-0.47266 2.28125,-0.91406 3.4375,-1.32813 1.15625,-0.41406 2.32032,-0.79687 3.4961,-1.15234 1.17187,-0.35547 2.35547,-0.68359 3.54687,-0.98438 1.19141,-0.29687 2.38672,-0.5664 3.58985,-0.80468 1.20312,-0.23828 2.41406,-0.44922 3.6289,-0.62891 1.21485,-0.17969 2.42969,-0.33203 3.65235,-0.45312 1.22265,-0.11719 2.44531,-0.20704 3.67187,-0.26954 1.22656,-0.0586 2.45313,-0.0898 3.67969,-0.0898 1.22656,0 2.45312,0.0312 3.67969,0.0898 1.22656,0.0625 2.44922,0.15235 3.67187,0.26954 1.22266,0.12109 2.4375,0.27343 3.65235,0.45312 1.21484,0.17969 2.42578,0.39063 3.6289,0.62891 1.20313,0.23828 2.39844,0.50781 3.58985,0.80468 1.1914,0.30079 2.375,0.62891 3.54687,0.98438 1.17578,0.35547 2.33984,0.73828 3.49609,1.15234 1.15625,0.41407 2.30079,0.85547 3.4375,1.32813 1.13282,0.46875 2.25391,0.96484 3.36329,1.48828 1.10937,0.52734 2.20703,1.07812 3.28906,1.65625 1.08203,0.57812 2.14844,1.18359 3.20312,1.81641 1.05078,0.6289 2.08985,1.28515 3.10938,1.96875 1.01953,0.67968 2.02344,1.38671 3.00781,2.11718 0.98828,0.73438 1.95313,1.48828 2.90234,2.26563 0.94922,0.78125 1.87891,1.58203 2.78907,2.40625 0.91015,0.82422 1.79687,1.66797 2.66406,2.53906 0.87109,0.86719 1.71484,1.75391 2.53906,2.66406 0.82422,0.91016 1.625,1.83985 2.40625,2.78906 0.77735,0.94922 1.53125,1.91407 2.26563,2.90235 0.73047,0.98437 1.4375,1.98828 2.11718,3.00781 0.6836,1.01953 1.33985,2.05859 1.96875,3.10938 0.63282,1.05468 1.23829,2.12109 1.81641,3.20312 0.57813,1.08203 1.12891,2.17969 1.65625,3.28906 0.52344,1.10938 1.01953,2.23047 1.48828,3.36328 0.47266,1.13672 0.91406,2.28125 1.32813,3.4375 0.41015,1.15625 0.79687,2.32032 1.15234,3.4961 0.35547,1.17187 0.68359,2.35547 0.98438,3.54687 0.29687,1.19141 0.5664,2.38672 0.80468,3.58985 0.23828,1.20312 0.44922,2.41406 0.62891,3.6289 0.17969,1.21485 0.33203,2.42969 0.45312,3.65235 0.11719,1.22265 0.20704,2.44531 0.26954,3.67187 0.0586,1.22656 0.0898,2.45313 0.0898,3.67969 z m 0,0"
       fill-opacity="1"
       fill-rule="nonzero"
       id="path3" />
  </g>
  <g
     clip-path="url(#f531725281)"
     id="g4"
     transform="translate(-112.5,-112.5)">
    <path
       fill="#000000"
       d="m 195.73047,161.37109 c -0.42188,-0.85156 -0.84766,-1.69922 -0.63672,-3.39453 0.21094,-1.69922 1.0625,-4.24609 1.48437,-6.79297 0.42579,-2.54687 0.42579,-5.09375 -0.63671,-7.42578 -1.0586,-2.33594 -3.17969,-4.45703 -5.30469,-5.30859 -2.1211,-0.84766 -4.24219,-0.42188 -5.9375,0.42578 -1.69922,0.84766 -2.97266,2.12109 -4.2461,3.60937 -1.27343,1.48438 -2.54296,3.17969 -2.96875,5.08985 -0.42578,1.91406 0,4.03125 0.63672,5.94531 0.63672,1.91016 1.48438,3.60547 2.33203,4.66797 0.84766,1.05859 1.69922,1.48437 2.1211,2.33203 0.42578,0.85156 0.42578,2.12109 0,2.97266 -0.42188,0.84765 -1.27344,1.27343 -2.75781,1.69531 -1.48438,0.42578 -3.60547,0.85156 -6.57813,0.64062 -2.96875,-0.21484 -6.78906,-1.0625 -9.12109,-2.125 -2.33594,-1.0625 -3.1836,-2.33203 -3.60938,-3.18359 -0.42187,-0.84766 -0.42187,-1.27344 0,-2.12109 0.42578,-0.84766 1.27344,-2.1211 1.48828,-3.1836 0.21094,-1.05859 -0.21484,-1.91015 -0.42578,-2.75781 -0.21094,-0.85156 -0.21094,-1.69922 -0.63672,-2.125 -0.42578,-0.42187 -1.27343,-0.42187 -2.75781,-0.42187 -1.48437,0 -3.60547,0 -4.66797,-0.42188 -1.05859,-0.42578 -1.05859,-1.27344 -1.05859,-1.91406 0,-0.63672 0,-1.0586 -0.64063,-1.0586 -0.63281,0 -1.90625,0.42188 -2.75781,0.42188 -0.84766,0 -1.27344,-0.42188 -2.12109,-0.84766 -0.85157,-0.42578 -2.1211,-0.84765 -2.96875,-0.84765 -0.84766,0 -1.27344,0.42187 -1.69922,2.54687 -0.42188,2.1211 -0.84766,5.94141 -0.42188,9.33594 0.42188,3.39453 1.69532,6.36719 2.75782,8.27734 1.05859,1.91016 1.91015,2.75782 2.96875,3.60547 1.0625,0.84766 2.33203,1.69922 3.60937,2.33594 1.27344,0.63281 2.54297,1.0625 3.81641,1.48437 1.27343,0.42188 2.54687,0.85157 3.18359,1.91407 0.63672,1.05859 0.63672,2.7539 0.63672,6.78515 0,4.03125 0,10.40235 0.63672,14.64453 0.63672,4.24219 1.91015,6.36719 3.18359,8.0625 1.27344,1.69922 2.54297,2.97266 3.81641,4.2461 -6.36328,0 -12.73047,0 -15.91406,0.21094 -3.17969,0.21093 -3.17969,0.63671 -3.39063,1.27343 -0.21484,0.63672 -0.63672,1.48438 -0.63672,2.54688 0,1.0625 0.42188,2.33594 -0.004,4.67187 -0.42579,2.33203 -1.69532,5.72657 -2.75782,8.27344 -1.05859,2.54688 -1.90625,4.24219 -2.33203,5.51563 -0.42578,1.27343 -0.42578,2.125 -0.42578,2.75781 0,0.64062 0,1.0625 0.21484,0.85156 0.21094,-0.21094 0.63672,-1.0625 1.69532,-1.48437 1.0625,-0.42579 2.75781,-0.42579 3.82031,-0.42579 1.05859,0 1.48437,0 1.91016,0.42579 0.42187,0.42187 0.84765,1.27343 1.27343,1.91015 0.42188,0.63672 0.84766,1.0586 1.27344,1.0586 0.42188,0 0.84766,-0.42188 1.48438,-0.84766 0.63671,-0.42578 1.48437,-0.84766 2.12109,-1.0625 0.63672,-0.21094 1.0625,-0.21094 1.48437,0 0.42579,0.21484 0.85157,0.63672 1.27344,1.0625 0.42578,0.42578 0.84766,0.84766 1.27344,0.63672 0.42187,-0.21094 0.84766,-1.0625 0.84766,-2.125 0,-1.0586 -0.42579,-2.33203 -1.27344,-4.03125 -0.84766,-1.69531 -2.1211,-3.81641 -2.54688,-5.51563 -0.42187,-1.69922 0.004,-2.96875 0.63672,-3.60547 0.63672,-0.63671 1.48828,-0.63671 2.33594,-0.85156 0.84766,-0.21094 1.69531,-0.63672 2.54687,-0.84765 0.84766,-0.21485 1.69532,-0.21485 2.96875,-0.21485 1.27344,0 2.97266,0 5.30469,-0.21094 2.33594,-0.21093 5.30469,-0.63671 7.85156,-0.85156 2.54297,-0.21094 4.66797,-0.21094 5.72657,0.21485 1.0625,0.42578 1.0625,1.27343 1.0625,2.54687 0,1.27344 0,2.96875 -1.0625,5.51953 -1.0586,2.54297 -3.1836,5.94141 -3.81641,7.63672 -0.63672,1.69922 0.21094,1.69922 1.69531,1.0625 1.48438,-0.63672 3.60938,-1.91016 5.94141,-3.82031 2.33203,-1.90625 4.87891,-4.45703 6.78906,-7.00391 1.91016,-2.54297 3.1836,-5.09375 4.03125,-6.36328 0.84766,-1.27344 1.27344,-1.27344 4.45703,-1.27344 3.1836,0 9.1211,0 12.30469,0.21094 3.18359,0.21094 3.60938,0.63672 4.45703,1.91016 0.84766,1.27343 2.1211,3.39453 2.54297,4.8789 0.42578,1.48438 0,2.33594 -0.84766,2.97266 -0.84765,0.63672 -2.12109,1.0625 -2.96875,2.54687 -0.84765,1.48438 -1.27343,4.03125 -1.48828,5.51954 -0.21093,1.48437 -0.21093,1.90625 0.42578,1.48437 0.63672,-0.42969 1.91016,-1.69922 2.75782,-2.33594 0.84765,-0.63672 1.27343,-0.63672 1.69922,0 0.42187,0.63672 0.84765,1.90625 1.27343,2.75782 0.42188,0.84765 0.84766,1.27343 1.27344,1.27343 0.42188,0 0.84766,-0.42578 1.27344,-1.0625 0.42187,-0.63281 0.84765,-1.48437 1.05859,-1.69531 0.21485,-0.21094 0.21485,0.21094 0.42578,0.21094 0.21094,0 0.63672,-0.42188 1.0586,-0.63672 0.42578,-0.21094 0.85156,-0.21094 1.48828,0.21484 0.63281,0.42188 1.48437,1.27344 2.33203,1.69532 0.84766,0.42187 1.69531,0.42187 2.12109,0 0.42578,-0.42188 0.42578,-1.27344 0.21485,-3.1836 -0.21485,-1.91015 -0.64063,-4.8789 -0.85157,-8.0625 -0.21093,-3.18359 -0.21093,-6.57812 -0.42187,-8.91406 -0.21484,-2.33594 -0.64063,-3.60547 -1.48828,-4.87891 -0.84766,-1.27343 -2.1211,-2.54687 -4.03125,-3.18359 -1.90625,-0.63672 -4.45313,-0.63672 -7,-0.63672 1.27344,-3.39453 2.54687,-6.78906 2.96875,-9.76172 0.42578,-2.96875 0,-5.51562 -0.84766,-8.91406 -0.84765,-3.39453 -2.12109,-7.64063 -2.96875,-10.39844 -0.84765,-2.75781 -1.27344,-4.03125 -1.48828,-4.66797 -0.21094,-0.63672 -0.21094,-0.63672 0.21484,-0.84765 0.42188,-0.21094 1.27344,-0.64063 2.96875,-0.64063 1.69922,0 4.2461,0.42969 5.94141,0.42969 1.69922,0 2.54688,-0.42969 2.96875,-1.0625 0.42578,-0.63672 0.42578,-1.48828 0.42578,-4.45703 0,-2.97266 0,-8.0625 0.21485,-12.09375 0.21093,-4.03516 0.63281,-7.00391 0.63281,-8.49219 0,-1.48437 -0.42188,-1.48437 -0.84766,-1.27344 -0.42187,0.21485 -0.84765,0.63672 -2.12109,1.48828 -1.27344,0.84766 -3.39453,2.1211 -4.66797,2.75782 -1.27344,0.63672 -1.69922,0.63672 -2.12109,0 -0.42579,-0.63672 -0.85157,-1.91016 -1.27344,-2.54297 -0.42578,-0.64063 -0.84766,-0.64063 -1.48438,-0.21485 -0.63672,0.42188 -1.48437,1.27344 -1.91015,1.69922 -0.42578,0.42188 -0.42578,0.42188 -0.63672,0.63282 -0.21094,0.21093 -0.63672,0.64062 -1.27344,0.64062 -0.63672,0 -1.48437,-0.42969 -2.12109,-0.42969 -0.63672,0 -1.0625,0.42969 -1.27344,0.85157 -0.21094,0.42187 -0.21094,0.85156 0.21094,1.69921 0.42578,0.84766 1.27343,2.1211 1.91015,3.1836 0.63672,1.05859 1.0625,1.91015 1.0625,3.18359 0,1.26953 -0.42578,2.96875 -1.0625,4.24219 -0.63672,1.27344 -1.48437,2.125 -2.54687,2.96875 -1.0586,0.84766 -2.33203,1.69922 -4.02735,1.69922 -1.69921,0 -3.82031,-0.85156 -5.51953,-1.48438 -1.69922,-0.63672 -2.96875,-1.0625 -3.82031,-1.69922 -0.84766,-0.63671 -1.26953,-1.48437 -1.69531,-2.33203 z m -23.76172,14.85157 c -0.42578,0 -1.69922,0.85156 -2.75781,3.39843 -1.0625,2.54297 -1.91016,6.78907 -2.33594,9.97266 -0.42578,3.17969 -0.42578,5.30469 0.21094,7.21484 0.63672,1.91016 1.91015,3.60547 2.97265,5.09375 1.0586,1.48438 1.91016,2.75782 2.75782,3.39453 0.84765,0.63672 1.69921,0.63672 2.33203,0.42188 0.63672,-0.21094 1.0625,-0.63281 1.0625,-1.48438 0,-0.84765 -0.42578,-2.12109 -1.0625,-4.03125 -0.63282,-1.91015 -1.48438,-4.45703 -2.1211,-7.21484 -0.63672,-2.75781 -1.05859,-5.73047 -1.27343,-8.27344 -0.21094,-2.55078 -0.21094,-4.67187 0,-6.15625 0.21484,-1.48437 0.63671,-2.33593 0.21484,-2.33593 z m 9.54687,-3.60547 c 0.63672,-0.21094 1.0586,0.63281 1.48438,2.75781 0.42578,2.125 0.84766,5.51562 1.48437,8.69922 0.63672,3.18359 1.48829,6.15625 1.91016,9.1289 0.42578,2.96875 0.42578,5.94141 0.42578,8.0625 0,2.1211 0,3.39454 0,4.24219 0,0.84766 0,1.27344 -0.42578,1.0625 -0.42187,-0.21094 -1.27344,-1.0625 -1.91016,-2.12109 -0.63671,-1.0625 -1.05859,-2.33594 -1.27343,-3.82031 C 183,199.14453 183,197.44531 182.57422,195.53516 c -0.42188,-1.91016 -1.27344,-4.03125 -1.69531,-5.94141 -0.42579,-1.91016 -0.42579,-3.60938 -0.63672,-5.30469 -0.21094,-1.69922 -0.63672,-3.39844 -0.84766,-4.88281 -0.21484,-1.48438 -0.21484,-2.75781 0.21094,-4.03125 0.42187,-1.27344 1.27344,-2.54688 1.91015,-2.75781 z m 11.87891,-1.69532 c 0.64063,-0.63671 1.48828,-0.63671 2.33594,-0.42968 0.84765,0.21484 1.69922,0.63672 2.33203,1.69922 0.63672,1.05859 1.0625,2.75781 1.27344,6.36718 0.21484,3.60547 0.21484,9.125 0.21484,13.3711 0,4.24218 0,7.21484 -0.42578,9.33593 -0.42578,2.1211 -1.27344,3.39454 -1.69922,4.24219 -0.42187,0.84766 -0.42187,1.27344 -0.63672,1.48438 -0.21094,0.21484 -0.63281,0.21484 -0.84765,-0.84766 -0.21094,-1.05859 -0.21094,-3.18359 -0.63672,-5.30469 -0.42188,-2.12109 -1.26953,-4.24218 -1.69532,-6.57812 -0.42578,-2.33203 -0.42578,-4.88281 -0.42578,-7.64063 0,-2.75781 0,-5.73047 -0.21093,-7.85156 -0.21094,-2.12109 -0.63672,-3.39453 -0.63672,-4.66797 0,-1.27344 0.42578,-2.54297 1.05859,-3.17969 z m 15.06641,7.21094 c 0.84765,0.63672 2.96875,2.75781 4.24218,5.09375 1.27344,2.33203 1.69922,4.87891 1.91016,7.21485 0.21484,2.33203 0.21484,4.45703 0.21484,6.36718 0,1.91016 0,3.60547 -0.85156,4.87891 -0.84765,1.27344 -2.54687,2.125 -3.82031,2.54687 -1.26953,0.42579 -2.12109,0.42579 -2.54297,0.42579 -0.42578,0 -0.42578,0 0,-0.84766 0.42188,-0.85156 1.27344,-2.54688 1.69531,-5.30469 0.42578,-2.76172 0.42578,-6.57812 0.21485,-9.55078 -0.21485,-2.97266 -0.64063,-5.09375 -0.85157,-6.57812 -0.21093,-1.48829 -0.21093,-2.33594 -0.42187,-3.1836 -0.21484,-0.84765 -0.63672,-1.69922 0.21094,-1.0625 z m 0,0"
       fill-opacity="1"
       fill-rule="evenodd"
       id="path4" />
  </g>
</svg>
