<svg xmlns="http://www.w3.org/2000/svg" xmlns:xlink="http://www.w3.org/1999/xlink" width="500" zoomAndPan="magnify" viewBox="0 0 375 374.999991" height="500" preserveAspectRatio="xMidYMid meet" version="1.0"><defs><clipPath id="2f4adbec56"><path d="M 112.5 112.5 L 262.5 112.5 L 262.5 262.5 L 112.5 262.5 Z M 112.5 112.5 " clip-rule="nonzero"/></clipPath><clipPath id="f531725281"><path d="M 140.960938 137.589844 L 233.960938 137.589844 L 233.960938 237.339844 L 140.960938 237.339844 Z M 140.960938 137.589844 " clip-rule="nonzero"/></clipPath></defs><g clip-path="url(#2f4adbec56)"><path fill="#65934b" d="M 262.5 187.5 C 262.5 188.726562 262.46875 189.953125 262.410156 191.179688 C 262.347656 192.40625 262.257812 193.628906 262.140625 194.851562 C 262.019531 196.074219 261.867188 197.289062 261.6875 198.503906 C 261.507812 199.71875 261.296875 200.929688 261.058594 202.132812 C 260.820312 203.335938 260.550781 204.53125 260.253906 205.722656 C 259.953125 206.914062 259.625 208.097656 259.269531 209.269531 C 258.914062 210.445312 258.527344 211.609375 258.117188 212.765625 C 257.703125 213.921875 257.261719 215.066406 256.789062 216.203125 C 256.320312 217.335938 255.824219 218.457031 255.300781 219.566406 C 254.773438 220.675781 254.222656 221.773438 253.644531 222.855469 C 253.066406 223.9375 252.460938 225.003906 251.828125 226.058594 C 251.199219 227.109375 250.542969 228.148438 249.859375 229.167969 C 249.179688 230.1875 248.472656 231.191406 247.742188 232.175781 C 247.007812 233.164062 246.253906 234.128906 245.476562 235.078125 C 244.695312 236.027344 243.894531 236.957031 243.070312 237.867188 C 242.246094 238.777344 241.402344 239.664062 240.53125 240.53125 C 239.664062 241.402344 238.777344 242.246094 237.867188 243.070312 C 236.957031 243.894531 236.027344 244.695312 235.078125 245.476562 C 234.128906 246.253906 233.164062 247.007812 232.175781 247.742188 C 231.191406 248.472656 230.1875 249.179688 229.167969 249.859375 C 228.148438 250.542969 227.109375 251.199219 226.058594 251.828125 C 225.003906 252.460938 223.9375 253.066406 222.855469 253.644531 C 221.773438 254.222656 220.675781 254.773438 219.566406 255.300781 C 218.457031 255.824219 217.335938 256.320312 216.203125 256.789062 C 215.066406 257.261719 213.921875 257.703125 212.765625 258.117188 C 211.609375 258.527344 210.445312 258.914062 209.269531 259.269531 C 208.097656 259.625 206.914062 259.953125 205.722656 260.253906 C 204.53125 260.550781 203.335938 260.820312 202.132812 261.058594 C 200.929688 261.296875 199.71875 261.507812 198.503906 261.6875 C 197.289062 261.867188 196.074219 262.019531 194.851562 262.140625 C 193.628906 262.257812 192.40625 262.347656 191.179688 262.410156 C 189.953125 262.46875 188.726562 262.5 187.5 262.5 C 186.273438 262.5 185.046875 262.46875 183.820312 262.410156 C 182.59375 262.347656 181.371094 262.257812 180.148438 262.140625 C 178.925781 262.019531 177.710938 261.867188 176.496094 261.6875 C 175.28125 261.507812 174.070312 261.296875 172.867188 261.058594 C 171.664062 260.820312 170.46875 260.550781 169.277344 260.253906 C 168.085938 259.953125 166.902344 259.625 165.730469 259.269531 C 164.554688 258.914062 163.390625 258.527344 162.234375 258.117188 C 161.078125 257.703125 159.933594 257.261719 158.796875 256.789062 C 157.664062 256.320312 156.542969 255.824219 155.433594 255.300781 C 154.324219 254.773438 153.226562 254.222656 152.144531 253.644531 C 151.0625 253.066406 149.996094 252.460938 148.941406 251.828125 C 147.890625 251.199219 146.851562 250.542969 145.832031 249.859375 C 144.8125 249.179688 143.808594 248.472656 142.824219 247.742188 C 141.835938 247.007812 140.871094 246.253906 139.921875 245.476562 C 138.972656 244.695312 138.042969 243.894531 137.132812 243.070312 C 136.222656 242.246094 135.335938 241.402344 134.46875 240.53125 C 133.597656 239.664062 132.753906 238.777344 131.929688 237.867188 C 131.105469 236.957031 130.304688 236.027344 129.523438 235.078125 C 128.746094 234.128906 127.992188 233.164062 127.257812 232.175781 C 126.527344 231.191406 125.820312 230.1875 125.140625 229.167969 C 124.457031 228.148438 123.800781 227.109375 123.171875 226.058594 C 122.539062 225.003906 121.933594 223.9375 121.355469 222.855469 C 120.777344 221.773438 120.226562 220.675781 119.699219 219.566406 C 119.175781 218.457031 118.679688 217.335938 118.210938 216.203125 C 117.738281 215.066406 117.296875 213.921875 116.882812 212.765625 C 116.46875 211.609375 116.085938 210.445312 115.730469 209.269531 C 115.375 208.097656 115.046875 206.914062 114.746094 205.722656 C 114.449219 204.53125 114.179688 203.335938 113.941406 202.132812 C 113.703125 200.929688 113.492188 199.71875 113.3125 198.503906 C 113.132812 197.289062 112.980469 196.074219 112.859375 194.851562 C 112.742188 193.628906 112.652344 192.40625 112.589844 191.179688 C 112.53125 189.953125 112.5 188.726562 112.5 187.5 C 112.5 186.273438 112.53125 185.046875 112.589844 183.820312 C 112.652344 182.59375 112.742188 181.371094 112.859375 180.148438 C 112.980469 178.925781 113.132812 177.710938 113.3125 176.496094 C 113.492188 175.28125 113.703125 174.070312 113.941406 172.867188 C 114.179688 171.664062 114.449219 170.46875 114.746094 169.277344 C 115.046875 168.085938 115.375 166.902344 115.730469 165.730469 C 116.085938 164.554688 116.46875 163.390625 116.882812 162.234375 C 117.296875 161.078125 117.738281 159.933594 118.210938 158.796875 C 118.679688 157.664062 119.175781 156.542969 119.699219 155.433594 C 120.226562 154.324219 120.777344 153.226562 121.355469 152.144531 C 121.933594 151.0625 122.539062 149.996094 123.171875 148.941406 C 123.800781 147.890625 124.457031 146.851562 125.140625 145.832031 C 125.820312 144.8125 126.527344 143.808594 127.257812 142.824219 C 127.992188 141.835938 128.746094 140.871094 129.523438 139.921875 C 130.304688 138.972656 131.105469 138.042969 131.929688 137.132812 C 132.753906 136.222656 133.597656 135.335938 134.46875 134.46875 C 135.335938 133.597656 136.222656 132.753906 137.132812 131.929688 C 138.042969 131.105469 138.972656 130.304688 139.921875 129.523438 C 140.871094 128.746094 141.835938 127.992188 142.824219 127.257812 C 143.808594 126.527344 144.8125 125.820312 145.832031 125.140625 C 146.851562 124.457031 147.890625 123.800781 148.941406 123.171875 C 149.996094 122.539062 151.0625 121.933594 152.144531 121.355469 C 153.226562 120.777344 154.324219 120.226562 155.433594 119.699219 C 156.542969 119.175781 157.664062 118.679688 158.796875 118.210938 C 159.933594 117.738281 161.078125 117.296875 162.234375 116.882812 C 163.390625 116.46875 164.554688 116.085938 165.730469 115.730469 C 166.902344 115.375 168.085938 115.046875 169.277344 114.746094 C 170.46875 114.449219 171.664062 114.179688 172.867188 113.941406 C 174.070312 113.703125 175.28125 113.492188 176.496094 113.3125 C 177.710938 113.132812 178.925781 112.980469 180.148438 112.859375 C 181.371094 112.742188 182.59375 112.652344 183.820312 112.589844 C 185.046875 112.53125 186.273438 112.5 187.5 112.5 C 188.726562 112.5 189.953125 112.53125 191.179688 112.589844 C 192.40625 112.652344 193.628906 112.742188 194.851562 112.859375 C 196.074219 112.980469 197.289062 113.132812 198.503906 113.3125 C 199.71875 113.492188 200.929688 113.703125 202.132812 113.941406 C 203.335938 114.179688 204.53125 114.449219 205.722656 114.746094 C 206.914062 115.046875 208.097656 115.375 209.269531 115.730469 C 210.445312 116.085938 211.609375 116.46875 212.765625 116.882812 C 213.921875 117.296875 215.066406 117.738281 216.203125 118.210938 C 217.335938 118.679688 218.457031 119.175781 219.566406 119.699219 C 220.675781 120.226562 221.773438 120.777344 222.855469 121.355469 C 223.9375 121.933594 225.003906 122.539062 226.058594 123.171875 C 227.109375 123.800781 228.148438 124.457031 229.167969 125.140625 C 230.1875 125.820312 231.191406 126.527344 232.175781 127.257812 C 233.164062 127.992188 234.128906 128.746094 235.078125 129.523438 C 236.027344 130.304688 236.957031 131.105469 237.867188 131.929688 C 238.777344 132.753906 239.664062 133.597656 240.53125 134.46875 C 241.402344 135.335938 242.246094 136.222656 243.070312 137.132812 C 243.894531 138.042969 244.695312 138.972656 245.476562 139.921875 C 246.253906 140.871094 247.007812 141.835938 247.742188 142.824219 C 248.472656 143.808594 249.179688 144.8125 249.859375 145.832031 C 250.542969 146.851562 251.199219 147.890625 251.828125 148.941406 C 252.460938 149.996094 253.066406 151.0625 253.644531 152.144531 C 254.222656 153.226562 254.773438 154.324219 255.300781 155.433594 C 255.824219 156.542969 256.320312 157.664062 256.789062 158.796875 C 257.261719 159.933594 257.703125 161.078125 258.117188 162.234375 C 258.527344 163.390625 258.914062 164.554688 259.269531 165.730469 C 259.625 166.902344 259.953125 168.085938 260.253906 169.277344 C 260.550781 170.46875 260.820312 171.664062 261.058594 172.867188 C 261.296875 174.070312 261.507812 175.28125 261.6875 176.496094 C 261.867188 177.710938 262.019531 178.925781 262.140625 180.148438 C 262.257812 181.371094 262.347656 182.59375 262.410156 183.820312 C 262.46875 185.046875 262.5 186.273438 262.5 187.5 Z M 262.5 187.5 " fill-opacity="1" fill-rule="nonzero"/></g><g clip-path="url(#f531725281)"><path fill="#000000" d="M 195.730469 161.371094 C 195.308594 160.519531 194.882812 159.671875 195.09375 157.976562 C 195.304688 156.277344 196.15625 153.730469 196.578125 151.183594 C 197.003906 148.636719 197.003906 146.089844 195.941406 143.757812 C 194.882812 141.421875 192.761719 139.300781 190.636719 138.449219 C 188.515625 137.601562 186.394531 138.027344 184.699219 138.875 C 183 139.722656 181.726562 140.996094 180.453125 142.484375 C 179.179688 143.96875 177.910156 145.664062 177.484375 147.574219 C 177.058594 149.488281 177.484375 151.605469 178.121094 153.519531 C 178.757812 155.429688 179.605469 157.125 180.453125 158.1875 C 181.300781 159.246094 182.152344 159.671875 182.574219 160.519531 C 183 161.371094 183 162.640625 182.574219 163.492188 C 182.152344 164.339844 181.300781 164.765625 179.816406 165.1875 C 178.332031 165.613281 176.210938 166.039062 173.238281 165.828125 C 170.269531 165.613281 166.449219 164.765625 164.117188 163.703125 C 161.78125 162.640625 160.933594 161.371094 160.507812 160.519531 C 160.085938 159.671875 160.085938 159.246094 160.507812 158.398438 C 160.933594 157.550781 161.78125 156.277344 161.996094 155.214844 C 162.207031 154.15625 161.78125 153.304688 161.570312 152.457031 C 161.359375 151.605469 161.359375 150.757812 160.933594 150.332031 C 160.507812 149.910156 159.660156 149.910156 158.175781 149.910156 C 156.691406 149.910156 154.570312 149.910156 153.507812 149.488281 C 152.449219 149.0625 152.449219 148.214844 152.449219 147.574219 C 152.449219 146.9375 152.449219 146.515625 151.808594 146.515625 C 151.175781 146.515625 149.902344 146.9375 149.050781 146.9375 C 148.203125 146.9375 147.777344 146.515625 146.929688 146.089844 C 146.078125 145.664062 144.808594 145.242188 143.960938 145.242188 C 143.113281 145.242188 142.6875 145.664062 142.261719 147.789062 C 141.839844 149.910156 141.414062 153.730469 141.839844 157.125 C 142.261719 160.519531 143.535156 163.492188 144.597656 165.402344 C 145.65625 167.3125 146.507812 168.160156 147.566406 169.007812 C 148.628906 169.855469 149.898438 170.707031 151.175781 171.34375 C 152.449219 171.976562 153.71875 172.40625 154.992188 172.828125 C 156.265625 173.25 157.539062 173.679688 158.175781 174.742188 C 158.8125 175.800781 158.8125 177.496094 158.8125 181.527344 C 158.8125 185.558594 158.8125 191.929688 159.449219 196.171875 C 160.085938 200.414062 161.359375 202.539062 162.632812 204.234375 C 163.90625 205.933594 165.175781 207.207031 166.449219 208.480469 C 160.085938 208.480469 153.71875 208.480469 150.535156 208.691406 C 147.355469 208.902344 147.355469 209.328125 147.144531 209.964844 C 146.929688 210.601562 146.507812 211.449219 146.507812 212.511719 C 146.507812 213.574219 146.929688 214.847656 146.503906 217.183594 C 146.078125 219.515625 144.808594 222.910156 143.746094 225.457031 C 142.6875 228.003906 141.839844 229.699219 141.414062 230.972656 C 140.988281 232.246094 140.988281 233.097656 140.988281 233.730469 C 140.988281 234.371094 140.988281 234.792969 141.203125 234.582031 C 141.414062 234.371094 141.839844 233.519531 142.898438 233.097656 C 143.960938 232.671875 145.65625 232.671875 146.71875 232.671875 C 147.777344 232.671875 148.203125 232.671875 148.628906 233.097656 C 149.050781 233.519531 149.476562 234.371094 149.902344 235.007812 C 150.324219 235.644531 150.75 236.066406 151.175781 236.066406 C 151.597656 236.066406 152.023438 235.644531 152.660156 235.21875 C 153.296875 234.792969 154.144531 234.371094 154.78125 234.15625 C 155.417969 233.945312 155.84375 233.945312 156.265625 234.15625 C 156.691406 234.371094 157.117188 234.792969 157.539062 235.21875 C 157.964844 235.644531 158.386719 236.066406 158.8125 235.855469 C 159.234375 235.644531 159.660156 234.792969 159.660156 233.730469 C 159.660156 232.671875 159.234375 231.398438 158.386719 229.699219 C 157.539062 228.003906 156.265625 225.882812 155.839844 224.183594 C 155.417969 222.484375 155.84375 221.214844 156.476562 220.578125 C 157.113281 219.941406 157.964844 219.941406 158.8125 219.726562 C 159.660156 219.515625 160.507812 219.089844 161.359375 218.878906 C 162.207031 218.664062 163.054688 218.664062 164.328125 218.664062 C 165.601562 218.664062 167.300781 218.664062 169.632812 218.453125 C 171.96875 218.242188 174.9375 217.816406 177.484375 217.601562 C 180.027344 217.390625 182.152344 217.390625 183.210938 217.816406 C 184.273438 218.242188 184.273438 219.089844 184.273438 220.363281 C 184.273438 221.636719 184.273438 223.332031 183.210938 225.882812 C 182.152344 228.425781 180.027344 231.824219 179.394531 233.519531 C 178.757812 235.21875 179.605469 235.21875 181.089844 234.582031 C 182.574219 233.945312 184.699219 232.671875 187.03125 230.761719 C 189.363281 228.855469 191.910156 226.304688 193.820312 223.757812 C 195.730469 221.214844 197.003906 218.664062 197.851562 217.394531 C 198.699219 216.121094 199.125 216.121094 202.308594 216.121094 C 205.492188 216.121094 211.429688 216.121094 214.613281 216.332031 C 217.796875 216.542969 218.222656 216.96875 219.070312 218.242188 C 219.917969 219.515625 221.191406 221.636719 221.613281 223.121094 C 222.039062 224.605469 221.613281 225.457031 220.765625 226.09375 C 219.917969 226.730469 218.644531 227.15625 217.796875 228.640625 C 216.949219 230.125 216.523438 232.671875 216.308594 234.160156 C 216.097656 235.644531 216.097656 236.066406 216.734375 235.644531 C 217.371094 235.214844 218.644531 233.945312 219.492188 233.308594 C 220.339844 232.671875 220.765625 232.671875 221.191406 233.308594 C 221.613281 233.945312 222.039062 235.214844 222.464844 236.066406 C 222.886719 236.914062 223.3125 237.339844 223.738281 237.339844 C 224.160156 237.339844 224.585938 236.914062 225.011719 236.277344 C 225.433594 235.644531 225.859375 234.792969 226.070312 234.582031 C 226.285156 234.371094 226.285156 234.792969 226.496094 234.792969 C 226.707031 234.792969 227.132812 234.371094 227.554688 234.15625 C 227.980469 233.945312 228.40625 233.945312 229.042969 234.371094 C 229.675781 234.792969 230.527344 235.644531 231.375 236.066406 C 232.222656 236.488281 233.070312 236.488281 233.496094 236.066406 C 233.921875 235.644531 233.921875 234.792969 233.710938 232.882812 C 233.496094 230.972656 233.070312 228.003906 232.859375 224.820312 C 232.648438 221.636719 232.648438 218.242188 232.4375 215.90625 C 232.222656 213.570312 231.796875 212.300781 230.949219 211.027344 C 230.101562 209.753906 228.828125 208.480469 226.917969 207.84375 C 225.011719 207.207031 222.464844 207.207031 219.917969 207.207031 C 221.191406 203.8125 222.464844 200.417969 222.886719 197.445312 C 223.3125 194.476562 222.886719 191.929688 222.039062 188.53125 C 221.191406 185.136719 219.917969 180.890625 219.070312 178.132812 C 218.222656 175.375 217.796875 174.101562 217.582031 173.464844 C 217.371094 172.828125 217.371094 172.828125 217.796875 172.617188 C 218.21875 172.40625 219.070312 171.976562 220.765625 171.976562 C 222.464844 171.976562 225.011719 172.40625 226.707031 172.40625 C 228.40625 172.40625 229.253906 171.976562 229.675781 171.34375 C 230.101562 170.707031 230.101562 169.855469 230.101562 166.886719 C 230.101562 163.914062 230.101562 158.824219 230.316406 154.792969 C 230.527344 150.757812 230.949219 147.789062 230.949219 146.300781 C 230.949219 144.816406 230.527344 144.816406 230.101562 145.027344 C 229.679688 145.242188 229.253906 145.664062 227.980469 146.515625 C 226.707031 147.363281 224.585938 148.636719 223.3125 149.273438 C 222.039062 149.910156 221.613281 149.910156 221.191406 149.273438 C 220.765625 148.636719 220.339844 147.363281 219.917969 146.730469 C 219.492188 146.089844 219.070312 146.089844 218.433594 146.515625 C 217.796875 146.9375 216.949219 147.789062 216.523438 148.214844 C 216.097656 148.636719 216.097656 148.636719 215.886719 148.847656 C 215.675781 149.058594 215.25 149.488281 214.613281 149.488281 C 213.976562 149.488281 213.128906 149.058594 212.492188 149.058594 C 211.855469 149.058594 211.429688 149.488281 211.21875 149.910156 C 211.007812 150.332031 211.007812 150.761719 211.429688 151.609375 C 211.855469 152.457031 212.703125 153.730469 213.339844 154.792969 C 213.976562 155.851562 214.402344 156.703125 214.402344 157.976562 C 214.402344 159.246094 213.976562 160.945312 213.339844 162.21875 C 212.703125 163.492188 211.855469 164.34375 210.792969 165.1875 C 209.734375 166.035156 208.460938 166.886719 206.765625 166.886719 C 205.066406 166.886719 202.945312 166.035156 201.246094 165.402344 C 199.546875 164.765625 198.277344 164.339844 197.425781 163.703125 C 196.578125 163.066406 196.15625 162.21875 195.730469 161.371094 Z M 171.96875 176.222656 C 171.542969 176.222656 170.269531 177.074219 169.210938 179.621094 C 168.148438 182.164062 167.300781 186.410156 166.875 189.59375 C 166.449219 192.773438 166.449219 194.898438 167.085938 196.808594 C 167.722656 198.71875 168.996094 200.414062 170.058594 201.902344 C 171.117188 203.386719 171.96875 204.660156 172.816406 205.296875 C 173.664062 205.933594 174.515625 205.933594 175.148438 205.71875 C 175.785156 205.507812 176.210938 205.085938 176.210938 204.234375 C 176.210938 203.386719 175.785156 202.113281 175.148438 200.203125 C 174.515625 198.292969 173.664062 195.746094 173.027344 192.988281 C 172.390625 190.230469 171.96875 187.257812 171.753906 184.714844 C 171.542969 182.164062 171.542969 180.042969 171.753906 178.558594 C 171.96875 177.074219 172.390625 176.222656 171.96875 176.222656 Z M 181.515625 172.617188 C 182.152344 172.40625 182.574219 173.25 183 175.375 C 183.425781 177.5 183.847656 180.890625 184.484375 184.074219 C 185.121094 187.257812 185.972656 190.230469 186.394531 193.203125 C 186.820312 196.171875 186.820312 199.144531 186.820312 201.265625 C 186.820312 203.386719 186.820312 204.660156 186.820312 205.507812 C 186.820312 206.355469 186.820312 206.78125 186.394531 206.570312 C 185.972656 206.359375 185.121094 205.507812 184.484375 204.449219 C 183.847656 203.386719 183.425781 202.113281 183.210938 200.628906 C 183 199.144531 183 197.445312 182.574219 195.535156 C 182.152344 193.625 181.300781 191.503906 180.878906 189.59375 C 180.453125 187.683594 180.453125 185.984375 180.242188 184.289062 C 180.03125 182.589844 179.605469 180.890625 179.394531 179.40625 C 179.179688 177.921875 179.179688 176.648438 179.605469 175.375 C 180.027344 174.101562 180.878906 172.828125 181.515625 172.617188 Z M 193.394531 170.921875 C 194.035156 170.285156 194.882812 170.285156 195.730469 170.492188 C 196.578125 170.707031 197.429688 171.128906 198.0625 172.191406 C 198.699219 173.25 199.125 174.949219 199.335938 178.558594 C 199.550781 182.164062 199.550781 187.683594 199.550781 191.929688 C 199.550781 196.171875 199.550781 199.144531 199.125 201.265625 C 198.699219 203.386719 197.851562 204.660156 197.425781 205.507812 C 197.003906 206.355469 197.003906 206.78125 196.789062 206.992188 C 196.578125 207.207031 196.15625 207.207031 195.941406 206.144531 C 195.730469 205.085938 195.730469 202.960938 195.304688 200.839844 C 194.882812 198.71875 194.035156 196.597656 193.609375 194.261719 C 193.183594 191.929688 193.183594 189.378906 193.183594 186.621094 C 193.183594 183.863281 193.183594 180.890625 192.972656 178.769531 C 192.761719 176.648438 192.335938 175.375 192.335938 174.101562 C 192.335938 172.828125 192.761719 171.558594 193.394531 170.921875 Z M 208.460938 178.132812 C 209.308594 178.769531 211.429688 180.890625 212.703125 183.226562 C 213.976562 185.558594 214.402344 188.105469 214.613281 190.441406 C 214.828125 192.773438 214.828125 194.898438 214.828125 196.808594 C 214.828125 198.71875 214.828125 200.414062 213.976562 201.6875 C 213.128906 202.960938 211.429688 203.8125 210.15625 204.234375 C 208.886719 204.660156 208.035156 204.660156 207.613281 204.660156 C 207.1875 204.660156 207.1875 204.660156 207.613281 203.8125 C 208.035156 202.960938 208.886719 201.265625 209.308594 198.507812 C 209.734375 195.746094 209.734375 191.929688 209.523438 188.957031 C 209.308594 185.984375 208.882812 183.863281 208.671875 182.378906 C 208.460938 180.890625 208.460938 180.042969 208.25 179.195312 C 208.035156 178.347656 207.613281 177.496094 208.460938 178.132812 Z M 208.460938 178.132812 " fill-opacity="1" fill-rule="evenodd"/></g></svg>