<?xml version="1.0" encoding="UTF-8" standalone="no"?>
<svg
   width="200"
   zoomAndPan="magnify"
   viewBox="0 0 150 150"
   height="200"
   preserveAspectRatio="xMidYMid"
   version="1.0"
   id="svg4"
   sodipodi:docname="dwennimmen.svg"
   inkscape:version="1.3.2 (091e20e, 2023-11-25, custom)"
   xmlns:inkscape="http://www.inkscape.org/namespaces/inkscape"
   xmlns:sodipodi="http://sodipodi.sourceforge.net/DTD/sodipodi-0.dtd"
   xmlns="http://www.w3.org/2000/svg"
   xmlns:svg="http://www.w3.org/2000/svg">
  <sodipodi:namedview
     id="namedview4"
     pagecolor="#ffffff"
     bordercolor="#000000"
     borderopacity="0.25"
     inkscape:showpageshadow="2"
     inkscape:pageopacity="0.0"
     inkscape:pagecheckerboard="0"
     inkscape:deskcolor="#d1d1d1"
     inkscape:zoom="1.532"
     inkscape:cx="99.869452"
     inkscape:cy="99.869452"
     inkscape:window-width="1920"
     inkscape:window-height="991"
     inkscape:window-x="-9"
     inkscape:window-y="-9"
     inkscape:window-maximized="1"
     inkscape:current-layer="svg4" />
  <defs
     id="defs2">
    <clipPath
       id="a8f67be598">
      <path
         d="m 112.5,112.5 h 150 v 150 h -150 z m 0,0"
         clip-rule="nonzero"
         id="path1" />
    </clipPath>
    <clipPath
       id="e66d8e67f7">
      <path
         d="M 141.08984,136.5 H 234 v 102 h -92.91016 z m 0,0"
         clip-rule="nonzero"
         id="path2" />
    </clipPath>
  </defs>
  <g
     clip-path="url(#a8f67be598)"
     id="g3"
     transform="translate(-112.5,-112.5)">
    <path
       fill="#65934b"
       d="m 262.5,187.5 c 0,1.22656 -0.0312,2.45312 -0.0898,3.67969 -0.0625,1.22656 -0.15235,2.44922 -0.26954,3.67187 -0.12109,1.22266 -0.27343,2.4375 -0.45312,3.65235 -0.17969,1.21484 -0.39063,2.42578 -0.62891,3.6289 -0.23828,1.20313 -0.50781,2.39844 -0.80468,3.58985 -0.30079,1.1914 -0.62891,2.375 -0.98438,3.54687 -0.35547,1.17578 -0.74219,2.33984 -1.15234,3.49609 -0.41407,1.15625 -0.85547,2.30079 -1.32813,3.4375 -0.46875,1.13282 -0.96484,2.25391 -1.48828,3.36329 -0.52734,1.10937 -1.07812,2.20703 -1.65625,3.28906 -0.57812,1.08203 -1.18359,2.14844 -1.81641,3.20312 -0.6289,1.05078 -1.28515,2.08985 -1.96875,3.10938 -0.67968,1.01953 -1.38671,2.02344 -2.11718,3.00781 -0.73438,0.98828 -1.48828,1.95313 -2.26563,2.90234 -0.78125,0.94922 -1.58203,1.87891 -2.40625,2.78907 -0.82422,0.91015 -1.66797,1.79687 -2.53906,2.66406 -0.86719,0.87109 -1.75391,1.71484 -2.66406,2.53906 -0.91016,0.82422 -1.83985,1.625 -2.78907,2.40625 -0.94921,0.77735 -1.91406,1.53125 -2.90234,2.26563 -0.98437,0.73047 -1.98828,1.4375 -3.00781,2.11718 -1.01953,0.6836 -2.0586,1.33985 -3.10938,1.96875 -1.05468,0.63282 -2.12109,1.23829 -3.20312,1.81641 -1.08203,0.57813 -2.17969,1.12891 -3.28906,1.65625 -1.10938,0.52344 -2.23047,1.01953 -3.36329,1.48828 -1.13671,0.47266 -2.28125,0.91406 -3.4375,1.32813 -1.15625,0.41015 -2.32031,0.79687 -3.49609,1.15234 -1.17187,0.35547 -2.35547,0.68359 -3.54687,0.98438 -1.19141,0.29687 -2.38672,0.5664 -3.58985,0.80468 -1.20312,0.23828 -2.41406,0.44922 -3.6289,0.62891 -1.21485,0.17969 -2.42969,0.33203 -3.65235,0.45312 -1.22265,0.11719 -2.44531,0.20704 -3.67187,0.26954 -1.22657,0.0586 -2.45313,0.0898 -3.67969,0.0898 -1.22656,0 -2.45313,-0.0312 -3.67969,-0.0898 -1.22656,-0.0625 -2.44922,-0.15235 -3.67187,-0.26954 -1.22266,-0.12109 -2.4375,-0.27343 -3.65235,-0.45312 -1.21484,-0.17969 -2.42578,-0.39063 -3.6289,-0.62891 -1.20313,-0.23828 -2.39844,-0.50781 -3.58985,-0.80468 -1.1914,-0.30079 -2.375,-0.62891 -3.54687,-0.98438 -1.17578,-0.35547 -2.33985,-0.74219 -3.4961,-1.15234 -1.15625,-0.41407 -2.30078,-0.85547 -3.4375,-1.32813 -1.13281,-0.46875 -2.2539,-0.96484 -3.36328,-1.48828 -1.10937,-0.52734 -2.20703,-1.07812 -3.28906,-1.65625 -1.08203,-0.57812 -2.14844,-1.18359 -3.20312,-1.81641 -1.05079,-0.6289 -2.08985,-1.28515 -3.10938,-1.96875 -1.01953,-0.67968 -2.02344,-1.38671 -3.00781,-2.11718 -0.98828,-0.73438 -1.95313,-1.48828 -2.90235,-2.26563 -0.94921,-0.78125 -1.8789,-1.58203 -2.78906,-2.40625 -0.91015,-0.82422 -1.79687,-1.66797 -2.66406,-2.53906 -0.87109,-0.86719 -1.71484,-1.75391 -2.53906,-2.66406 -0.82422,-0.91016 -1.625,-1.83985 -2.40625,-2.78907 -0.77735,-0.94921 -1.53125,-1.91406 -2.26563,-2.90234 -0.73047,-0.98437 -1.4375,-1.98828 -2.11718,-3.00781 -0.6836,-1.01953 -1.33985,-2.0586 -1.96875,-3.10938 -0.63282,-1.05468 -1.23829,-2.12109 -1.81641,-3.20312 -0.57813,-1.08203 -1.12891,-2.17969 -1.65625,-3.28906 -0.52344,-1.10938 -1.01953,-2.23047 -1.48828,-3.36329 -0.47266,-1.13671 -0.91406,-2.28125 -1.32813,-3.4375 -0.41406,-1.15625 -0.79687,-2.32031 -1.15234,-3.49609 -0.35547,-1.17187 -0.68359,-2.35547 -0.98438,-3.54687 -0.29687,-1.19141 -0.5664,-2.38672 -0.80468,-3.58985 -0.23828,-1.20312 -0.44922,-2.41406 -0.62891,-3.6289 -0.17969,-1.21485 -0.33203,-2.42969 -0.45312,-3.65235 -0.11719,-1.22265 -0.20704,-2.44531 -0.26954,-3.67187 -0.0586,-1.22657 -0.0898,-2.45313 -0.0898,-3.67969 0,-1.22656 0.0312,-2.45313 0.0898,-3.67969 0.0625,-1.22656 0.15235,-2.44922 0.26954,-3.67187 0.12109,-1.22266 0.27343,-2.4375 0.45312,-3.65235 0.17969,-1.21484 0.39063,-2.42578 0.62891,-3.6289 0.23828,-1.20313 0.50781,-2.39844 0.80468,-3.58985 0.30079,-1.1914 0.62891,-2.375 0.98438,-3.54687 0.35547,-1.17578 0.73828,-2.33985 1.15234,-3.4961 0.41407,-1.15625 0.85547,-2.30078 1.32813,-3.4375 0.46875,-1.13281 0.96484,-2.2539 1.48828,-3.36328 0.52734,-1.10937 1.07812,-2.20703 1.65625,-3.28906 0.57812,-1.08203 1.18359,-2.14844 1.81641,-3.20312 0.6289,-1.05079 1.28515,-2.08985 1.96875,-3.10938 0.67968,-1.01953 1.38671,-2.02344 2.11718,-3.00781 0.73438,-0.98828 1.48828,-1.95313 2.26563,-2.90235 0.78125,-0.94921 1.58203,-1.8789 2.40625,-2.78906 0.82422,-0.91015 1.66797,-1.79687 2.53906,-2.66406 0.86719,-0.87109 1.75391,-1.71484 2.66406,-2.53906 0.91016,-0.82422 1.83985,-1.625 2.78906,-2.40625 0.94922,-0.77735 1.91407,-1.53125 2.90235,-2.26563 0.98437,-0.73047 1.98828,-1.4375 3.00781,-2.11718 1.01953,-0.6836 2.05859,-1.33985 3.10938,-1.96875 1.05468,-0.63282 2.12109,-1.23829 3.20312,-1.81641 1.08203,-0.57813 2.17969,-1.12891 3.28906,-1.65625 1.10938,-0.52344 2.23047,-1.01953 3.36328,-1.48828 1.13672,-0.47266 2.28125,-0.91406 3.4375,-1.32813 1.15625,-0.41406 2.32032,-0.79687 3.4961,-1.15234 1.17187,-0.35547 2.35547,-0.68359 3.54687,-0.98438 1.19141,-0.29687 2.38672,-0.5664 3.58985,-0.80468 1.20312,-0.23828 2.41406,-0.44922 3.6289,-0.62891 1.21485,-0.17969 2.42969,-0.33203 3.65235,-0.45312 1.22265,-0.11719 2.44531,-0.20704 3.67187,-0.26954 1.22656,-0.0586 2.45313,-0.0898 3.67969,-0.0898 1.22656,0 2.45312,0.0312 3.67969,0.0898 1.22656,0.0625 2.44922,0.15235 3.67187,0.26954 1.22266,0.12109 2.4375,0.27343 3.65235,0.45312 1.21484,0.17969 2.42578,0.39063 3.6289,0.62891 1.20313,0.23828 2.39844,0.50781 3.58985,0.80468 1.1914,0.30079 2.375,0.62891 3.54687,0.98438 1.17578,0.35547 2.33984,0.73828 3.49609,1.15234 1.15625,0.41407 2.30079,0.85547 3.4375,1.32813 1.13282,0.46875 2.25391,0.96484 3.36329,1.48828 1.10937,0.52734 2.20703,1.07812 3.28906,1.65625 1.08203,0.57812 2.14844,1.18359 3.20312,1.81641 1.05078,0.6289 2.08985,1.28515 3.10938,1.96875 1.01953,0.67968 2.02344,1.38671 3.00781,2.11718 0.98828,0.73438 1.95313,1.48828 2.90234,2.26563 0.94922,0.78125 1.87891,1.58203 2.78907,2.40625 0.91015,0.82422 1.79687,1.66797 2.66406,2.53906 0.87109,0.86719 1.71484,1.75391 2.53906,2.66406 0.82422,0.91016 1.625,1.83985 2.40625,2.78906 0.77735,0.94922 1.53125,1.91407 2.26563,2.90235 0.73047,0.98437 1.4375,1.98828 2.11718,3.00781 0.6836,1.01953 1.33985,2.05859 1.96875,3.10938 0.63282,1.05468 1.23829,2.12109 1.81641,3.20312 0.57813,1.08203 1.12891,2.17969 1.65625,3.28906 0.52344,1.10938 1.01953,2.23047 1.48828,3.36328 0.47266,1.13672 0.91406,2.28125 1.32813,3.4375 0.41015,1.15625 0.79687,2.32032 1.15234,3.4961 0.35547,1.17187 0.68359,2.35547 0.98438,3.54687 0.29687,1.19141 0.5664,2.38672 0.80468,3.58985 0.23828,1.20312 0.44922,2.41406 0.62891,3.6289 0.17969,1.21485 0.33203,2.42969 0.45312,3.65235 0.11719,1.22265 0.20704,2.44531 0.26954,3.67187 0.0586,1.22656 0.0898,2.45313 0.0898,3.67969 z m 0,0"
       fill-opacity="1"
       fill-rule="nonzero"
       id="path3" />
  </g>
  <g
     clip-path="url(#e66d8e67f7)"
     id="g4"
     transform="translate(-112.5,-112.5)">
    <path
       fill="#000000"
       d="m 174.74219,138 c 1.86328,0.62109 3.53515,1.42187 5.03906,2.375 1.53125,0.96484 2.89062,2.07422 4.10937,3.28906 1.24219,1.23828 2.375,2.625 3.33204,4.31641 0.125,0.22265 0.24609,0.44922 0.36718,0.68359 0.1211,-0.23437 0.24219,-0.46094 0.36719,-0.68359 0.96094,-1.69141 2.08984,-3.07813 3.33203,-4.31641 1.21875,-1.21484 2.57813,-2.32422 4.10938,-3.28906 1.50781,-0.95313 3.17968,-1.75391 5.03906,-2.375 1.85156,-0.61719 3.89453,-1.04688 6.02344,-1.25781 2.05078,-0.19922 4.17968,-0.19532 6.29687,0.0391 2.26172,0.25 4.53516,0.76562 6.69141,1.57812 2.01953,0.76563 3.92969,1.80079 5.62109,3.12891 1.69531,1.32813 3.15625,2.94531 4.375,4.73047 1.28516,1.88281 2.3125,3.96484 3.0625,6.10156 0.75781,2.13281 1.25781,4.34766 1.42578,6.58594 0.16016,2.11719 0.0234,4.28125 -0.46093,6.46484 -0.53516,2.39844 -1.4961,4.80078 -2.91407,6.89844 -1.29687,1.92578 -3,3.625 -5.125,4.87109 -2.15625,1.26563 -4.69922,2.03516 -7.30859,2.33204 -2.69141,0.30859 -5.5,0.1289 -8.05078,-0.50782 -2.31641,-0.57422 -4.42578,-1.53515 -6.26563,-2.6914 -2.10156,-1.32422 -3.87109,-2.92969 -5.21093,-4.53516 -1.30469,-1.5625 -2.22266,-3.13281 -2.8125,-4.74219 -0.60938,-1.65234 -0.87891,-3.32031 -0.87891,-5.03906 0,-1.625 0.25,-3.31641 0.67969,-4.91406 0.44531,-1.64453 1.10156,-3.21485 1.89843,-4.53906 0.82422,-1.36719 1.79297,-2.47266 2.90235,-3.3711 1.09765,-0.89453 2.3125,-1.5664 3.64062,-2.09765 1.28125,-0.51172 2.70703,-0.90235 4.13672,-1.125 1.40235,-0.21485 2.82422,-0.27344 4.125,-0.14844 1.40235,0.14062 2.66406,0.49219 3.82422,1.01953 1.14063,0.51953 2.16797,1.19922 3.11328,2.00781 0.99219,0.85156 1.90625,1.83985 2.66016,2.97656 0.69531,1.05079 1.27734,2.22657 1.66406,3.52344 0.42969,1.42578 0.63281,3.01563 0.53516,4.5625 -0.0977,1.48047 -0.47266,2.94922 -1.19922,4.25391 -0.69531,1.25 -1.6836,2.29297 -2.79688,3.12109 -1.22656,0.91797 -2.6289,1.59766 -3.94531,2.03516 -1.19531,0.39844 -2.33594,0.60547 -3.39844,0.64844 -1.20312,0.0508 -2.3164,-0.10547 -3.29297,-0.42969 -1.03515,-0.34375 -1.88671,-0.84766 -2.59375,-1.48047 -0.6914,-0.60938 -1.24218,-1.3125 -1.6914,-2.06641 -0.48438,-0.80468 -0.88281,-1.71093 -1.10938,-2.66406 -0.21093,-0.90234 -0.27343,-1.85937 -0.10937,-2.83984 0.17578,-1.0586 0.625,-2.11719 1.24219,-2.9961 0.65625,-0.91015 1.54296,-1.66406 2.57812,-2.07422 0.95313,-0.38281 1.9375,-0.4375 2.82813,-0.30859 1.03515,0.14453 2.01562,0.57031 2.66406,0.99219 1.83984,1.22265 1.84375,2.36328 1.84375,3.5039 h -4.16797 l -0.48828,0.73438 c 0.082,0.16406 0.0859,0.25781 -0.10156,0.12891 -0.0898,-0.0625 -0.26954,-0.12891 -0.49219,-0.16407 l -0.14453,-0.0156 c -0.0469,0.0195 -0.13282,0.12109 -0.24219,0.26172 -0.16797,0.23437 -0.28516,0.52343 -0.33203,0.80078 -0.043,0.24219 -0.0195,0.50781 0.0469,0.78515 0.0937,0.39454 0.26953,0.79297 0.49219,1.15235 0.20313,0.34375 0.42578,0.63281 0.66406,0.83594 0.22266,0.19531 0.47657,0.34765 0.75782,0.4414 0.38281,0.12891 0.86718,0.1875 1.43359,0.16797 0.59375,-0.0273 1.26172,-0.14844 1.96875,-0.38281 0.82031,-0.27344 1.6875,-0.69531 2.44141,-1.25781 0.55859,-0.41797 1.04687,-0.91797 1.35546,-1.47657 0.31641,-0.57422 0.49219,-1.28515 0.53907,-2.03515 0.0586,-0.91016 -0.0664,-1.86328 -0.32813,-2.73438 -0.23047,-0.77734 -0.58203,-1.48828 -1.0039,-2.11719 -0.49219,-0.73437 -1.07422,-1.36718 -1.69141,-1.89843 -0.58984,-0.5 -1.21094,-0.91797 -1.87109,-1.21485 -0.66016,-0.30078 -1.37891,-0.5 -2.16797,-0.57812 -0.86328,-0.0859 -1.83594,-0.043 -2.8086,0.10937 -1.01562,0.15625 -2.04687,0.4375 -2.98047,0.8125 -0.86328,0.34375 -1.6289,0.76563 -2.28515,1.29688 -0.64453,0.52344 -1.21485,1.17969 -1.70703,1.99609 -0.53907,0.90235 -1,2.01172 -1.32422,3.20703 -0.3086,1.15235 -0.48828,2.37891 -0.48828,3.55469 0,1.12891 0.16797,2.20313 0.54687,3.23047 0.39453,1.07422 1.01953,2.13672 1.90625,3.20312 1.00391,1.20704 2.35547,2.42188 3.97656,3.44532 1.38672,0.87109 2.98047,1.59765 4.74219,2.03515 1.94922,0.48438 4.10547,0.6211 6.17578,0.38282 1.9336,-0.21875 3.76563,-0.76172 5.25,-1.62891 1.38672,-0.81641 2.52344,-1.96484 3.42188,-3.29297 1.04687,-1.55078 1.7539,-3.32031 2.14844,-5.08984 0.36328,-1.63672 0.46093,-3.29297 0.33593,-4.94532 -0.13281,-1.76953 -0.53125,-3.52734 -1.13281,-5.23437 -0.60937,-1.72266 -1.42578,-3.39063 -2.44922,-4.88672 -0.92187,-1.35156 -2.01953,-2.57031 -3.28515,-3.55859 -1.25391,-0.98438 -2.69922,-1.76563 -4.24219,-2.35157 -1.71485,-0.64843 -3.55078,-1.0625 -5.39453,-1.26953 -1.76953,-0.19531 -3.53125,-0.19922 -5.21485,-0.0352 -1.72265,0.16797 -3.36718,0.51172 -4.86718,1.01172 -1.42188,0.46875 -2.71485,1.09375 -3.89844,1.83984 -1.15235,0.72656 -2.21094,1.59375 -3.1836,2.57031 -0.94921,0.94531 -1.80078,1.98047 -2.48828,3.1875 -0.6914,1.22656 -1.2539,2.67578 -1.63281,4.47266 -0.41797,1.99219 -0.61719,4.38672 -0.50781,6.82422 0.0977,2.16406 0.4414,4.34375 1.08594,6.26953 0.67187,2.01172 1.6914,3.80078 2.85546,5.3789 1.19922,1.61719 2.57032,3.03516 3.89454,4.25782 2.39453,2.20312 4.66406,3.78906 6.91796,5.29297 1.89454,0.48046 3.89454,0.92578 7.01954,0.96875 3.45703,0.0508 8.28515,-0.39063 12.01562,-0.82813 3.73047,-0.4375 6.36719,-0.875 9,-1.3125 0,3.94531 0,7.88672 0,11.83203 -2.63281,-0.4375 -5.26953,-0.8789 -9,-1.09375 -3.73047,-0.22265 -8.55859,-0.22265 -12.11328,-0.20703 -3.55469,0.0195 -5.83203,0.0508 -7.20313,0.22656 -0.42968,0.0547 -0.77343,0.12891 -1.05078,0.20703 -1.82031,1.25 -3.66406,2.61719 -5.58593,4.38672 -1.32422,1.22266 -2.69532,2.64063 -3.89454,4.26172 -1.16406,1.57422 -2.18359,3.36328 -2.85546,5.375 -0.64454,1.92578 -0.98829,4.10547 -1.08594,6.27344 -0.10938,2.43359 0.0898,4.82812 0.50781,6.82422 0.37891,1.79297 0.94141,3.24609 1.63281,4.46875 0.6875,1.21094 1.53907,2.24219 2.48828,3.1914 0.97266,0.97266 2.03125,1.84375 3.1836,2.56641 1.18359,0.74609 2.47656,1.37109 3.89844,1.84375 1.5,0.49609 3.14453,0.83984 4.86718,1.00781 1.6836,0.16407 3.44532,0.16016 5.21485,-0.0352 1.84375,-0.20313 3.67968,-0.6211 5.39453,-1.26563 1.54297,-0.58984 2.98828,-1.37109 4.24219,-2.35547 1.26562,-0.98828 2.36328,-2.20703 3.28515,-3.55859 1.02344,-1.49609 1.83985,-3.16406 2.44922,-4.88672 0.60156,-1.70312 1,-3.46094 1.13281,-5.23047 0.125,-1.65234 0.0273,-3.3125 -0.33593,-4.94531 -0.39454,-1.76953 -1.10157,-3.54297 -2.14844,-5.09375 -0.89844,-1.32813 -2.03516,-2.47656 -3.42188,-3.28906 -1.48437,-0.8711 -3.3164,-1.41407 -5.25,-1.63282 -2.07031,-0.23828 -4.22656,-0.10156 -6.17578,0.38282 -1.76172,0.4375 -3.35547,1.16406 -4.74219,2.03906 -1.62109,1.01953 -2.97265,2.23828 -3.97656,3.44531 -0.88672,1.06641 -1.51172,2.125 -1.90625,3.19922 -0.3789,1.03125 -0.54687,2.10156 -0.54687,3.23047 0,1.17578 0.17968,2.40234 0.48828,3.55859 0.32422,1.19141 0.78515,2.30469 1.32422,3.20313 0.49218,0.82031 1.0625,1.47265 1.70703,1.99609 0.65625,0.53516 1.42187,0.95313 2.28515,1.29688 0.9336,0.375 1.96485,0.65625 2.98047,0.8164 0.97266,0.14844 1.94532,0.19141 2.8086,0.10547 0.78906,-0.0781 1.50781,-0.27734 2.16797,-0.57422 0.66015,-0.29687 1.28125,-0.71484 1.87109,-1.21875 0.61719,-0.52734 1.19922,-1.16015 1.69141,-1.89453 0.42187,-0.63281 0.77343,-1.34375 1.0039,-2.12109 0.26172,-0.86719 0.38672,-1.82031 0.32813,-2.73047 -0.0469,-0.75391 -0.22266,-1.46484 -0.53907,-2.03906 -0.30859,-0.5586 -0.79687,-1.05469 -1.35546,-1.47657 -0.75391,-0.5625 -1.6211,-0.98046 -2.44141,-1.2539 -0.70703,-0.23438 -1.375,-0.35938 -1.96875,-0.38281 -0.56641,-0.0234 -1.05078,0.0391 -1.43359,0.16406 -0.28125,0.0937 -0.53516,0.25 -0.75782,0.44531 -0.23828,0.19922 -0.46093,0.49219 -0.66406,0.83203 -0.22266,0.36328 -0.39844,0.75781 -0.49219,1.15235 -0.0664,0.27734 -0.0898,0.54687 -0.0469,0.78906 0.0469,0.27734 0.16406,0.5625 0.33203,0.79687 0.10937,0.14063 0.19531,0.2461 0.24219,0.26172 l 0.14453,-0.0156 c 0.22265,-0.0312 0.40234,-0.10157 0.49219,-0.16016 0.1875,-0.12891 0.18359,-0.0352 0.10156,0.12891 l 0.48828,0.73437 h 4.16797 c 0,1.13672 -0.004,2.27735 -1.84375,3.5 -0.64844,0.42578 -1.62891,0.85156 -2.66406,0.9961 -0.89063,0.125 -1.875,0.0703 -2.82813,-0.3125 -1.03516,-0.40625 -1.92187,-1.16016 -2.57812,-2.07422 -0.61719,-0.87891 -1.06641,-1.9375 -1.24219,-2.99219 -0.16406,-0.98047 -0.10156,-1.94141 0.10937,-2.84375 0.22657,-0.95313 0.625,-1.85547 1.10938,-2.66016 0.44922,-0.75781 1,-1.45703 1.6914,-2.07031 0.70704,-0.62891 1.5586,-1.13672 2.59375,-1.48047 0.97657,-0.32422 2.09375,-0.48047 3.29297,-0.42969 1.0625,0.043 2.20313,0.25 3.39844,0.64844 1.31641,0.4375 2.71875,1.11719 3.94531,2.03516 1.11328,0.83203 2.10157,1.875 2.79688,3.12109 0.72656,1.30469 1.10156,2.77735 1.19922,4.25391 0.0977,1.54687 -0.10547,3.13672 -0.53516,4.5625 -0.38672,1.29687 -0.96875,2.47656 -1.66406,3.52344 -0.75391,1.13671 -1.66797,2.1289 -2.66016,2.97656 -0.94531,0.80859 -1.97265,1.48828 -3.11328,2.00781 -1.16016,0.53125 -2.42187,0.87891 -3.82422,1.01953 -1.30078,0.12891 -2.72265,0.0703 -4.125,-0.14844 -1.42969,-0.22265 -2.85547,-0.61328 -4.13672,-1.12109 -1.32812,-0.53125 -2.54297,-1.20703 -3.64062,-2.09766 -1.10938,-0.89843 -2.07813,-2.0039 -2.90235,-3.375 -0.79687,-1.32031 -1.45312,-2.89453 -1.89843,-4.53906 -0.42969,-1.59765 -0.67969,-3.28515 -0.67969,-4.91406 0,-1.71484 0.26953,-3.38672 0.87891,-5.03906 0.58984,-1.60938 1.50781,-3.17578 2.8125,-4.73828 1.33984,-1.60938 3.10937,-3.21094 5.21093,-4.53516 1.83985,-1.15625 3.94922,-2.11719 6.26563,-2.69531 2.55078,-0.63672 5.35937,-0.81641 8.05078,-0.50782 2.60937,0.30079 5.15234,1.06641 7.30859,2.33204 2.125,1.25 3.82813,2.94531 5.125,4.87109 1.41797,2.10156 2.37891,4.50391 2.91407,6.90234 0.48437,2.1836 0.62109,4.34375 0.46093,6.46485 -0.16797,2.23828 -0.66797,4.44922 -1.42578,6.58593 -0.75,2.13672 -1.77734,4.21485 -3.0625,6.10157 -1.21875,1.78125 -2.67969,3.39843 -4.375,4.73047 -1.6914,1.32421 -3.60156,2.35937 -5.62109,3.125 -2.15625,0.8125 -4.42969,1.32812 -6.69141,1.57812 -2.11719,0.23438 -4.24609,0.23828 -6.29687,0.0391 -2.12891,-0.20703 -4.17188,-0.64062 -6.02344,-1.2539 -1.85938,-0.625 -3.53125,-1.42578 -5.03906,-2.37891 -1.53125,-0.96484 -2.89063,-2.07031 -4.10938,-3.28906 -1.24219,-1.23828 -2.37109,-2.625 -3.33203,-4.31641 -0.125,-0.22265 -0.24609,-0.44922 -0.36719,-0.68359 -0.12109,0.23437 -0.24218,0.46094 -0.36718,0.68359 -0.95704,1.69141 -2.08985,3.07813 -3.33204,4.31641 -1.21875,1.21875 -2.57812,2.32422 -4.10937,3.28906 -1.50391,0.95313 -3.17578,1.75391 -5.03906,2.37891 -1.85157,0.61328 -3.89063,1.04687 -6.01953,1.2539 -2.05079,0.19922 -4.1836,0.19532 -6.30079,-0.0391 -2.26171,-0.25 -4.53125,-0.76562 -6.6875,-1.57812 -2.02343,-0.76563 -3.93359,-1.80079 -5.625,-3.125 -1.69531,-1.33204 -3.15625,-2.94922 -4.375,-4.73047 -1.28515,-1.88672 -2.30859,-3.96485 -3.0625,-6.10157 -0.75781,-2.13671 -1.25781,-4.34765 -1.42187,-6.58593 -0.16406,-2.1211 -0.0273,-4.28125 0.46094,-6.46485 0.53125,-2.39843 1.49218,-4.80078 2.91015,-6.90234 1.29688,-1.92578 3,-3.62109 5.12891,-4.87109 2.15234,-1.26563 4.69531,-2.03125 7.30469,-2.33204 2.69531,-0.30859 5.5039,-0.1289 8.05078,0.50782 2.32031,0.57812 4.42578,1.53906 6.26562,2.69531 2.10157,1.32422 3.8711,2.92578 5.21094,4.53516 1.30469,1.5625 2.22266,3.1289 2.8125,4.73828 0.60938,1.65234 0.87891,3.32422 0.87891,5.03906 0,1.62891 -0.25,3.31641 -0.67969,4.91406 -0.44531,1.64453 -1.10156,3.21875 -1.89844,4.53906 -0.82031,1.3711 -1.78906,2.47657 -2.90234,3.375 -1.09375,0.89063 -2.3125,1.56641 -3.64063,2.09766 -1.28125,0.50781 -2.70703,0.89844 -4.13281,1.12109 -1.40625,0.21875 -2.82812,0.27735 -4.12891,0.14844 -1.40234,-0.14062 -2.66406,-0.48828 -3.82031,-1.01953 -1.14453,-0.51953 -2.17187,-1.19922 -3.11719,-2.00781 -0.98828,-0.84766 -1.90625,-1.83985 -2.66015,-2.97656 -0.69531,-1.04688 -1.27735,-2.22657 -1.66406,-3.52344 -0.42969,-1.42578 -0.63282,-3.01563 -0.53516,-4.5625 0.0977,-1.47656 0.47656,-2.94922 1.19922,-4.25391 0.69531,-1.24609 1.68359,-2.28906 2.80078,-3.12109 1.22266,-0.91797 2.625,-1.59766 3.94141,-2.03516 1.19531,-0.39844 2.33984,-0.60547 3.39843,-0.64844 1.20313,-0.0508 2.32032,0.10547 3.29297,0.42969 1.03516,0.34375 1.88672,0.85156 2.59375,1.48047 0.69141,0.61328 1.24219,1.3125 1.69141,2.07031 0.48437,0.80469 0.88672,1.70703 1.11328,2.66016 0.20703,0.90234 0.26953,1.86328 0.10547,2.84375 -0.17578,1.05469 -0.625,2.11328 -1.24219,2.99219 -0.65625,0.91406 -1.54297,1.66797 -2.57812,2.07422 -0.95313,0.38281 -1.9375,0.4375 -2.82813,0.3125 -1.03516,-0.14454 -2.01562,-0.57032 -2.66406,-0.9961 -1.83985,-1.22265 -1.83985,-2.36328 -1.83985,-3.5 h 4.16407 l 0.48828,-0.73437 c -0.082,-0.16407 -0.0859,-0.25782 0.10156,-0.12891 0.0898,0.0586 0.26953,0.12891 0.49219,0.16016 l 0.14453,0.0156 c 0.0469,-0.0156 0.13281,-0.12109 0.24219,-0.26172 0.16797,-0.23437 0.28515,-0.51953 0.33203,-0.79687 0.043,-0.24219 0.0195,-0.51172 -0.0469,-0.78906 -0.0898,-0.39454 -0.26953,-0.78907 -0.48828,-1.15235 -0.20703,-0.33984 -0.42969,-0.63281 -0.66797,-0.83203 -0.22265,-0.19531 -0.47265,-0.35156 -0.75781,-0.44531 -0.38281,-0.125 -0.86719,-0.1875 -1.43359,-0.16406 -0.59375,0.0234 -1.26172,0.14843 -1.96875,0.38281 -0.82032,0.27344 -1.6875,0.6914 -2.4375,1.2539 -0.5625,0.42188 -1.04688,0.91797 -1.35938,1.47657 -0.3164,0.57422 -0.49219,1.28515 -0.53906,2.03906 -0.0586,0.91016 0.0664,1.86328 0.32812,2.73047 0.23047,0.77734 0.58204,1.48828 1.00782,2.12109 0.48828,0.73438 1.07031,1.36719 1.6914,1.89453 0.58594,0.50391 1.20703,0.92188 1.86719,1.21875 0.66016,0.29688 1.37891,0.4961 2.16797,0.57422 0.86719,0.0859 1.83594,0.043 2.80859,-0.10547 1.01563,-0.16015 2.04688,-0.4414 2.98438,-0.8164 0.85937,-0.34375 1.625,-0.76172 2.28125,-1.29688 0.64453,-0.52344 1.21484,-1.17578 1.70703,-1.99609 0.54297,-0.89844 1,-2.01172 1.32422,-3.20313 0.3125,-1.15625 0.48828,-2.38281 0.48828,-3.55859 0,-1.12891 -0.16797,-2.19922 -0.54297,-3.23047 -0.39844,-1.07422 -1.01953,-2.13281 -1.91016,-3.19922 -1.0039,-1.20703 -2.35156,-2.42578 -3.97656,-3.44531 -1.38672,-0.875 -2.98047,-1.60156 -4.74219,-2.03906 -1.94921,-0.48438 -4.10546,-0.6211 -6.17578,-0.38282 -1.92968,0.21875 -3.76562,0.76172 -5.25,1.63282 -1.38672,0.8125 -2.52343,1.96093 -3.41797,3.28906 -1.04687,1.55078 -1.75781,3.32422 -2.14843,5.09375 -0.36719,1.63281 -0.46485,3.29297 -0.33985,4.94531 0.13282,1.76953 0.53125,3.52735 1.13282,5.23047 0.60937,1.72266 1.42578,3.39063 2.44921,4.88672 0.92188,1.35156 2.02344,2.57031 3.28516,3.55859 1.25391,0.98438 2.69922,1.76563 4.24219,2.35547 1.71484,0.64453 3.55078,1.0625 5.39453,1.26563 1.76953,0.19531 3.53125,0.19922 5.21484,0.0352 1.72266,-0.16797 3.3711,-0.51172 4.86719,-1.00781 1.42188,-0.47266 2.71875,-1.09766 3.89844,-1.84375 1.15234,-0.72266 2.21094,-1.59375 3.1875,-2.56641 0.94922,-0.94921 1.80078,-1.98046 2.48437,-3.1914 0.69141,-1.22266 1.25391,-2.67578 1.63282,-4.46875 0.42187,-1.9961 0.61718,-4.39063 0.50781,-6.82422 -0.0977,-2.16797 -0.44141,-4.34766 -1.08203,-6.27344 -0.67578,-2.01172 -1.69532,-3.80078 -2.85938,-5.375 -1.19922,-1.62109 -2.57031,-3.03906 -3.89453,-4.26172 -1.60937,-1.48047 -3.16406,-2.6875 -4.69922,-3.76953 l -0.0195,-0.0156 -0.0469,-0.0312 -0.0195,-0.0156 c -0.4414,-0.30078 -0.92968,-0.59375 -2.21875,-0.76172 -1.37109,-0.17578 -3.64843,-0.20703 -7.20312,-0.22656 -3.55078,-0.0156 -8.38281,-0.0156 -12.11328,0.20703 -3.73047,0.21485 -6.36719,0.65625 -9,1.09375 0,-3.94531 0,-7.88672 0,-11.83203 2.63281,0.4375 5.26953,0.875 9,1.3125 3.73047,0.4375 8.5625,0.87891 12.01562,0.82813 3.45313,-0.0508 5.53125,-0.58594 7.61328,-1.1211 2.17969,-1.46094 4.37891,-3.00781 6.69141,-5.14062 1.32422,-1.22266 2.69531,-2.64063 3.89453,-4.25782 1.16406,-1.57812 2.1836,-3.36718 2.85938,-5.3789 0.64062,-1.92578 0.98437,-4.10547 1.08203,-6.26953 0.10937,-2.4375 -0.0859,-4.83203 -0.50781,-6.82422 -0.37891,-1.79688 -0.94141,-3.2461 -1.63282,-4.47266 -0.68359,-1.20703 -1.53515,-2.24219 -2.48437,-3.1875 -0.97656,-0.97656 -2.03516,-1.84375 -3.1875,-2.57031 -1.17969,-0.74609 -2.47656,-1.37109 -3.89844,-1.83984 -1.49609,-0.5 -3.14453,-0.84375 -4.86719,-1.01172 -1.68359,-0.16407 -3.44531,-0.16016 -5.21484,0.0352 -1.84375,0.20703 -3.67969,0.6211 -5.39453,1.26953 -1.54297,0.58594 -2.98828,1.36719 -4.24219,2.35157 -1.26172,0.98828 -2.36328,2.20703 -3.28516,3.55859 -1.02343,1.49609 -1.83984,3.16406 -2.44921,4.88672 -0.60157,1.70703 -1,3.46484 -1.13282,5.23437 -0.125,1.65235 -0.0273,3.3086 0.33985,4.94532 0.39062,1.76953 1.10156,3.53906 2.14843,5.08984 0.89454,1.32813 2.03125,2.47656 3.41797,3.29297 1.48438,0.86719 3.32032,1.41016 5.25,1.62891 2.07032,0.23828 4.22657,0.10156 6.17578,-0.38282 1.76172,-0.4375 3.35547,-1.16406 4.74219,-2.03515 1.625,-1.02344 2.97266,-2.23828 3.97656,-3.44532 0.89063,-1.0664 1.51172,-2.1289 1.91016,-3.20312 0.375,-1.02734 0.54297,-2.10156 0.54297,-3.23047 0,-1.17578 -0.17578,-2.40234 -0.48828,-3.55469 -0.32422,-1.19531 -0.78125,-2.30468 -1.32422,-3.20703 -0.49219,-0.8164 -1.0625,-1.47265 -1.70703,-1.99609 -0.65625,-0.53125 -1.42188,-0.95313 -2.28125,-1.29688 -0.9375,-0.375 -1.96875,-0.65625 -2.98438,-0.8125 -0.97265,-0.15234 -1.9414,-0.19531 -2.80859,-0.10937 -0.78906,0.0781 -1.50781,0.27734 -2.16797,0.57812 -0.66016,0.29688 -1.28125,0.71485 -1.86719,1.21485 -0.62109,0.53125 -1.20312,1.16406 -1.6914,1.89843 -0.42578,0.62891 -0.77735,1.33985 -1.00782,2.11719 -0.26171,0.8711 -0.38671,1.82422 -0.32812,2.73438 0.0469,0.75 0.22266,1.46093 0.53906,2.03515 0.3125,0.5586 0.79688,1.0586 1.35938,1.47657 0.75,0.5625 1.61718,0.98437 2.4375,1.25781 0.70703,0.23437 1.375,0.35547 1.96875,0.38281 0.5664,0.0195 1.05078,-0.0391 1.43359,-0.16797 0.28516,-0.0937 0.53516,-0.24609 0.75781,-0.4414 0.23828,-0.20313 0.46094,-0.49219 0.66797,-0.83594 0.21875,-0.35938 0.39844,-0.75781 0.48828,-1.15235 0.0664,-0.27734 0.0898,-0.54296 0.0469,-0.78515 -0.0469,-0.27735 -0.16406,-0.56641 -0.33203,-0.80078 -0.10938,-0.14063 -0.19532,-0.24219 -0.24219,-0.26172 l -0.14453,0.0156 c -0.22266,0.0352 -0.40235,0.10157 -0.49219,0.16407 -0.1875,0.1289 -0.18359,0.0352 -0.10156,-0.12891 l -0.48828,-0.73438 h -4.16407 c 0,-1.14062 0,-2.28125 1.83985,-3.5039 0.64844,-0.42188 1.6289,-0.84766 2.66406,-0.99219 0.89063,-0.12891 1.875,-0.0742 2.82813,0.30859 1.03515,0.41016 1.92187,1.16407 2.57812,2.07422 0.61719,0.87891 1.06641,1.9375 1.24219,2.9961 0.16406,0.98047 0.10156,1.9375 -0.10547,2.83984 -0.22656,0.95313 -0.62891,1.85938 -1.11328,2.66406 -0.44922,0.75391 -1,1.45703 -1.69141,2.06641 -0.70703,0.63281 -1.55859,1.13672 -2.59375,1.48047 -0.97265,0.32422 -2.08984,0.48047 -3.29297,0.42969 -1.05859,-0.043 -2.20312,-0.25 -3.39843,-0.64844 -1.31641,-0.4375 -2.71875,-1.11719 -3.94141,-2.03516 -1.11719,-0.82812 -2.10547,-1.87109 -2.80078,-3.12109 -0.72266,-1.30469 -1.10156,-2.77344 -1.19922,-4.25391 -0.0977,-1.54687 0.10547,-3.13672 0.53516,-4.5625 0.38671,-1.29687 0.96875,-2.47265 1.66406,-3.52344 0.7539,-1.13671 1.67187,-2.125 2.66015,-2.97656 0.94532,-0.80859 1.97266,-1.48828 3.11719,-2.00781 1.15625,-0.52734 2.41797,-0.87891 3.82031,-1.01953 1.30079,-0.125 2.72266,-0.0664 4.12891,0.14844 1.42578,0.22265 2.85156,0.61328 4.13281,1.125 1.32813,0.53125 2.54688,1.20312 3.64063,2.09765 1.11328,0.89844 2.08203,2.00391 2.90234,3.3711 0.79688,1.32421 1.45313,2.89453 1.89844,4.53906 0.42969,1.59765 0.67969,3.28906 0.67969,4.91406 0,1.71875 -0.26953,3.38672 -0.87891,5.03906 -0.58984,1.60938 -1.50781,3.17969 -2.8125,4.74219 -1.33984,1.60547 -3.10937,3.21094 -5.21094,4.53516 -1.83984,1.15625 -3.94531,2.11718 -6.26562,2.6914 -2.54688,0.63672 -5.35547,0.81641 -8.05078,0.50782 -2.60938,-0.29688 -5.15235,-1.06641 -7.30469,-2.33204 -2.12891,-1.24609 -3.83203,-2.94531 -5.12891,-4.87109 -1.41797,-2.09766 -2.3789,-4.5 -2.91015,-6.89844 -0.48828,-2.18359 -0.625,-4.34765 -0.46094,-6.46484 0.16406,-2.23828 0.66406,-4.45313 1.42187,-6.58594 0.75391,-2.13672 1.77735,-4.21875 3.0625,-6.10156 1.21875,-1.78516 2.67969,-3.40234 4.375,-4.73047 1.69141,-1.32812 3.60157,-2.36328 5.625,-3.12891 2.15625,-0.8125 4.42579,-1.32812 6.6875,-1.57812 2.11719,-0.23438 4.25,-0.23828 6.30079,-0.0391 2.1289,0.21093 4.16796,0.64062 6.01953,1.25781 z m 13.05078,43.13281 c 5.53906,0 10.02734,3.22266 10.02734,7.19922 0,3.97656 -4.48828,7.19922 -10.02734,7.19922 -5.53906,0 -10.02735,-3.22266 -10.02735,-7.19922 0,-3.97656 4.48829,-7.19922 10.02735,-7.19922 z m 0,0"
       fill-opacity="1"
       fill-rule="evenodd"
       id="path4" />
  </g>
</svg>
