<svg xmlns="http://www.w3.org/2000/svg" xmlns:xlink="http://www.w3.org/1999/xlink" width="500" zoomAndPan="magnify" viewBox="0 0 375 374.999991" height="500" preserveAspectRatio="xMidYMid meet" version="1.0"><defs><clipPath id="a8f67be598"><path d="M 112.5 112.5 L 262.5 112.5 L 262.5 262.5 L 112.5 262.5 Z M 112.5 112.5 " clip-rule="nonzero"/></clipPath><clipPath id="e66d8e67f7"><path d="M 141.089844 136.5 L 234 136.5 L 234 238.5 L 141.089844 238.5 Z M 141.089844 136.5 " clip-rule="nonzero"/></clipPath></defs><g clip-path="url(#a8f67be598)"><path fill="#65934b" d="M 262.5 187.5 C 262.5 188.726562 262.46875 189.953125 262.410156 191.179688 C 262.347656 192.40625 262.257812 193.628906 262.140625 194.851562 C 262.019531 196.074219 261.867188 197.289062 261.6875 198.503906 C 261.507812 199.71875 261.296875 200.929688 261.058594 202.132812 C 260.820312 203.335938 260.550781 204.53125 260.253906 205.722656 C 259.953125 206.914062 259.625 208.097656 259.269531 209.269531 C 258.914062 210.445312 258.527344 211.609375 258.117188 212.765625 C 257.703125 213.921875 257.261719 215.066406 256.789062 216.203125 C 256.320312 217.335938 255.824219 218.457031 255.300781 219.566406 C 254.773438 220.675781 254.222656 221.773438 253.644531 222.855469 C 253.066406 223.9375 252.460938 225.003906 251.828125 226.058594 C 251.199219 227.109375 250.542969 228.148438 249.859375 229.167969 C 249.179688 230.1875 248.472656 231.191406 247.742188 232.175781 C 247.007812 233.164062 246.253906 234.128906 245.476562 235.078125 C 244.695312 236.027344 243.894531 236.957031 243.070312 237.867188 C 242.246094 238.777344 241.402344 239.664062 240.53125 240.53125 C 239.664062 241.402344 238.777344 242.246094 237.867188 243.070312 C 236.957031 243.894531 236.027344 244.695312 235.078125 245.476562 C 234.128906 246.253906 233.164062 247.007812 232.175781 247.742188 C 231.191406 248.472656 230.1875 249.179688 229.167969 249.859375 C 228.148438 250.542969 227.109375 251.199219 226.058594 251.828125 C 225.003906 252.460938 223.9375 253.066406 222.855469 253.644531 C 221.773438 254.222656 220.675781 254.773438 219.566406 255.300781 C 218.457031 255.824219 217.335938 256.320312 216.203125 256.789062 C 215.066406 257.261719 213.921875 257.703125 212.765625 258.117188 C 211.609375 258.527344 210.445312 258.914062 209.269531 259.269531 C 208.097656 259.625 206.914062 259.953125 205.722656 260.253906 C 204.53125 260.550781 203.335938 260.820312 202.132812 261.058594 C 200.929688 261.296875 199.71875 261.507812 198.503906 261.6875 C 197.289062 261.867188 196.074219 262.019531 194.851562 262.140625 C 193.628906 262.257812 192.40625 262.347656 191.179688 262.410156 C 189.953125 262.46875 188.726562 262.5 187.5 262.5 C 186.273438 262.5 185.046875 262.46875 183.820312 262.410156 C 182.59375 262.347656 181.371094 262.257812 180.148438 262.140625 C 178.925781 262.019531 177.710938 261.867188 176.496094 261.6875 C 175.28125 261.507812 174.070312 261.296875 172.867188 261.058594 C 171.664062 260.820312 170.46875 260.550781 169.277344 260.253906 C 168.085938 259.953125 166.902344 259.625 165.730469 259.269531 C 164.554688 258.914062 163.390625 258.527344 162.234375 258.117188 C 161.078125 257.703125 159.933594 257.261719 158.796875 256.789062 C 157.664062 256.320312 156.542969 255.824219 155.433594 255.300781 C 154.324219 254.773438 153.226562 254.222656 152.144531 253.644531 C 151.0625 253.066406 149.996094 252.460938 148.941406 251.828125 C 147.890625 251.199219 146.851562 250.542969 145.832031 249.859375 C 144.8125 249.179688 143.808594 248.472656 142.824219 247.742188 C 141.835938 247.007812 140.871094 246.253906 139.921875 245.476562 C 138.972656 244.695312 138.042969 243.894531 137.132812 243.070312 C 136.222656 242.246094 135.335938 241.402344 134.46875 240.53125 C 133.597656 239.664062 132.753906 238.777344 131.929688 237.867188 C 131.105469 236.957031 130.304688 236.027344 129.523438 235.078125 C 128.746094 234.128906 127.992188 233.164062 127.257812 232.175781 C 126.527344 231.191406 125.820312 230.1875 125.140625 229.167969 C 124.457031 228.148438 123.800781 227.109375 123.171875 226.058594 C 122.539062 225.003906 121.933594 223.9375 121.355469 222.855469 C 120.777344 221.773438 120.226562 220.675781 119.699219 219.566406 C 119.175781 218.457031 118.679688 217.335938 118.210938 216.203125 C 117.738281 215.066406 117.296875 213.921875 116.882812 212.765625 C 116.46875 211.609375 116.085938 210.445312 115.730469 209.269531 C 115.375 208.097656 115.046875 206.914062 114.746094 205.722656 C 114.449219 204.53125 114.179688 203.335938 113.941406 202.132812 C 113.703125 200.929688 113.492188 199.71875 113.3125 198.503906 C 113.132812 197.289062 112.980469 196.074219 112.859375 194.851562 C 112.742188 193.628906 112.652344 192.40625 112.589844 191.179688 C 112.53125 189.953125 112.5 188.726562 112.5 187.5 C 112.5 186.273438 112.53125 185.046875 112.589844 183.820312 C 112.652344 182.59375 112.742188 181.371094 112.859375 180.148438 C 112.980469 178.925781 113.132812 177.710938 113.3125 176.496094 C 113.492188 175.28125 113.703125 174.070312 113.941406 172.867188 C 114.179688 171.664062 114.449219 170.46875 114.746094 169.277344 C 115.046875 168.085938 115.375 166.902344 115.730469 165.730469 C 116.085938 164.554688 116.46875 163.390625 116.882812 162.234375 C 117.296875 161.078125 117.738281 159.933594 118.210938 158.796875 C 118.679688 157.664062 119.175781 156.542969 119.699219 155.433594 C 120.226562 154.324219 120.777344 153.226562 121.355469 152.144531 C 121.933594 151.0625 122.539062 149.996094 123.171875 148.941406 C 123.800781 147.890625 124.457031 146.851562 125.140625 145.832031 C 125.820312 144.8125 126.527344 143.808594 127.257812 142.824219 C 127.992188 141.835938 128.746094 140.871094 129.523438 139.921875 C 130.304688 138.972656 131.105469 138.042969 131.929688 137.132812 C 132.753906 136.222656 133.597656 135.335938 134.46875 134.46875 C 135.335938 133.597656 136.222656 132.753906 137.132812 131.929688 C 138.042969 131.105469 138.972656 130.304688 139.921875 129.523438 C 140.871094 128.746094 141.835938 127.992188 142.824219 127.257812 C 143.808594 126.527344 144.8125 125.820312 145.832031 125.140625 C 146.851562 124.457031 147.890625 123.800781 148.941406 123.171875 C 149.996094 122.539062 151.0625 121.933594 152.144531 121.355469 C 153.226562 120.777344 154.324219 120.226562 155.433594 119.699219 C 156.542969 119.175781 157.664062 118.679688 158.796875 118.210938 C 159.933594 117.738281 161.078125 117.296875 162.234375 116.882812 C 163.390625 116.46875 164.554688 116.085938 165.730469 115.730469 C 166.902344 115.375 168.085938 115.046875 169.277344 114.746094 C 170.46875 114.449219 171.664062 114.179688 172.867188 113.941406 C 174.070312 113.703125 175.28125 113.492188 176.496094 113.3125 C 177.710938 113.132812 178.925781 112.980469 180.148438 112.859375 C 181.371094 112.742188 182.59375 112.652344 183.820312 112.589844 C 185.046875 112.53125 186.273438 112.5 187.5 112.5 C 188.726562 112.5 189.953125 112.53125 191.179688 112.589844 C 192.40625 112.652344 193.628906 112.742188 194.851562 112.859375 C 196.074219 112.980469 197.289062 113.132812 198.503906 113.3125 C 199.71875 113.492188 200.929688 113.703125 202.132812 113.941406 C 203.335938 114.179688 204.53125 114.449219 205.722656 114.746094 C 206.914062 115.046875 208.097656 115.375 209.269531 115.730469 C 210.445312 116.085938 211.609375 116.46875 212.765625 116.882812 C 213.921875 117.296875 215.066406 117.738281 216.203125 118.210938 C 217.335938 118.679688 218.457031 119.175781 219.566406 119.699219 C 220.675781 120.226562 221.773438 120.777344 222.855469 121.355469 C 223.9375 121.933594 225.003906 122.539062 226.058594 123.171875 C 227.109375 123.800781 228.148438 124.457031 229.167969 125.140625 C 230.1875 125.820312 231.191406 126.527344 232.175781 127.257812 C 233.164062 127.992188 234.128906 128.746094 235.078125 129.523438 C 236.027344 130.304688 236.957031 131.105469 237.867188 131.929688 C 238.777344 132.753906 239.664062 133.597656 240.53125 134.46875 C 241.402344 135.335938 242.246094 136.222656 243.070312 137.132812 C 243.894531 138.042969 244.695312 138.972656 245.476562 139.921875 C 246.253906 140.871094 247.007812 141.835938 247.742188 142.824219 C 248.472656 143.808594 249.179688 144.8125 249.859375 145.832031 C 250.542969 146.851562 251.199219 147.890625 251.828125 148.941406 C 252.460938 149.996094 253.066406 151.0625 253.644531 152.144531 C 254.222656 153.226562 254.773438 154.324219 255.300781 155.433594 C 255.824219 156.542969 256.320312 157.664062 256.789062 158.796875 C 257.261719 159.933594 257.703125 161.078125 258.117188 162.234375 C 258.527344 163.390625 258.914062 164.554688 259.269531 165.730469 C 259.625 166.902344 259.953125 168.085938 260.253906 169.277344 C 260.550781 170.46875 260.820312 171.664062 261.058594 172.867188 C 261.296875 174.070312 261.507812 175.28125 261.6875 176.496094 C 261.867188 177.710938 262.019531 178.925781 262.140625 180.148438 C 262.257812 181.371094 262.347656 182.59375 262.410156 183.820312 C 262.46875 185.046875 262.5 186.273438 262.5 187.5 Z M 262.5 187.5 " fill-opacity="1" fill-rule="nonzero"/></g><g clip-path="url(#e66d8e67f7)"><path fill="#000000" d="M 174.742188 138 C 176.605469 138.621094 178.277344 139.421875 179.78125 140.375 C 181.3125 141.339844 182.671875 142.449219 183.890625 143.664062 C 185.132812 144.902344 186.265625 146.289062 187.222656 147.980469 C 187.347656 148.203125 187.46875 148.429688 187.589844 148.664062 C 187.710938 148.429688 187.832031 148.203125 187.957031 147.980469 C 188.917969 146.289062 190.046875 144.902344 191.289062 143.664062 C 192.507812 142.449219 193.867188 141.339844 195.398438 140.375 C 196.90625 139.421875 198.578125 138.621094 200.4375 138 C 202.289062 137.382812 204.332031 136.953125 206.460938 136.742188 C 208.511719 136.542969 210.640625 136.546875 212.757812 136.78125 C 215.019531 137.03125 217.292969 137.546875 219.449219 138.359375 C 221.46875 139.125 223.378906 140.160156 225.070312 141.488281 C 226.765625 142.816406 228.226562 144.433594 229.445312 146.21875 C 230.730469 148.101562 231.757812 150.183594 232.507812 152.320312 C 233.265625 154.453125 233.765625 156.667969 233.933594 158.90625 C 234.09375 161.023438 233.957031 163.1875 233.472656 165.371094 C 232.9375 167.769531 231.976562 170.171875 230.558594 172.269531 C 229.261719 174.195312 227.558594 175.894531 225.433594 177.140625 C 223.277344 178.40625 220.734375 179.175781 218.125 179.472656 C 215.433594 179.78125 212.625 179.601562 210.074219 178.964844 C 207.757812 178.390625 205.648438 177.429688 203.808594 176.273438 C 201.707031 174.949219 199.9375 173.34375 198.597656 171.738281 C 197.292969 170.175781 196.375 168.605469 195.785156 166.996094 C 195.175781 165.34375 194.90625 163.675781 194.90625 161.957031 C 194.90625 160.332031 195.15625 158.640625 195.585938 157.042969 C 196.03125 155.398438 196.6875 153.828125 197.484375 152.503906 C 198.308594 151.136719 199.277344 150.03125 200.386719 149.132812 C 201.484375 148.238281 202.699219 147.566406 204.027344 147.035156 C 205.308594 146.523438 206.734375 146.132812 208.164062 145.910156 C 209.566406 145.695312 210.988281 145.636719 212.289062 145.761719 C 213.691406 145.902344 214.953125 146.253906 216.113281 146.78125 C 217.253906 147.300781 218.28125 147.980469 219.226562 148.789062 C 220.21875 149.640625 221.132812 150.628906 221.886719 151.765625 C 222.582031 152.816406 223.164062 153.992188 223.550781 155.289062 C 223.980469 156.714844 224.183594 158.304688 224.085938 159.851562 C 223.988281 161.332031 223.613281 162.800781 222.886719 164.105469 C 222.191406 165.355469 221.203125 166.398438 220.089844 167.226562 C 218.863281 168.144531 217.460938 168.824219 216.144531 169.261719 C 214.949219 169.660156 213.808594 169.867188 212.746094 169.910156 C 211.542969 169.960938 210.429688 169.804688 209.453125 169.480469 C 208.417969 169.136719 207.566406 168.632812 206.859375 168 C 206.167969 167.390625 205.617188 166.6875 205.167969 165.933594 C 204.683594 165.128906 204.285156 164.222656 204.058594 163.269531 C 203.847656 162.367188 203.785156 161.410156 203.949219 160.429688 C 204.125 159.371094 204.574219 158.3125 205.191406 157.433594 C 205.847656 156.523438 206.734375 155.769531 207.769531 155.359375 C 208.722656 154.976562 209.707031 154.921875 210.597656 155.050781 C 211.632812 155.195312 212.613281 155.621094 213.261719 156.042969 C 215.101562 157.265625 215.105469 158.40625 215.105469 159.546875 L 210.9375 159.546875 L 210.449219 160.28125 C 210.53125 160.445312 210.535156 160.539062 210.347656 160.410156 C 210.257812 160.347656 210.078125 160.28125 209.855469 160.246094 L 209.710938 160.230469 C 209.664062 160.25 209.578125 160.351562 209.46875 160.492188 C 209.300781 160.726562 209.183594 161.015625 209.136719 161.292969 C 209.09375 161.535156 209.117188 161.800781 209.183594 162.078125 C 209.277344 162.472656 209.453125 162.871094 209.675781 163.230469 C 209.878906 163.574219 210.101562 163.863281 210.339844 164.066406 C 210.5625 164.261719 210.816406 164.414062 211.097656 164.507812 C 211.480469 164.636719 211.964844 164.695312 212.53125 164.675781 C 213.125 164.648438 213.792969 164.527344 214.5 164.292969 C 215.320312 164.019531 216.1875 163.597656 216.941406 163.035156 C 217.5 162.617188 217.988281 162.117188 218.296875 161.558594 C 218.613281 160.984375 218.789062 160.273438 218.835938 159.523438 C 218.894531 158.613281 218.769531 157.660156 218.507812 156.789062 C 218.277344 156.011719 217.925781 155.300781 217.503906 154.671875 C 217.011719 153.9375 216.429688 153.304688 215.8125 152.773438 C 215.222656 152.273438 214.601562 151.855469 213.941406 151.558594 C 213.28125 151.257812 212.5625 151.058594 211.773438 150.980469 C 210.910156 150.894531 209.9375 150.9375 208.964844 151.089844 C 207.949219 151.246094 206.917969 151.527344 205.984375 151.902344 C 205.121094 152.246094 204.355469 152.667969 203.699219 153.199219 C 203.054688 153.722656 202.484375 154.378906 201.992188 155.195312 C 201.453125 156.097656 200.992188 157.207031 200.667969 158.402344 C 200.359375 159.554688 200.179688 160.78125 200.179688 161.957031 C 200.179688 163.085938 200.347656 164.160156 200.726562 165.1875 C 201.121094 166.261719 201.746094 167.324219 202.632812 168.390625 C 203.636719 169.597656 204.988281 170.8125 206.609375 171.835938 C 207.996094 172.707031 209.589844 173.433594 211.351562 173.871094 C 213.300781 174.355469 215.457031 174.492188 217.527344 174.253906 C 219.460938 174.035156 221.292969 173.492188 222.777344 172.625 C 224.164062 171.808594 225.300781 170.660156 226.199219 169.332031 C 227.246094 167.78125 227.953125 166.011719 228.347656 164.242188 C 228.710938 162.605469 228.808594 160.949219 228.683594 159.296875 C 228.550781 157.527344 228.152344 155.769531 227.550781 154.0625 C 226.941406 152.339844 226.125 150.671875 225.101562 149.175781 C 224.179688 147.824219 223.082031 146.605469 221.816406 145.617188 C 220.5625 144.632812 219.117188 143.851562 217.574219 143.265625 C 215.859375 142.617188 214.023438 142.203125 212.179688 141.996094 C 210.410156 141.800781 208.648438 141.796875 206.964844 141.960938 C 205.242188 142.128906 203.597656 142.472656 202.097656 142.972656 C 200.675781 143.441406 199.382812 144.066406 198.199219 144.8125 C 197.046875 145.539062 195.988281 146.40625 195.015625 147.382812 C 194.066406 148.328125 193.214844 149.363281 192.527344 150.570312 C 191.835938 151.796875 191.273438 153.246094 190.894531 155.042969 C 190.476562 157.035156 190.277344 159.429688 190.386719 161.867188 C 190.484375 164.03125 190.828125 166.210938 191.472656 168.136719 C 192.144531 170.148438 193.164062 171.9375 194.328125 173.515625 C 195.527344 175.132812 196.898438 176.550781 198.222656 177.773438 C 200.617188 179.976562 202.886719 181.5625 205.140625 183.066406 C 207.035156 183.546875 209.035156 183.992188 212.160156 184.035156 C 215.617188 184.085938 220.445312 183.644531 224.175781 183.207031 C 227.90625 182.769531 230.542969 182.332031 233.175781 181.894531 C 233.175781 185.839844 233.175781 189.78125 233.175781 193.726562 C 230.542969 193.289062 227.90625 192.847656 224.175781 192.632812 C 220.445312 192.410156 215.617188 192.410156 212.0625 192.425781 C 208.507812 192.445312 206.230469 192.476562 204.859375 192.652344 C 204.429688 192.707031 204.085938 192.78125 203.808594 192.859375 C 201.988281 194.109375 200.144531 195.476562 198.222656 197.246094 C 196.898438 198.46875 195.527344 199.886719 194.328125 201.507812 C 193.164062 203.082031 192.144531 204.871094 191.472656 206.882812 C 190.828125 208.808594 190.484375 210.988281 190.386719 213.15625 C 190.277344 215.589844 190.476562 217.984375 190.894531 219.980469 C 191.273438 221.773438 191.835938 223.226562 192.527344 224.449219 C 193.214844 225.660156 194.066406 226.691406 195.015625 227.640625 C 195.988281 228.613281 197.046875 229.484375 198.199219 230.207031 C 199.382812 230.953125 200.675781 231.578125 202.097656 232.050781 C 203.597656 232.546875 205.242188 232.890625 206.964844 233.058594 C 208.648438 233.222656 210.410156 233.21875 212.179688 233.023438 C 214.023438 232.820312 215.859375 232.402344 217.574219 231.757812 C 219.117188 231.167969 220.5625 230.386719 221.816406 229.402344 C 223.082031 228.414062 224.179688 227.195312 225.101562 225.84375 C 226.125 224.347656 226.941406 222.679688 227.550781 220.957031 C 228.152344 219.253906 228.550781 217.496094 228.683594 215.726562 C 228.808594 214.074219 228.710938 212.414062 228.347656 210.78125 C 227.953125 209.011719 227.246094 207.238281 226.199219 205.6875 C 225.300781 204.359375 224.164062 203.210938 222.777344 202.398438 C 221.292969 201.527344 219.460938 200.984375 217.527344 200.765625 C 215.457031 200.527344 213.300781 200.664062 211.351562 201.148438 C 209.589844 201.585938 207.996094 202.3125 206.609375 203.1875 C 204.988281 204.207031 203.636719 205.425781 202.632812 206.632812 C 201.746094 207.699219 201.121094 208.757812 200.726562 209.832031 C 200.347656 210.863281 200.179688 211.933594 200.179688 213.0625 C 200.179688 214.238281 200.359375 215.464844 200.667969 216.621094 C 200.992188 217.8125 201.453125 218.925781 201.992188 219.824219 C 202.484375 220.644531 203.054688 221.296875 203.699219 221.820312 C 204.355469 222.355469 205.121094 222.773438 205.984375 223.117188 C 206.917969 223.492188 207.949219 223.773438 208.964844 223.933594 C 209.9375 224.082031 210.910156 224.125 211.773438 224.039062 C 212.5625 223.960938 213.28125 223.761719 213.941406 223.464844 C 214.601562 223.167969 215.222656 222.75 215.8125 222.246094 C 216.429688 221.71875 217.011719 221.085938 217.503906 220.351562 C 217.925781 219.71875 218.277344 219.007812 218.507812 218.230469 C 218.769531 217.363281 218.894531 216.410156 218.835938 215.5 C 218.789062 214.746094 218.613281 214.035156 218.296875 213.460938 C 217.988281 212.902344 217.5 212.40625 216.941406 211.984375 C 216.1875 211.421875 215.320312 211.003906 214.5 210.730469 C 213.792969 210.496094 213.125 210.371094 212.53125 210.347656 C 211.964844 210.324219 211.480469 210.386719 211.097656 210.511719 C 210.816406 210.605469 210.5625 210.761719 210.339844 210.957031 C 210.101562 211.15625 209.878906 211.449219 209.675781 211.789062 C 209.453125 212.152344 209.277344 212.546875 209.183594 212.941406 C 209.117188 213.21875 209.09375 213.488281 209.136719 213.730469 C 209.183594 214.007812 209.300781 214.292969 209.46875 214.527344 C 209.578125 214.667969 209.664062 214.773438 209.710938 214.789062 L 209.855469 214.773438 C 210.078125 214.742188 210.257812 214.671875 210.347656 214.613281 C 210.535156 214.484375 210.53125 214.578125 210.449219 214.742188 L 210.9375 215.476562 L 215.105469 215.476562 C 215.105469 216.613281 215.101562 217.753906 213.261719 218.976562 C 212.613281 219.402344 211.632812 219.828125 210.597656 219.972656 C 209.707031 220.097656 208.722656 220.042969 207.769531 219.660156 C 206.734375 219.253906 205.847656 218.5 205.191406 217.585938 C 204.574219 216.707031 204.125 215.648438 203.949219 214.59375 C 203.785156 213.613281 203.847656 212.652344 204.058594 211.75 C 204.285156 210.796875 204.683594 209.894531 205.167969 209.089844 C 205.617188 208.332031 206.167969 207.632812 206.859375 207.019531 C 207.566406 206.390625 208.417969 205.882812 209.453125 205.539062 C 210.429688 205.214844 211.546875 205.058594 212.746094 205.109375 C 213.808594 205.152344 214.949219 205.359375 216.144531 205.757812 C 217.460938 206.195312 218.863281 206.875 220.089844 207.792969 C 221.203125 208.625 222.191406 209.667969 222.886719 210.914062 C 223.613281 212.21875 223.988281 213.691406 224.085938 215.167969 C 224.183594 216.714844 223.980469 218.304688 223.550781 219.730469 C 223.164062 221.027344 222.582031 222.207031 221.886719 223.253906 C 221.132812 224.390625 220.21875 225.382812 219.226562 226.230469 C 218.28125 227.039062 217.253906 227.71875 216.113281 228.238281 C 214.953125 228.769531 213.691406 229.117188 212.289062 229.257812 C 210.988281 229.386719 209.566406 229.328125 208.164062 229.109375 C 206.734375 228.886719 205.308594 228.496094 204.027344 227.988281 C 202.699219 227.457031 201.484375 226.78125 200.386719 225.890625 C 199.277344 224.992188 198.308594 223.886719 197.484375 222.515625 C 196.6875 221.195312 196.03125 219.621094 195.585938 217.976562 C 195.15625 216.378906 194.90625 214.691406 194.90625 213.0625 C 194.90625 211.347656 195.175781 209.675781 195.785156 208.023438 C 196.375 206.414062 197.292969 204.847656 198.597656 203.285156 C 199.9375 201.675781 201.707031 200.074219 203.808594 198.75 C 205.648438 197.59375 207.757812 196.632812 210.074219 196.054688 C 212.625 195.417969 215.433594 195.238281 218.125 195.546875 C 220.734375 195.847656 223.277344 196.613281 225.433594 197.878906 C 227.558594 199.128906 229.261719 200.824219 230.558594 202.75 C 231.976562 204.851562 232.9375 207.253906 233.472656 209.652344 C 233.957031 211.835938 234.09375 213.996094 233.933594 216.117188 C 233.765625 218.355469 233.265625 220.566406 232.507812 222.703125 C 231.757812 224.839844 230.730469 226.917969 229.445312 228.804688 C 228.226562 230.585938 226.765625 232.203125 225.070312 233.535156 C 223.378906 234.859375 221.46875 235.894531 219.449219 236.660156 C 217.292969 237.472656 215.019531 237.988281 212.757812 238.238281 C 210.640625 238.472656 208.511719 238.476562 206.460938 238.277344 C 204.332031 238.070312 202.289062 237.636719 200.4375 237.023438 C 198.578125 236.398438 196.90625 235.597656 195.398438 234.644531 C 193.867188 233.679688 192.507812 232.574219 191.289062 231.355469 C 190.046875 230.117188 188.917969 228.730469 187.957031 227.039062 C 187.832031 226.816406 187.710938 226.589844 187.589844 226.355469 C 187.46875 226.589844 187.347656 226.816406 187.222656 227.039062 C 186.265625 228.730469 185.132812 230.117188 183.890625 231.355469 C 182.671875 232.574219 181.3125 233.679688 179.78125 234.644531 C 178.277344 235.597656 176.605469 236.398438 174.742188 237.023438 C 172.890625 237.636719 170.851562 238.070312 168.722656 238.277344 C 166.671875 238.476562 164.539062 238.472656 162.421875 238.238281 C 160.160156 237.988281 157.890625 237.472656 155.734375 236.660156 C 153.710938 235.894531 151.800781 234.859375 150.109375 233.535156 C 148.414062 232.203125 146.953125 230.585938 145.734375 228.804688 C 144.449219 226.917969 143.425781 224.839844 142.671875 222.703125 C 141.914062 220.566406 141.414062 218.355469 141.25 216.117188 C 141.085938 213.996094 141.222656 211.835938 141.710938 209.652344 C 142.242188 207.253906 143.203125 204.851562 144.621094 202.75 C 145.917969 200.824219 147.621094 199.128906 149.75 197.878906 C 151.902344 196.613281 154.445312 195.847656 157.054688 195.546875 C 159.75 195.238281 162.558594 195.417969 165.105469 196.054688 C 167.425781 196.632812 169.53125 197.59375 171.371094 198.75 C 173.472656 200.074219 175.242188 201.675781 176.582031 203.285156 C 177.886719 204.847656 178.804688 206.414062 179.394531 208.023438 C 180.003906 209.675781 180.273438 211.347656 180.273438 213.0625 C 180.273438 214.691406 180.023438 216.378906 179.59375 217.976562 C 179.148438 219.621094 178.492188 221.195312 177.695312 222.515625 C 176.875 223.886719 175.90625 224.992188 174.792969 225.890625 C 173.699219 226.78125 172.480469 227.457031 171.152344 227.988281 C 169.871094 228.496094 168.445312 228.886719 167.019531 229.109375 C 165.613281 229.328125 164.191406 229.386719 162.890625 229.257812 C 161.488281 229.117188 160.226562 228.769531 159.070312 228.238281 C 157.925781 227.71875 156.898438 227.039062 155.953125 226.230469 C 154.964844 225.382812 154.046875 224.390625 153.292969 223.253906 C 152.597656 222.207031 152.015625 221.027344 151.628906 219.730469 C 151.199219 218.304688 150.996094 216.714844 151.09375 215.167969 C 151.191406 213.691406 151.570312 212.21875 152.292969 210.914062 C 152.988281 209.667969 153.976562 208.625 155.09375 207.792969 C 156.316406 206.875 157.71875 206.195312 159.035156 205.757812 C 160.230469 205.359375 161.375 205.152344 162.433594 205.109375 C 163.636719 205.058594 164.753906 205.214844 165.726562 205.539062 C 166.761719 205.882812 167.613281 206.390625 168.320312 207.019531 C 169.011719 207.632812 169.5625 208.332031 170.011719 209.089844 C 170.496094 209.894531 170.898438 210.796875 171.125 211.75 C 171.332031 212.652344 171.394531 213.613281 171.230469 214.59375 C 171.054688 215.648438 170.605469 216.707031 169.988281 217.585938 C 169.332031 218.5 168.445312 219.253906 167.410156 219.660156 C 166.457031 220.042969 165.472656 220.097656 164.582031 219.972656 C 163.546875 219.828125 162.566406 219.402344 161.917969 218.976562 C 160.078125 217.753906 160.078125 216.613281 160.078125 215.476562 L 164.242188 215.476562 L 164.730469 214.742188 C 164.648438 214.578125 164.644531 214.484375 164.832031 214.613281 C 164.921875 214.671875 165.101562 214.742188 165.324219 214.773438 L 165.46875 214.789062 C 165.515625 214.773438 165.601562 214.667969 165.710938 214.527344 C 165.878906 214.292969 165.996094 214.007812 166.042969 213.730469 C 166.085938 213.488281 166.0625 213.21875 165.996094 212.941406 C 165.90625 212.546875 165.726562 212.152344 165.507812 211.789062 C 165.300781 211.449219 165.078125 211.15625 164.839844 210.957031 C 164.617188 210.761719 164.367188 210.605469 164.082031 210.511719 C 163.699219 210.386719 163.214844 210.324219 162.648438 210.347656 C 162.054688 210.371094 161.386719 210.496094 160.679688 210.730469 C 159.859375 211.003906 158.992188 211.421875 158.242188 211.984375 C 157.679688 212.40625 157.195312 212.902344 156.882812 213.460938 C 156.566406 214.035156 156.390625 214.746094 156.34375 215.5 C 156.285156 216.410156 156.410156 217.363281 156.671875 218.230469 C 156.902344 219.007812 157.253906 219.71875 157.679688 220.351562 C 158.167969 221.085938 158.75 221.71875 159.371094 222.246094 C 159.957031 222.75 160.578125 223.167969 161.238281 223.464844 C 161.898438 223.761719 162.617188 223.960938 163.40625 224.039062 C 164.273438 224.125 165.242188 224.082031 166.214844 223.933594 C 167.230469 223.773438 168.261719 223.492188 169.199219 223.117188 C 170.058594 222.773438 170.824219 222.355469 171.480469 221.820312 C 172.125 221.296875 172.695312 220.644531 173.1875 219.824219 C 173.730469 218.925781 174.1875 217.8125 174.511719 216.621094 C 174.824219 215.464844 175 214.238281 175 213.0625 C 175 211.933594 174.832031 210.863281 174.457031 209.832031 C 174.058594 208.757812 173.4375 207.699219 172.546875 206.632812 C 171.542969 205.425781 170.195312 204.207031 168.570312 203.1875 C 167.183594 202.3125 165.589844 201.585938 163.828125 201.148438 C 161.878906 200.664062 159.722656 200.527344 157.652344 200.765625 C 155.722656 200.984375 153.886719 201.527344 152.402344 202.398438 C 151.015625 203.210938 149.878906 204.359375 148.984375 205.6875 C 147.9375 207.238281 147.226562 209.011719 146.835938 210.78125 C 146.46875 212.414062 146.371094 214.074219 146.496094 215.726562 C 146.628906 217.496094 147.027344 219.253906 147.628906 220.957031 C 148.238281 222.679688 149.054688 224.347656 150.078125 225.84375 C 151 227.195312 152.101562 228.414062 153.363281 229.402344 C 154.617188 230.386719 156.0625 231.167969 157.605469 231.757812 C 159.320312 232.402344 161.15625 232.820312 163 233.023438 C 164.769531 233.21875 166.53125 233.222656 168.214844 233.058594 C 169.9375 232.890625 171.585938 232.546875 173.082031 232.050781 C 174.503906 231.578125 175.800781 230.953125 176.980469 230.207031 C 178.132812 229.484375 179.191406 228.613281 180.167969 227.640625 C 181.117188 226.691406 181.96875 225.660156 182.652344 224.449219 C 183.34375 223.226562 183.90625 221.773438 184.285156 219.980469 C 184.707031 217.984375 184.902344 215.589844 184.792969 213.15625 C 184.695312 210.988281 184.351562 208.808594 183.710938 206.882812 C 183.035156 204.871094 182.015625 203.082031 180.851562 201.507812 C 179.652344 199.886719 178.28125 198.46875 176.957031 197.246094 C 175.347656 195.765625 173.792969 194.558594 172.257812 193.476562 L 172.238281 193.460938 L 172.191406 193.429688 L 172.171875 193.414062 C 171.730469 193.113281 171.242188 192.820312 169.953125 192.652344 C 168.582031 192.476562 166.304688 192.445312 162.75 192.425781 C 159.199219 192.410156 154.367188 192.410156 150.636719 192.632812 C 146.90625 192.847656 144.269531 193.289062 141.636719 193.726562 C 141.636719 189.78125 141.636719 185.839844 141.636719 181.894531 C 144.269531 182.332031 146.90625 182.769531 150.636719 183.207031 C 154.367188 183.644531 159.199219 184.085938 162.652344 184.035156 C 166.105469 183.984375 168.183594 183.449219 170.265625 182.914062 C 172.445312 181.453125 174.644531 179.90625 176.957031 177.773438 C 178.28125 176.550781 179.652344 175.132812 180.851562 173.515625 C 182.015625 171.9375 183.035156 170.148438 183.710938 168.136719 C 184.351562 166.210938 184.695312 164.03125 184.792969 161.867188 C 184.902344 159.429688 184.707031 157.035156 184.285156 155.042969 C 183.90625 153.246094 183.34375 151.796875 182.652344 150.570312 C 181.96875 149.363281 181.117188 148.328125 180.167969 147.382812 C 179.191406 146.40625 178.132812 145.539062 176.980469 144.8125 C 175.800781 144.066406 174.503906 143.441406 173.082031 142.972656 C 171.585938 142.472656 169.9375 142.128906 168.214844 141.960938 C 166.53125 141.796875 164.769531 141.800781 163 141.996094 C 161.15625 142.203125 159.320312 142.617188 157.605469 143.265625 C 156.0625 143.851562 154.617188 144.632812 153.363281 145.617188 C 152.101562 146.605469 151 147.824219 150.078125 149.175781 C 149.054688 150.671875 148.238281 152.339844 147.628906 154.0625 C 147.027344 155.769531 146.628906 157.527344 146.496094 159.296875 C 146.371094 160.949219 146.46875 162.605469 146.835938 164.242188 C 147.226562 166.011719 147.9375 167.78125 148.984375 169.332031 C 149.878906 170.660156 151.015625 171.808594 152.402344 172.625 C 153.886719 173.492188 155.722656 174.035156 157.652344 174.253906 C 159.722656 174.492188 161.878906 174.355469 163.828125 173.871094 C 165.589844 173.433594 167.183594 172.707031 168.570312 171.835938 C 170.195312 170.8125 171.542969 169.597656 172.546875 168.390625 C 173.4375 167.324219 174.058594 166.261719 174.457031 165.1875 C 174.832031 164.160156 175 163.085938 175 161.957031 C 175 160.78125 174.824219 159.554688 174.511719 158.402344 C 174.1875 157.207031 173.730469 156.097656 173.1875 155.195312 C 172.695312 154.378906 172.125 153.722656 171.480469 153.199219 C 170.824219 152.667969 170.058594 152.246094 169.199219 151.902344 C 168.261719 151.527344 167.230469 151.246094 166.214844 151.089844 C 165.242188 150.9375 164.273438 150.894531 163.40625 150.980469 C 162.617188 151.058594 161.898438 151.257812 161.238281 151.558594 C 160.578125 151.855469 159.957031 152.273438 159.371094 152.773438 C 158.75 153.304688 158.167969 153.9375 157.679688 154.671875 C 157.253906 155.300781 156.902344 156.011719 156.671875 156.789062 C 156.410156 157.660156 156.285156 158.613281 156.34375 159.523438 C 156.390625 160.273438 156.566406 160.984375 156.882812 161.558594 C 157.195312 162.117188 157.679688 162.617188 158.242188 163.035156 C 158.992188 163.597656 159.859375 164.019531 160.679688 164.292969 C 161.386719 164.527344 162.054688 164.648438 162.648438 164.675781 C 163.214844 164.695312 163.699219 164.636719 164.082031 164.507812 C 164.367188 164.414062 164.617188 164.261719 164.839844 164.066406 C 165.078125 163.863281 165.300781 163.574219 165.507812 163.230469 C 165.726562 162.871094 165.90625 162.472656 165.996094 162.078125 C 166.0625 161.800781 166.085938 161.535156 166.042969 161.292969 C 165.996094 161.015625 165.878906 160.726562 165.710938 160.492188 C 165.601562 160.351562 165.515625 160.25 165.46875 160.230469 L 165.324219 160.246094 C 165.101562 160.28125 164.921875 160.347656 164.832031 160.410156 C 164.644531 160.539062 164.648438 160.445312 164.730469 160.28125 L 164.242188 159.546875 L 160.078125 159.546875 C 160.078125 158.40625 160.078125 157.265625 161.917969 156.042969 C 162.566406 155.621094 163.546875 155.195312 164.582031 155.050781 C 165.472656 154.921875 166.457031 154.976562 167.410156 155.359375 C 168.445312 155.769531 169.332031 156.523438 169.988281 157.433594 C 170.605469 158.3125 171.054688 159.371094 171.230469 160.429688 C 171.394531 161.410156 171.332031 162.367188 171.125 163.269531 C 170.898438 164.222656 170.496094 165.128906 170.011719 165.933594 C 169.5625 166.6875 169.011719 167.390625 168.320312 168 C 167.613281 168.632812 166.761719 169.136719 165.726562 169.480469 C 164.753906 169.804688 163.636719 169.960938 162.433594 169.910156 C 161.375 169.867188 160.230469 169.660156 159.035156 169.261719 C 157.71875 168.824219 156.316406 168.144531 155.09375 167.226562 C 153.976562 166.398438 152.988281 165.355469 152.292969 164.105469 C 151.570312 162.800781 151.191406 161.332031 151.09375 159.851562 C 150.996094 158.304688 151.199219 156.714844 151.628906 155.289062 C 152.015625 153.992188 152.597656 152.816406 153.292969 151.765625 C 154.046875 150.628906 154.964844 149.640625 155.953125 148.789062 C 156.898438 147.980469 157.925781 147.300781 159.070312 146.78125 C 160.226562 146.253906 161.488281 145.902344 162.890625 145.761719 C 164.191406 145.636719 165.613281 145.695312 167.019531 145.910156 C 168.445312 146.132812 169.871094 146.523438 171.152344 147.035156 C 172.480469 147.566406 173.699219 148.238281 174.792969 149.132812 C 175.90625 150.03125 176.875 151.136719 177.695312 152.503906 C 178.492188 153.828125 179.148438 155.398438 179.59375 157.042969 C 180.023438 158.640625 180.273438 160.332031 180.273438 161.957031 C 180.273438 163.675781 180.003906 165.34375 179.394531 166.996094 C 178.804688 168.605469 177.886719 170.175781 176.582031 171.738281 C 175.242188 173.34375 173.472656 174.949219 171.371094 176.273438 C 169.53125 177.429688 167.425781 178.390625 165.105469 178.964844 C 162.558594 179.601562 159.75 179.78125 157.054688 179.472656 C 154.445312 179.175781 151.902344 178.40625 149.75 177.140625 C 147.621094 175.894531 145.917969 174.195312 144.621094 172.269531 C 143.203125 170.171875 142.242188 167.769531 141.710938 165.371094 C 141.222656 163.1875 141.085938 161.023438 141.25 158.90625 C 141.414062 156.667969 141.914062 154.453125 142.671875 152.320312 C 143.425781 150.183594 144.449219 148.101562 145.734375 146.21875 C 146.953125 144.433594 148.414062 142.816406 150.109375 141.488281 C 151.800781 140.160156 153.710938 139.125 155.734375 138.359375 C 157.890625 137.546875 160.160156 137.03125 162.421875 136.78125 C 164.539062 136.546875 166.671875 136.542969 168.722656 136.742188 C 170.851562 136.953125 172.890625 137.382812 174.742188 138 Z M 187.792969 181.132812 C 193.332031 181.132812 197.820312 184.355469 197.820312 188.332031 C 197.820312 192.308594 193.332031 195.53125 187.792969 195.53125 C 182.253906 195.53125 177.765625 192.308594 177.765625 188.332031 C 177.765625 184.355469 182.253906 181.132812 187.792969 181.132812 Z M 187.792969 181.132812 " fill-opacity="1" fill-rule="evenodd"/></g></svg>