<svg xmlns="http://www.w3.org/2000/svg" xmlns:xlink="http://www.w3.org/1999/xlink" width="500" zoomAndPan="magnify" viewBox="0 0 375 374.999991" height="500" preserveAspectRatio="xMidYMid meet" version="1.0"><defs><clipPath id="6738563c27"><path d="M 112.5 112.5 L 262.5 112.5 L 262.5 262.5 L 112.5 262.5 Z M 112.5 112.5 " clip-rule="nonzero"/></clipPath><clipPath id="87eb0bdf5c"><path d="M 123.390625 122.988281 L 251.640625 122.988281 L 251.640625 251.988281 L 123.390625 251.988281 Z M 123.390625 122.988281 " clip-rule="nonzero"/></clipPath></defs><g clip-path="url(#6738563c27)"><path fill="#65934b" d="M 262.5 187.5 C 262.5 188.726562 262.46875 189.953125 262.410156 191.179688 C 262.347656 192.40625 262.257812 193.628906 262.140625 194.851562 C 262.019531 196.074219 261.867188 197.289062 261.6875 198.503906 C 261.507812 199.71875 261.296875 200.929688 261.058594 202.132812 C 260.820312 203.335938 260.550781 204.53125 260.253906 205.722656 C 259.953125 206.914062 259.625 208.097656 259.269531 209.269531 C 258.914062 210.445312 258.527344 211.609375 258.117188 212.765625 C 257.703125 213.921875 257.261719 215.066406 256.789062 216.203125 C 256.320312 217.335938 255.824219 218.457031 255.300781 219.566406 C 254.773438 220.675781 254.222656 221.773438 253.644531 222.855469 C 253.066406 223.9375 252.460938 225.003906 251.828125 226.058594 C 251.199219 227.109375 250.542969 228.148438 249.859375 229.167969 C 249.179688 230.1875 248.472656 231.191406 247.742188 232.175781 C 247.007812 233.164062 246.253906 234.128906 245.476562 235.078125 C 244.695312 236.027344 243.894531 236.957031 243.070312 237.867188 C 242.246094 238.777344 241.402344 239.664062 240.53125 240.53125 C 239.664062 241.402344 238.777344 242.246094 237.867188 243.070312 C 236.957031 243.894531 236.027344 244.695312 235.078125 245.476562 C 234.128906 246.253906 233.164062 247.007812 232.175781 247.742188 C 231.191406 248.472656 230.1875 249.179688 229.167969 249.859375 C 228.148438 250.542969 227.109375 251.199219 226.058594 251.828125 C 225.003906 252.460938 223.9375 253.066406 222.855469 253.644531 C 221.773438 254.222656 220.675781 254.773438 219.566406 255.300781 C 218.457031 255.824219 217.335938 256.320312 216.203125 256.789062 C 215.066406 257.261719 213.921875 257.703125 212.765625 258.117188 C 211.609375 258.527344 210.445312 258.914062 209.269531 259.269531 C 208.097656 259.625 206.914062 259.953125 205.722656 260.253906 C 204.53125 260.550781 203.335938 260.820312 202.132812 261.058594 C 200.929688 261.296875 199.71875 261.507812 198.503906 261.6875 C 197.289062 261.867188 196.074219 262.019531 194.851562 262.140625 C 193.628906 262.257812 192.40625 262.347656 191.179688 262.410156 C 189.953125 262.46875 188.726562 262.5 187.5 262.5 C 186.273438 262.5 185.046875 262.46875 183.820312 262.410156 C 182.59375 262.347656 181.371094 262.257812 180.148438 262.140625 C 178.925781 262.019531 177.710938 261.867188 176.496094 261.6875 C 175.28125 261.507812 174.070312 261.296875 172.867188 261.058594 C 171.664062 260.820312 170.46875 260.550781 169.277344 260.253906 C 168.085938 259.953125 166.902344 259.625 165.730469 259.269531 C 164.554688 258.914062 163.390625 258.527344 162.234375 258.117188 C 161.078125 257.703125 159.933594 257.261719 158.796875 256.789062 C 157.664062 256.320312 156.542969 255.824219 155.433594 255.300781 C 154.324219 254.773438 153.226562 254.222656 152.144531 253.644531 C 151.0625 253.066406 149.996094 252.460938 148.941406 251.828125 C 147.890625 251.199219 146.851562 250.542969 145.832031 249.859375 C 144.8125 249.179688 143.808594 248.472656 142.824219 247.742188 C 141.835938 247.007812 140.871094 246.253906 139.921875 245.476562 C 138.972656 244.695312 138.042969 243.894531 137.132812 243.070312 C 136.222656 242.246094 135.335938 241.402344 134.46875 240.53125 C 133.597656 239.664062 132.753906 238.777344 131.929688 237.867188 C 131.105469 236.957031 130.304688 236.027344 129.523438 235.078125 C 128.746094 234.128906 127.992188 233.164062 127.257812 232.175781 C 126.527344 231.191406 125.820312 230.1875 125.140625 229.167969 C 124.457031 228.148438 123.800781 227.109375 123.171875 226.058594 C 122.539062 225.003906 121.933594 223.9375 121.355469 222.855469 C 120.777344 221.773438 120.226562 220.675781 119.699219 219.566406 C 119.175781 218.457031 118.679688 217.335938 118.210938 216.203125 C 117.738281 215.066406 117.296875 213.921875 116.882812 212.765625 C 116.46875 211.609375 116.085938 210.445312 115.730469 209.269531 C 115.375 208.097656 115.046875 206.914062 114.746094 205.722656 C 114.449219 204.53125 114.179688 203.335938 113.941406 202.132812 C 113.703125 200.929688 113.492188 199.71875 113.3125 198.503906 C 113.132812 197.289062 112.980469 196.074219 112.859375 194.851562 C 112.742188 193.628906 112.652344 192.40625 112.589844 191.179688 C 112.53125 189.953125 112.5 188.726562 112.5 187.5 C 112.5 186.273438 112.53125 185.046875 112.589844 183.820312 C 112.652344 182.59375 112.742188 181.371094 112.859375 180.148438 C 112.980469 178.925781 113.132812 177.710938 113.3125 176.496094 C 113.492188 175.28125 113.703125 174.070312 113.941406 172.867188 C 114.179688 171.664062 114.449219 170.46875 114.746094 169.277344 C 115.046875 168.085938 115.375 166.902344 115.730469 165.730469 C 116.085938 164.554688 116.46875 163.390625 116.882812 162.234375 C 117.296875 161.078125 117.738281 159.933594 118.210938 158.796875 C 118.679688 157.664062 119.175781 156.542969 119.699219 155.433594 C 120.226562 154.324219 120.777344 153.226562 121.355469 152.144531 C 121.933594 151.0625 122.539062 149.996094 123.171875 148.941406 C 123.800781 147.890625 124.457031 146.851562 125.140625 145.832031 C 125.820312 144.8125 126.527344 143.808594 127.257812 142.824219 C 127.992188 141.835938 128.746094 140.871094 129.523438 139.921875 C 130.304688 138.972656 131.105469 138.042969 131.929688 137.132812 C 132.753906 136.222656 133.597656 135.335938 134.46875 134.46875 C 135.335938 133.597656 136.222656 132.753906 137.132812 131.929688 C 138.042969 131.105469 138.972656 130.304688 139.921875 129.523438 C 140.871094 128.746094 141.835938 127.992188 142.824219 127.257812 C 143.808594 126.527344 144.8125 125.820312 145.832031 125.140625 C 146.851562 124.457031 147.890625 123.800781 148.941406 123.171875 C 149.996094 122.539062 151.0625 121.933594 152.144531 121.355469 C 153.226562 120.777344 154.324219 120.226562 155.433594 119.699219 C 156.542969 119.175781 157.664062 118.679688 158.796875 118.210938 C 159.933594 117.738281 161.078125 117.296875 162.234375 116.882812 C 163.390625 116.46875 164.554688 116.085938 165.730469 115.730469 C 166.902344 115.375 168.085938 115.046875 169.277344 114.746094 C 170.46875 114.449219 171.664062 114.179688 172.867188 113.941406 C 174.070312 113.703125 175.28125 113.492188 176.496094 113.3125 C 177.710938 113.132812 178.925781 112.980469 180.148438 112.859375 C 181.371094 112.742188 182.59375 112.652344 183.820312 112.589844 C 185.046875 112.53125 186.273438 112.5 187.5 112.5 C 188.726562 112.5 189.953125 112.53125 191.179688 112.589844 C 192.40625 112.652344 193.628906 112.742188 194.851562 112.859375 C 196.074219 112.980469 197.289062 113.132812 198.503906 113.3125 C 199.71875 113.492188 200.929688 113.703125 202.132812 113.941406 C 203.335938 114.179688 204.53125 114.449219 205.722656 114.746094 C 206.914062 115.046875 208.097656 115.375 209.269531 115.730469 C 210.445312 116.085938 211.609375 116.46875 212.765625 116.882812 C 213.921875 117.296875 215.066406 117.738281 216.203125 118.210938 C 217.335938 118.679688 218.457031 119.175781 219.566406 119.699219 C 220.675781 120.226562 221.773438 120.777344 222.855469 121.355469 C 223.9375 121.933594 225.003906 122.539062 226.058594 123.171875 C 227.109375 123.800781 228.148438 124.457031 229.167969 125.140625 C 230.1875 125.820312 231.191406 126.527344 232.175781 127.257812 C 233.164062 127.992188 234.128906 128.746094 235.078125 129.523438 C 236.027344 130.304688 236.957031 131.105469 237.867188 131.929688 C 238.777344 132.753906 239.664062 133.597656 240.53125 134.46875 C 241.402344 135.335938 242.246094 136.222656 243.070312 137.132812 C 243.894531 138.042969 244.695312 138.972656 245.476562 139.921875 C 246.253906 140.871094 247.007812 141.835938 247.742188 142.824219 C 248.472656 143.808594 249.179688 144.8125 249.859375 145.832031 C 250.542969 146.851562 251.199219 147.890625 251.828125 148.941406 C 252.460938 149.996094 253.066406 151.0625 253.644531 152.144531 C 254.222656 153.226562 254.773438 154.324219 255.300781 155.433594 C 255.824219 156.542969 256.320312 157.664062 256.789062 158.796875 C 257.261719 159.933594 257.703125 161.078125 258.117188 162.234375 C 258.527344 163.390625 258.914062 164.554688 259.269531 165.730469 C 259.625 166.902344 259.953125 168.085938 260.253906 169.277344 C 260.550781 170.46875 260.820312 171.664062 261.058594 172.867188 C 261.296875 174.070312 261.507812 175.28125 261.6875 176.496094 C 261.867188 177.710938 262.019531 178.925781 262.140625 180.148438 C 262.257812 181.371094 262.347656 182.59375 262.410156 183.820312 C 262.46875 185.046875 262.5 186.273438 262.5 187.5 Z M 262.5 187.5 " fill-opacity="1" fill-rule="nonzero"/></g><g clip-path="url(#87eb0bdf5c)"><path fill="#000000" d="M 178.84375 137.933594 C 181.972656 132.953125 185.097656 127.96875 188.226562 122.988281 C 191.207031 128.265625 194.1875 133.539062 197.167969 138.8125 C 195.75 146.1875 194.332031 153.5625 192.914062 160.9375 C 195.554688 160.253906 198.195312 159.570312 201.050781 158.203125 C 203.910156 156.835938 206.988281 154.785156 208.554688 152.953125 C 210.117188 151.125 210.167969 149.511719 209.484375 148.628906 C 208.800781 147.753906 207.382812 147.605469 206.113281 147.4375 C 204.839844 147.265625 203.714844 147.070312 202.984375 146.285156 C 202.25 145.503906 201.910156 144.136719 201.933594 143.066406 C 201.957031 141.988281 202.347656 141.207031 204.0625 140.839844 C 205.769531 140.472656 208.796875 140.523438 211.339844 141.304688 C 213.878906 142.085938 215.933594 143.601562 216.761719 145.53125 C 217.59375 147.460938 217.203125 149.804688 216.105469 152.195312 C 215.003906 154.589844 213.195312 157.03125 210.898438 159.085938 C 208.601562 161.136719 205.816406 162.796875 203.398438 164.019531 C 200.980469 165.238281 198.925781 166.019531 196.875 166.800781 C 200.980469 170.808594 205.085938 174.8125 209.1875 178.816406 C 211.339844 174.761719 213.488281 170.710938 215.515625 167.976562 C 217.546875 165.238281 219.449219 163.820312 221.75 163.355469 C 224.046875 162.894531 226.730469 163.378906 228.640625 164.40625 C 230.542969 165.433594 231.667969 166.996094 232.253906 168.804688 C 232.839844 170.613281 232.890625 172.664062 232.425781 174.300781 C 231.960938 175.933594 230.980469 177.15625 229.933594 177.691406 C 228.882812 178.230469 227.757812 178.085938 227.074219 177.179688 C 226.390625 176.277344 226.144531 174.617188 226 173.347656 C 225.851562 172.074219 225.804688 171.195312 225.242188 170.734375 C 224.679688 170.265625 223.605469 170.222656 222.484375 170.78125 C 221.359375 171.34375 220.183594 172.515625 219.425781 174.03125 C 218.671875 175.542969 218.328125 177.402344 217.984375 179.257812 C 220.136719 179.257812 222.285156 179.257812 224.605469 180.429688 C 226.929688 181.601562 229.417969 183.945312 231.644531 185.4375 C 233.867188 186.925781 235.820312 187.5625 238 187.804688 C 240.171875 188.046875 242.566406 187.902344 244.789062 187.292969 C 247.011719 186.679688 249.0625 185.605469 250.214844 185.558594 C 251.363281 185.507812 251.605469 186.484375 250.652344 187.511719 C 249.699219 188.535156 247.550781 189.613281 245.304688 190.539062 C 243.054688 191.46875 240.707031 192.25 237.53125 192.25 C 234.355469 192.25 230.347656 191.46875 227.367188 190.757812 C 224.386719 190.050781 222.429688 189.414062 220.648438 189.222656 C 218.863281 189.027344 217.253906 189.269531 216.421875 189.464844 C 215.59375 189.660156 215.542969 189.808594 215.496094 189.953125 C 215.640625 192.738281 215.789062 195.523438 216.640625 197.84375 C 217.496094 200.160156 219.0625 202.019531 220.550781 202.945312 C 222.042969 203.875 223.457031 203.875 224.679688 203.339844 C 225.902344 202.800781 226.929688 201.726562 227.492188 200.675781 C 228.050781 199.625 228.152344 198.597656 228.90625 198.011719 C 229.664062 197.425781 231.082031 197.277344 232.011719 197.816406 C 232.9375 198.355469 233.378906 199.574219 233.304688 201.1875 C 233.230469 202.796875 232.648438 204.800781 231.304688 206.339844 C 229.957031 207.878906 227.855469 208.953125 225.4375 209.542969 C 223.019531 210.125 220.28125 210.226562 217.863281 209.175781 C 215.445312 208.125 213.34375 205.925781 211.855469 203.628906 C 210.363281 201.332031 209.480469 198.941406 208.601562 196.546875 C 204.890625 200.457031 201.175781 204.363281 197.464844 208.269531 C 199.757812 208.660156 202.054688 209.050781 204.183594 209.757812 C 206.304688 210.46875 208.261719 211.492188 209.730469 212.835938 C 211.191406 214.179688 212.171875 215.839844 212.683594 217.71875 C 213.195312 219.601562 213.246094 221.703125 212.753906 223.632812 C 212.265625 225.5625 211.242188 227.320312 209.679688 228.734375 C 208.113281 230.152344 206.015625 231.226562 204.328125 231.742188 C 202.640625 232.253906 201.371094 232.203125 200.417969 231.714844 C 199.464844 231.226562 198.832031 230.300781 198.5625 229.273438 C 198.292969 228.246094 198.390625 227.125 199.027344 226.394531 C 199.660156 225.660156 200.832031 225.316406 201.910156 224.925781 C 202.984375 224.535156 203.960938 224.09375 204.621094 223.363281 C 205.28125 222.628906 205.621094 221.605469 205.355469 220.558594 C 205.085938 219.503906 204.203125 218.429688 203.078125 217.648438 C 201.957031 216.867188 200.589844 216.378906 199.199219 216.136719 C 197.804688 215.890625 196.386719 215.890625 194.96875 215.890625 C 195.019531 217.941406 195.066406 219.992188 194.578125 222.3125 C 194.089844 224.632812 193.066406 227.222656 191.914062 228.957031 C 190.765625 230.6875 189.496094 231.570312 188.761719 233.816406 C 188.03125 236.0625 187.835938 239.675781 188.226562 242.800781 C 188.617188 245.929688 189.59375 248.566406 189.863281 250.082031 C 190.128906 251.597656 189.691406 251.984375 188.8125 251.300781 C 187.933594 250.617188 186.613281 248.859375 185.417969 246.6875 C 184.21875 244.511719 183.140625 241.925781 182.898438 238.875 C 182.65625 235.820312 183.238281 232.300781 184.097656 229.273438 C 184.953125 226.246094 186.078125 223.703125 186.371094 221.261719 C 186.664062 218.820312 186.121094 216.476562 185.585938 214.132812 C 183.335938 214.472656 181.089844 214.816406 179.308594 215.375 C 177.527344 215.9375 176.203125 216.71875 175.179688 217.769531 C 174.152344 218.820312 173.417969 220.140625 173.148438 221.289062 C 172.882812 222.4375 173.078125 223.410156 173.617188 224.167969 C 174.152344 224.925781 175.03125 225.464844 175.960938 225.734375 C 176.886719 226 177.867188 226 178.625 226.316406 C 179.382812 226.632812 179.917969 227.269531 180.1875 228.125 C 180.453125 228.976562 180.453125 230.054688 180.210938 231.003906 C 179.964844 231.957031 179.480469 232.789062 178.304688 233.183594 C 177.132812 233.570312 175.273438 233.523438 173.269531 232.863281 C 171.269531 232.203125 169.117188 230.933594 167.75 229.347656 C 166.378906 227.757812 165.796875 225.851562 165.601562 223.679688 C 165.40625 221.507812 165.601562 219.066406 166.3125 217.0625 C 167.019531 215.058594 168.238281 213.496094 169.65625 212.203125 C 171.074219 210.90625 172.6875 209.882812 174.492188 209.171875 C 176.304688 208.464844 178.304688 208.074219 177.183594 205.683594 C 176.058594 203.289062 171.804688 198.890625 167.554688 194.496094 C 166.96875 196.789062 166.382812 199.085938 165.453125 201.484375 C 164.523438 203.875 163.253906 206.363281 162.105469 208.367188 C 160.957031 210.371094 159.933594 211.886719 158.636719 213.253906 C 157.34375 214.621094 155.777344 215.839844 153.679688 216.621094 C 151.578125 217.402344 148.9375 217.746094 146.910156 217.671875 C 144.882812 217.597656 143.460938 217.109375 142.289062 216.0625 C 141.117188 215.011719 140.191406 213.398438 139.722656 211.515625 C 139.261719 209.640625 139.261719 207.492188 139.625 205.636719 C 139.992188 203.777344 140.726562 202.214844 141.679688 201.3125 C 142.632812 200.40625 143.804688 200.160156 144.734375 200.136719 C 145.664062 200.113281 146.347656 200.308594 146.667969 201.113281 C 146.984375 201.921875 146.933594 203.339844 146.886719 204.707031 C 146.835938 206.074219 146.789062 207.390625 147.105469 208.417969 C 147.421875 209.441406 148.105469 210.175781 149.109375 210.128906 C 150.109375 210.078125 151.429688 209.246094 152.652344 208.027344 C 153.875 206.804688 154.996094 205.191406 156 203.359375 C 157 201.53125 157.878906 199.480469 158.464844 197.769531 C 159.050781 196.058594 159.347656 194.691406 159.640625 193.320312 C 155.679688 193.519531 151.722656 193.714844 148.398438 194.226562 C 145.074219 194.738281 142.386719 195.570312 139.703125 196.402344 C 134.277344 193.128906 128.851562 189.855469 123.429688 186.582031 C 128.949219 184.140625 134.472656 181.699219 139.996094 179.257812 C 143.21875 179.890625 146.445312 180.527344 149.890625 181.039062 C 153.335938 181.550781 157 181.941406 160.667969 182.332031 C 159.6875 179.0625 158.710938 175.789062 157.464844 173.296875 C 156.21875 170.804688 154.703125 169.097656 153.457031 168.070312 C 152.210938 167.042969 151.234375 166.703125 150.449219 166.996094 C 149.667969 167.289062 149.082031 168.214844 148.71875 169.390625 C 148.351562 170.5625 148.203125 171.980469 147.59375 172.835938 C 146.984375 173.6875 145.90625 173.980469 144.734375 173.710938 C 143.558594 173.445312 142.289062 172.613281 141.777344 171.074219 C 141.261719 169.535156 141.507812 167.289062 142.316406 165.289062 C 143.121094 163.285156 144.488281 161.523438 146.347656 160.425781 C 148.203125 159.328125 150.550781 158.886719 152.796875 159.230469 C 155.046875 159.570312 157.195312 160.695312 159.296875 162.796875 C 161.398438 164.894531 163.453125 167.976562 164.792969 171.125 C 166.136719 174.277344 166.773438 177.5 167.40625 180.722656 C 171.367188 176.328125 175.324219 171.929688 179.285156 167.53125 C 176.9375 166.800781 174.589844 166.070312 171.882812 164.871094 C 169.167969 163.675781 166.089844 162.015625 163.742188 160.039062 C 161.398438 158.058594 159.785156 155.761719 158.953125 153.25 C 158.125 150.730469 158.074219 147.996094 158.539062 146.042969 C 159.003906 144.089844 159.980469 142.914062 161.667969 142.011719 C 163.351562 141.109375 165.746094 140.472656 167.875 140.425781 C 170 140.375 171.855469 140.910156 173.125 141.621094 C 174.394531 142.328125 175.082031 143.210938 175.253906 144.164062 C 175.421875 145.117188 175.082031 146.140625 174.324219 146.847656 C 173.5625 147.558594 172.394531 147.945312 171.148438 148.144531 C 169.902344 148.339844 168.582031 148.339844 167.726562 148.363281 C 166.871094 148.386719 166.480469 148.4375 166.257812 149.070312 C 166.039062 149.707031 165.992188 150.925781 166.871094 152.292969 C 167.753906 153.664062 169.558594 155.175781 171.417969 156.421875 C 173.273438 157.667969 175.179688 158.644531 176.984375 159.179688 C 178.792969 159.71875 180.503906 159.816406 182.214844 159.914062 C 181.089844 152.589844 179.96875 145.257812 178.84375 137.933594 Z M 173.5625 191.125 C 177.570312 190.878906 181.578125 190.640625 185.585938 190.394531 C 185.636719 194.007812 185.683594 197.621094 185.734375 201.234375 C 181.675781 197.867188 177.621094 194.496094 173.5625 191.125 Z M 175.179688 183.210938 C 178.453125 183.164062 181.726562 183.117188 185 183.066406 C 184.558594 179.941406 184.121094 176.816406 183.679688 173.6875 C 180.847656 176.863281 178.011719 180.039062 175.179688 183.210938 Z M 192.039062 173.394531 C 192.136719 176.328125 192.234375 179.257812 192.332031 182.1875 C 195.359375 182.136719 198.390625 182.089844 201.417969 182.039062 C 198.292969 179.160156 195.164062 176.277344 192.039062 173.394531 Z M 193.210938 189.515625 C 193.359375 193.46875 193.503906 197.429688 193.652344 201.382812 C 197.167969 197.71875 200.6875 194.054688 204.203125 190.394531 C 200.539062 190.101562 196.875 189.808594 193.210938 189.515625 Z M 193.210938 189.515625 " fill-opacity="1" fill-rule="evenodd"/></g></svg>