<?xml version="1.0" encoding="UTF-8" standalone="no"?>
<svg
   width="200"
   zoomAndPan="magnify"
   viewBox="0 0 150 150"
   height="200"
   preserveAspectRatio="xMidYMid"
   version="1.0"
   id="svg4"
   sodipodi:docname="Funtumfunefu Denkyemfunefu.svg"
   inkscape:version="1.3.2 (091e20e, 2023-11-25, custom)"
   xmlns:inkscape="http://www.inkscape.org/namespaces/inkscape"
   xmlns:sodipodi="http://sodipodi.sourceforge.net/DTD/sodipodi-0.dtd"
   xmlns="http://www.w3.org/2000/svg"
   xmlns:svg="http://www.w3.org/2000/svg">
  <sodipodi:namedview
     id="namedview4"
     pagecolor="#ffffff"
     bordercolor="#000000"
     borderopacity="0.25"
     inkscape:showpageshadow="2"
     inkscape:pageopacity="0.0"
     inkscape:pagecheckerboard="0"
     inkscape:deskcolor="#d1d1d1"
     inkscape:zoom="1.532"
     inkscape:cx="99.869452"
     inkscape:cy="99.869452"
     inkscape:window-width="1920"
     inkscape:window-height="991"
     inkscape:window-x="-9"
     inkscape:window-y="-9"
     inkscape:window-maximized="1"
     inkscape:current-layer="svg4" />
  <defs
     id="defs2">
    <clipPath
       id="6738563c27">
      <path
         d="m 112.5,112.5 h 150 v 150 h -150 z m 0,0"
         clip-rule="nonzero"
         id="path1" />
    </clipPath>
    <clipPath
       id="87eb0bdf5c">
      <path
         d="m 123.39063,122.98828 h 128.24999 v 129 H 123.39063 Z m 0,0"
         clip-rule="nonzero"
         id="path2" />
    </clipPath>
  </defs>
  <g
     clip-path="url(#6738563c27)"
     id="g3"
     transform="translate(-112.5,-112.5)">
    <path
       fill="#65934b"
       d="m 262.5,187.5 c 0,1.22656 -0.0312,2.45312 -0.0898,3.67969 -0.0625,1.22656 -0.15235,2.44922 -0.26954,3.67187 -0.12109,1.22266 -0.27343,2.4375 -0.45312,3.65235 -0.17969,1.21484 -0.39063,2.42578 -0.62891,3.6289 -0.23828,1.20313 -0.50781,2.39844 -0.80468,3.58985 -0.30079,1.1914 -0.62891,2.375 -0.98438,3.54687 -0.35547,1.17578 -0.74219,2.33984 -1.15234,3.49609 -0.41407,1.15625 -0.85547,2.30079 -1.32813,3.4375 -0.46875,1.13282 -0.96484,2.25391 -1.48828,3.36329 -0.52734,1.10937 -1.07812,2.20703 -1.65625,3.28906 -0.57812,1.08203 -1.18359,2.14844 -1.81641,3.20312 -0.6289,1.05078 -1.28515,2.08985 -1.96875,3.10938 -0.67968,1.01953 -1.38671,2.02344 -2.11718,3.00781 -0.73438,0.98828 -1.48828,1.95313 -2.26563,2.90234 -0.78125,0.94922 -1.58203,1.87891 -2.40625,2.78907 -0.82422,0.91015 -1.66797,1.79687 -2.53906,2.66406 -0.86719,0.87109 -1.75391,1.71484 -2.66406,2.53906 -0.91016,0.82422 -1.83985,1.625 -2.78907,2.40625 -0.94921,0.77735 -1.91406,1.53125 -2.90234,2.26563 -0.98437,0.73047 -1.98828,1.4375 -3.00781,2.11718 -1.01953,0.6836 -2.0586,1.33985 -3.10938,1.96875 -1.05468,0.63282 -2.12109,1.23829 -3.20312,1.81641 -1.08203,0.57813 -2.17969,1.12891 -3.28906,1.65625 -1.10938,0.52344 -2.23047,1.01953 -3.36329,1.48828 -1.13671,0.47266 -2.28125,0.91406 -3.4375,1.32813 -1.15625,0.41015 -2.32031,0.79687 -3.49609,1.15234 -1.17187,0.35547 -2.35547,0.68359 -3.54687,0.98438 -1.19141,0.29687 -2.38672,0.5664 -3.58985,0.80468 -1.20312,0.23828 -2.41406,0.44922 -3.6289,0.62891 -1.21485,0.17969 -2.42969,0.33203 -3.65235,0.45312 -1.22265,0.11719 -2.44531,0.20704 -3.67187,0.26954 -1.22657,0.0586 -2.45313,0.0898 -3.67969,0.0898 -1.22656,0 -2.45313,-0.0312 -3.67969,-0.0898 -1.22656,-0.0625 -2.44922,-0.15235 -3.67187,-0.26954 -1.22266,-0.12109 -2.4375,-0.27343 -3.65235,-0.45312 -1.21484,-0.17969 -2.42578,-0.39063 -3.6289,-0.62891 -1.20313,-0.23828 -2.39844,-0.50781 -3.58985,-0.80468 -1.1914,-0.30079 -2.375,-0.62891 -3.54687,-0.98438 -1.17578,-0.35547 -2.33985,-0.74219 -3.4961,-1.15234 -1.15625,-0.41407 -2.30078,-0.85547 -3.4375,-1.32813 -1.13281,-0.46875 -2.2539,-0.96484 -3.36328,-1.48828 -1.10937,-0.52734 -2.20703,-1.07812 -3.28906,-1.65625 -1.08203,-0.57812 -2.14844,-1.18359 -3.20312,-1.81641 -1.05079,-0.6289 -2.08985,-1.28515 -3.10938,-1.96875 -1.01953,-0.67968 -2.02344,-1.38671 -3.00781,-2.11718 -0.98828,-0.73438 -1.95313,-1.48828 -2.90235,-2.26563 -0.94921,-0.78125 -1.8789,-1.58203 -2.78906,-2.40625 -0.91015,-0.82422 -1.79687,-1.66797 -2.66406,-2.53906 -0.87109,-0.86719 -1.71484,-1.75391 -2.53906,-2.66406 -0.82422,-0.91016 -1.625,-1.83985 -2.40625,-2.78907 -0.77735,-0.94921 -1.53125,-1.91406 -2.26563,-2.90234 -0.73047,-0.98437 -1.4375,-1.98828 -2.11718,-3.00781 -0.6836,-1.01953 -1.33985,-2.0586 -1.96875,-3.10938 -0.63282,-1.05468 -1.23829,-2.12109 -1.81641,-3.20312 -0.57813,-1.08203 -1.12891,-2.17969 -1.65625,-3.28906 -0.52344,-1.10938 -1.01953,-2.23047 -1.48828,-3.36329 -0.47266,-1.13671 -0.91406,-2.28125 -1.32813,-3.4375 -0.41406,-1.15625 -0.79687,-2.32031 -1.15234,-3.49609 -0.35547,-1.17187 -0.68359,-2.35547 -0.98438,-3.54687 -0.29687,-1.19141 -0.5664,-2.38672 -0.80468,-3.58985 -0.23828,-1.20312 -0.44922,-2.41406 -0.62891,-3.6289 -0.17969,-1.21485 -0.33203,-2.42969 -0.45312,-3.65235 -0.11719,-1.22265 -0.20704,-2.44531 -0.26954,-3.67187 -0.0586,-1.22657 -0.0898,-2.45313 -0.0898,-3.67969 0,-1.22656 0.0312,-2.45313 0.0898,-3.67969 0.0625,-1.22656 0.15235,-2.44922 0.26954,-3.67187 0.12109,-1.22266 0.27343,-2.4375 0.45312,-3.65235 0.17969,-1.21484 0.39063,-2.42578 0.62891,-3.6289 0.23828,-1.20313 0.50781,-2.39844 0.80468,-3.58985 0.30079,-1.1914 0.62891,-2.375 0.98438,-3.54687 0.35547,-1.17578 0.73828,-2.33985 1.15234,-3.4961 0.41407,-1.15625 0.85547,-2.30078 1.32813,-3.4375 0.46875,-1.13281 0.96484,-2.2539 1.48828,-3.36328 0.52734,-1.10937 1.07812,-2.20703 1.65625,-3.28906 0.57812,-1.08203 1.18359,-2.14844 1.81641,-3.20312 0.6289,-1.05079 1.28515,-2.08985 1.96875,-3.10938 0.67968,-1.01953 1.38671,-2.02344 2.11718,-3.00781 0.73438,-0.98828 1.48828,-1.95313 2.26563,-2.90235 0.78125,-0.94921 1.58203,-1.8789 2.40625,-2.78906 0.82422,-0.91015 1.66797,-1.79687 2.53906,-2.66406 0.86719,-0.87109 1.75391,-1.71484 2.66406,-2.53906 0.91016,-0.82422 1.83985,-1.625 2.78906,-2.40625 0.94922,-0.77735 1.91407,-1.53125 2.90235,-2.26563 0.98437,-0.73047 1.98828,-1.4375 3.00781,-2.11718 1.01953,-0.6836 2.05859,-1.33985 3.10938,-1.96875 1.05468,-0.63282 2.12109,-1.23829 3.20312,-1.81641 1.08203,-0.57813 2.17969,-1.12891 3.28906,-1.65625 1.10938,-0.52344 2.23047,-1.01953 3.36328,-1.48828 1.13672,-0.47266 2.28125,-0.91406 3.4375,-1.32813 1.15625,-0.41406 2.32032,-0.79687 3.4961,-1.15234 1.17187,-0.35547 2.35547,-0.68359 3.54687,-0.98438 1.19141,-0.29687 2.38672,-0.5664 3.58985,-0.80468 1.20312,-0.23828 2.41406,-0.44922 3.6289,-0.62891 1.21485,-0.17969 2.42969,-0.33203 3.65235,-0.45312 1.22265,-0.11719 2.44531,-0.20704 3.67187,-0.26954 1.22656,-0.0586 2.45313,-0.0898 3.67969,-0.0898 1.22656,0 2.45312,0.0312 3.67969,0.0898 1.22656,0.0625 2.44922,0.15235 3.67187,0.26954 1.22266,0.12109 2.4375,0.27343 3.65235,0.45312 1.21484,0.17969 2.42578,0.39063 3.6289,0.62891 1.20313,0.23828 2.39844,0.50781 3.58985,0.80468 1.1914,0.30079 2.375,0.62891 3.54687,0.98438 1.17578,0.35547 2.33984,0.73828 3.49609,1.15234 1.15625,0.41407 2.30079,0.85547 3.4375,1.32813 1.13282,0.46875 2.25391,0.96484 3.36329,1.48828 1.10937,0.52734 2.20703,1.07812 3.28906,1.65625 1.08203,0.57812 2.14844,1.18359 3.20312,1.81641 1.05078,0.6289 2.08985,1.28515 3.10938,1.96875 1.01953,0.67968 2.02344,1.38671 3.00781,2.11718 0.98828,0.73438 1.95313,1.48828 2.90234,2.26563 0.94922,0.78125 1.87891,1.58203 2.78907,2.40625 0.91015,0.82422 1.79687,1.66797 2.66406,2.53906 0.87109,0.86719 1.71484,1.75391 2.53906,2.66406 0.82422,0.91016 1.625,1.83985 2.40625,2.78906 0.77735,0.94922 1.53125,1.91407 2.26563,2.90235 0.73047,0.98437 1.4375,1.98828 2.11718,3.00781 0.6836,1.01953 1.33985,2.05859 1.96875,3.10938 0.63282,1.05468 1.23829,2.12109 1.81641,3.20312 0.57813,1.08203 1.12891,2.17969 1.65625,3.28906 0.52344,1.10938 1.01953,2.23047 1.48828,3.36328 0.47266,1.13672 0.91406,2.28125 1.32813,3.4375 0.41015,1.15625 0.79687,2.32032 1.15234,3.4961 0.35547,1.17187 0.68359,2.35547 0.98438,3.54687 0.29687,1.19141 0.5664,2.38672 0.80468,3.58985 0.23828,1.20312 0.44922,2.41406 0.62891,3.6289 0.17969,1.21485 0.33203,2.42969 0.45312,3.65235 0.11719,1.22265 0.20704,2.44531 0.26954,3.67187 0.0586,1.22656 0.0898,2.45313 0.0898,3.67969 z m 0,0"
       fill-opacity="1"
       fill-rule="nonzero"
       id="path3" />
  </g>
  <g
     clip-path="url(#87eb0bdf5c)"
     id="g4"
     transform="translate(-112.5,-112.5)">
    <path
       fill="#000000"
       d="m 178.84375,137.93359 c 3.12891,-4.98047 6.25391,-9.96484 9.38281,-14.94531 2.98047,5.27734 5.96094,10.55078 8.94141,15.82422 -1.41797,7.375 -2.83594,14.75 -4.25391,22.125 2.64063,-0.68359 5.28125,-1.36719 8.13672,-2.73438 2.85938,-1.36718 5.9375,-3.41796 7.50391,-5.25 1.5625,-1.82812 1.61328,-3.4414 0.92968,-4.32421 -0.68359,-0.875 -2.10156,-1.02344 -3.37109,-1.19141 -1.27344,-0.17188 -2.39844,-0.36719 -3.12891,-1.15234 -0.73437,-0.78125 -1.07421,-2.14844 -1.05078,-3.21875 0.0234,-1.07813 0.41407,-1.85938 2.12891,-2.22657 1.70703,-0.36718 4.73437,-0.3164 7.27734,0.46485 2.53907,0.78125 4.59375,2.29687 5.42188,4.22656 0.83203,1.92969 0.4414,4.27344 -0.65625,6.66406 -1.10156,2.39453 -2.91016,4.83594 -5.20703,6.89063 -2.29688,2.05078 -5.08203,3.71093 -7.5,4.93359 -2.41797,1.21875 -4.47266,2 -6.52344,2.78125 4.10547,4.00781 8.21094,8.01172 12.3125,12.01563 2.15234,-4.05469 4.30078,-8.10547 6.32812,-10.83985 2.03125,-2.73828 3.9336,-4.15625 6.23438,-4.62109 2.29687,-0.46094 4.98047,0.0234 6.89062,1.05078 1.90235,1.02734 3.02735,2.58984 3.61329,4.39844 0.58593,1.80859 0.63671,3.85937 0.17187,5.49609 -0.46484,1.63281 -1.44531,2.85547 -2.49219,3.39063 -1.05078,0.53906 -2.17578,0.39453 -2.85937,-0.51172 -0.6836,-0.90235 -0.92969,-2.5625 -1.07422,-3.83203 -0.14844,-1.27344 -0.19531,-2.15235 -0.75781,-2.61329 -0.5625,-0.46875 -1.63672,-0.51171 -2.75782,0.0469 -1.125,0.5625 -2.30078,1.73437 -3.05859,3.25 -0.75391,1.51172 -1.09766,3.37109 -1.44141,5.22656 2.15235,0 4.30079,0 6.6211,1.17188 2.32422,1.17187 4.8125,3.51562 7.03906,5.00781 2.22266,1.48828 4.17578,2.125 6.35547,2.36719 2.17187,0.24218 4.56641,0.0977 6.78906,-0.51172 2.22266,-0.61328 4.27344,-1.6875 5.42578,-1.73438 1.14844,-0.0508 1.39063,0.92578 0.4375,1.95313 -0.95312,1.02344 -3.10156,2.10156 -5.34765,3.02734 -2.25,0.92969 -4.59766,1.71094 -7.77344,1.71094 -3.17578,0 -7.18359,-0.78125 -10.16406,-1.49219 -2.98047,-0.70703 -4.9375,-1.34375 -6.71875,-1.53515 -1.78516,-0.19532 -3.39453,0.0469 -4.22657,0.24218 -0.82812,0.19532 -0.8789,0.34375 -0.92578,0.48828 0.14453,2.78516 0.29297,5.57032 1.14453,7.89063 0.85547,2.31641 2.42188,4.17578 3.91016,5.10156 1.49219,0.92969 2.90625,0.92969 4.12891,0.39453 1.22265,-0.53906 2.25,-1.61328 2.8125,-2.66406 0.55859,-1.05078 0.66015,-2.07812 1.41406,-2.66406 0.75781,-0.58594 2.17578,-0.73438 3.10547,-0.19531 0.92578,0.53906 1.36719,1.75781 1.29297,3.37109 -0.0742,1.60937 -0.65625,3.61328 -2,5.15234 -1.34766,1.53907 -3.44922,2.61328 -5.86719,3.20313 -2.41797,0.58203 -5.15625,0.68359 -7.57422,-0.36719 -2.41797,-1.05078 -4.51953,-3.25 -6.00781,-5.54687 -1.49219,-2.29688 -2.375,-4.6875 -3.25391,-7.08204 -3.71094,3.91016 -7.42578,7.81641 -11.13672,11.72266 2.29297,0.39063 4.58985,0.78125 6.71875,1.48828 2.1211,0.71094 4.07813,1.73438 5.54688,3.07813 1.46094,1.34375 2.4414,3.0039 2.95312,4.88281 0.51172,1.88281 0.5625,3.98437 0.0703,5.91406 -0.48829,1.92969 -1.51172,3.6875 -3.07422,5.10156 -1.56641,1.41797 -3.66407,2.49219 -5.35157,3.00782 -1.6875,0.51172 -2.95703,0.46093 -3.91015,-0.0273 -0.95313,-0.48828 -1.58594,-1.41406 -1.85547,-2.4414 -0.26953,-1.02735 -0.17188,-2.14844 0.46484,-2.87891 0.63282,-0.73437 1.80469,-1.07812 2.88282,-1.46875 1.07421,-0.39062 2.05078,-0.83203 2.71093,-1.5625 0.66016,-0.73437 1,-1.75781 0.73438,-2.80469 -0.26953,-1.05468 -1.15235,-2.1289 -2.27735,-2.91015 -1.12109,-0.78125 -2.48828,-1.26953 -3.8789,-1.51172 -1.39453,-0.2461 -2.8125,-0.2461 -4.23047,-0.2461 0.0508,2.05079 0.0977,4.10157 -0.39063,6.42188 -0.48828,2.32031 -1.51171,4.91016 -2.66406,6.64453 -1.14844,1.73047 -2.41797,2.61328 -3.15234,4.85938 -0.73047,2.24609 -0.92578,5.85937 -0.53516,8.98437 0.39063,3.12891 1.36719,5.76563 1.63672,7.28125 0.26563,1.51563 -0.17187,1.90234 -1.05078,1.21875 -0.87891,-0.68359 -2.19922,-2.44141 -3.39453,-4.61328 -1.19922,-2.17578 -2.27735,-4.76172 -2.51953,-7.8125 -0.24219,-3.05469 0.33984,-6.57422 1.19922,-9.60156 0.85546,-3.02735 1.98046,-5.57032 2.27343,-8.01172 0.29297,-2.44141 -0.25,-4.78516 -0.78515,-7.12891 -2.25,0.33985 -4.4961,0.6836 -6.27735,1.24219 -1.78125,0.5625 -3.10547,1.34375 -4.1289,2.39453 -1.02735,1.05078 -1.76172,2.37109 -2.03125,3.51953 -0.26563,1.14844 -0.0703,2.1211 0.46875,2.87891 0.53515,0.75781 1.41406,1.29687 2.34375,1.5664 0.92578,0.26563 1.90625,0.26563 2.66406,0.58204 0.75781,0.3164 1.29297,0.95312 1.5625,1.80859 0.26562,0.85156 0.26562,1.92969 0.0234,2.87891 -0.2461,0.95312 -0.73047,1.78515 -1.90625,2.17968 -1.17188,0.38672 -3.03125,0.33985 -5.03516,-0.32031 -2,-0.66016 -4.15234,-1.92969 -5.51953,-3.51562 -1.37109,-1.58985 -1.95313,-3.4961 -2.14844,-5.66797 -0.19531,-2.17188 0,-4.61328 0.71094,-6.61719 0.70703,-2.00391 1.92578,-3.56641 3.34375,-4.85938 1.41797,-1.29687 3.03125,-2.32031 4.83594,-3.03125 1.8125,-0.70703 3.8125,-1.09765 2.6914,-3.48828 -1.125,-2.39453 -5.3789,-6.79297 -9.6289,-11.1875 -0.58594,2.29297 -1.17188,4.58985 -2.10157,6.98828 -0.92968,2.39063 -2.19921,4.87891 -3.34765,6.88282 -1.14844,2.0039 -2.17188,3.51953 -3.46875,4.88672 -1.29297,1.36718 -2.85938,2.58593 -4.95703,3.36718 -2.10157,0.78125 -4.74219,1.125 -6.76953,1.05078 -2.02735,-0.0742 -3.44922,-0.5625 -4.6211,-1.60937 -1.17187,-1.05078 -2.09765,-2.66406 -2.5664,-4.54688 -0.46094,-1.875 -0.46094,-4.02343 -0.0977,-5.8789 0.36719,-1.85938 1.10156,-3.42188 2.05469,-4.32422 0.95312,-0.90625 2.125,-1.15234 3.05468,-1.17578 0.92969,-0.0234 1.61329,0.17187 1.9336,0.97656 0.3164,0.80859 0.26562,2.22656 0.21875,3.59375 -0.0508,1.36719 -0.0977,2.68359 0.21875,3.71094 0.3164,1.02344 1,1.75781 2.0039,1.71094 1,-0.0508 2.32032,-0.88282 3.54297,-2.10157 1.22266,-1.22265 2.34375,-2.83593 3.34766,-4.66797 1,-1.82812 1.87891,-3.8789 2.46484,-5.58984 0.58594,-1.71094 0.88282,-3.07812 1.17578,-4.44922 -3.96093,0.19922 -7.91796,0.39453 -11.24218,0.90625 -3.32422,0.51172 -6.01172,1.34375 -8.69532,2.17578 -5.42578,-3.27343 -10.85156,-6.54687 -16.27343,-9.82031 5.51953,-2.44141 11.04297,-4.88281 16.5664,-7.32422 3.22266,0.63281 6.44922,1.26953 9.89453,1.78125 3.44532,0.51172 7.10938,0.90235 10.77735,1.29297 -0.98047,-3.26953 -1.95703,-6.54297 -3.20313,-9.03516 -1.24609,-2.49218 -2.76172,-4.19921 -4.00781,-5.22656 -1.24609,-1.02734 -2.22266,-1.36719 -3.00781,-1.07422 -0.78125,0.29297 -1.36719,1.21875 -1.73047,2.39453 -0.36719,1.17188 -0.51563,2.58985 -1.125,3.44532 -0.60938,0.85156 -1.6875,1.14453 -2.85938,0.875 -1.17578,-0.26563 -2.44531,-1.09766 -2.95703,-2.63672 -0.51562,-1.53906 -0.26953,-3.78516 0.53907,-5.78516 0.80468,-2.0039 2.17187,-3.76562 4.03125,-4.86328 1.85546,-1.09766 4.20312,-1.53906 6.44921,-1.19531 2.25,0.33984 4.39844,1.46484 6.5,3.5664 2.10157,2.09766 4.15625,5.17969 5.4961,8.32813 1.34375,3.15234 1.98047,6.375 2.61328,9.59766 3.96094,-4.39454 7.91797,-8.79297 11.87891,-13.19141 -2.34766,-0.73047 -4.69532,-1.46094 -7.40235,-2.66016 -2.71484,-1.19531 -5.79297,-2.85547 -8.14062,-4.83203 -2.34375,-1.98047 -3.95703,-4.27734 -4.78907,-6.78906 -0.82812,-2.51953 -0.8789,-5.25391 -0.41406,-7.20703 0.46485,-1.95313 1.44141,-3.12891 3.12891,-4.03125 1.68359,-0.90235 4.07812,-1.53906 6.20703,-1.58594 2.125,-0.0508 3.98047,0.48438 5.25,1.19531 1.26953,0.70703 1.95703,1.58985 2.12891,2.54297 0.16796,0.95313 -0.17188,1.97656 -0.92969,2.6836 -0.76172,0.71093 -1.92969,1.09765 -3.17578,1.29687 -1.2461,0.19531 -2.56641,0.19531 -3.42188,0.21875 -0.85547,0.0234 -1.24609,0.0742 -1.46875,0.70703 -0.21875,0.63672 -0.26562,1.85547 0.61328,3.22266 0.88282,1.37109 2.6875,2.88281 4.54688,4.1289 1.85547,1.2461 3.76172,2.22266 5.5664,2.75782 1.8086,0.53906 3.51954,0.63672 5.23047,0.73437 -1.125,-7.32422 -2.24609,-14.65625 -3.37109,-21.98047 z M 173.5625,191.125 c 4.00781,-0.24609 8.01562,-0.48438 12.02344,-0.73047 0.0508,3.61328 0.0977,7.22656 0.14843,10.83984 -4.05859,-3.36718 -8.11328,-6.73828 -12.17187,-10.10937 z m 1.61719,-7.91406 c 3.27343,-0.0469 6.54687,-0.0937 9.82031,-0.14453 -0.44141,-3.125 -0.87891,-6.25 -1.32031,-9.37891 -2.83203,3.17578 -5.66797,6.35156 -8.5,9.52344 z m 16.85937,-9.81641 c 0.0977,2.93359 0.19531,5.86328 0.29297,8.79297 3.02734,-0.0508 6.05859,-0.0977 9.08594,-0.14844 -3.125,-2.8789 -6.25391,-5.76172 -9.37891,-8.64453 z m 1.17188,16.12109 c 0.14843,3.95313 0.29297,7.91407 0.4414,11.86719 3.51563,-3.66406 7.03516,-7.32812 10.55078,-10.98828 -3.66406,-0.29297 -7.32812,-0.58594 -10.99218,-0.87891 z m 0,0"
       fill-opacity="1"
       fill-rule="evenodd"
       id="path4" />
  </g>
</svg>
