<?xml version="1.0" encoding="UTF-8" standalone="no"?>
<svg
   width="500"
   zoomAndPan="magnify"
   viewBox="0 0 375 374.999991"
   height="500"
   preserveAspectRatio="xMidYMid meet"
   version="1.0"
   id="svg4"
   sodipodi:docname="gye-nyame.svg"
   inkscape:version="1.3.2 (091e20e, 2023-11-25)"
   xmlns:inkscape="http://www.inkscape.org/namespaces/inkscape"
   xmlns:sodipodi="http://sodipodi.sourceforge.net/DTD/sodipodi-0.dtd"
   xmlns="http://www.w3.org/2000/svg"
   xmlns:svg="http://www.w3.org/2000/svg">
  <sodipodi:namedview
     id="namedview4"
     pagecolor="#ffffff"
     bordercolor="#000000"
     borderopacity="0.25"
     inkscape:showpageshadow="2"
     inkscape:pageopacity="0.0"
     inkscape:pagecheckerboard="0"
     inkscape:deskcolor="#d1d1d1"
     inkscape:zoom="0.472"
     inkscape:cx="248.94068"
     inkscape:cy="250"
     inkscape:window-width="1312"
     inkscape:window-height="449"
     inkscape:window-x="0"
     inkscape:window-y="25"
     inkscape:window-maximized="0"
     inkscape:current-layer="svg4" />
  <defs
     id="defs2">
    <clipPath
       id="63fcefdce0">
      <path
         d="M 112.5 112.5 L 262.5 112.5 L 262.5 262.5 L 112.5 262.5 Z M 112.5 112.5 "
         clip-rule="nonzero"
         id="path1" />
    </clipPath>
    <clipPath
       id="aa4abb03f7">
      <path
         d="M 145 137.472656 L 230.351562 137.472656 L 230.351562 237 L 145 237 Z M 145 137.472656 "
         clip-rule="nonzero"
         id="path2" />
    </clipPath>
  </defs>
  <g
     clip-path="url(#63fcefdce0)"
     id="g3">
    <path
       fill="#65934b"
       d="M 262.5 187.5 C 262.5 188.726562 262.46875 189.953125 262.410156 191.179688 C 262.347656 192.40625 262.257812 193.628906 262.140625 194.851562 C 262.019531 196.074219 261.867188 197.289062 261.6875 198.503906 C 261.507812 199.71875 261.296875 200.929688 261.058594 202.132812 C 260.820312 203.335938 260.550781 204.53125 260.253906 205.722656 C 259.953125 206.914062 259.625 208.097656 259.269531 209.269531 C 258.914062 210.445312 258.527344 211.609375 258.117188 212.765625 C 257.703125 213.921875 257.261719 215.066406 256.789062 216.203125 C 256.320312 217.335938 255.824219 218.457031 255.300781 219.566406 C 254.773438 220.675781 254.222656 221.773438 253.644531 222.855469 C 253.066406 223.9375 252.460938 225.003906 251.828125 226.058594 C 251.199219 227.109375 250.542969 228.148438 249.859375 229.167969 C 249.179688 230.1875 248.472656 231.191406 247.742188 232.175781 C 247.007812 233.164062 246.253906 234.128906 245.476562 235.078125 C 244.695312 236.027344 243.894531 236.957031 243.070312 237.867188 C 242.246094 238.777344 241.402344 239.664062 240.53125 240.53125 C 239.664062 241.402344 238.777344 242.246094 237.867188 243.070312 C 236.957031 243.894531 236.027344 244.695312 235.078125 245.476562 C 234.128906 246.253906 233.164062 247.007812 232.175781 247.742188 C 231.191406 248.472656 230.1875 249.179688 229.167969 249.859375 C 228.148438 250.542969 227.109375 251.199219 226.058594 251.828125 C 225.003906 252.460938 223.9375 253.066406 222.855469 253.644531 C 221.773438 254.222656 220.675781 254.773438 219.566406 255.300781 C 218.457031 255.824219 217.335938 256.320312 216.203125 256.789062 C 215.066406 257.261719 213.921875 257.703125 212.765625 258.117188 C 211.609375 258.527344 210.445312 258.914062 209.269531 259.269531 C 208.097656 259.625 206.914062 259.953125 205.722656 260.253906 C 204.53125 260.550781 203.335938 260.820312 202.132812 261.058594 C 200.929688 261.296875 199.71875 261.507812 198.503906 261.6875 C 197.289062 261.867188 196.074219 262.019531 194.851562 262.140625 C 193.628906 262.257812 192.40625 262.347656 191.179688 262.410156 C 189.953125 262.46875 188.726562 262.5 187.5 262.5 C 186.273438 262.5 185.046875 262.46875 183.820312 262.410156 C 182.59375 262.347656 181.371094 262.257812 180.148438 262.140625 C 178.925781 262.019531 177.710938 261.867188 176.496094 261.6875 C 175.28125 261.507812 174.070312 261.296875 172.867188 261.058594 C 171.664062 260.820312 170.46875 260.550781 169.277344 260.253906 C 168.085938 259.953125 166.902344 259.625 165.730469 259.269531 C 164.554688 258.914062 163.390625 258.527344 162.234375 258.117188 C 161.078125 257.703125 159.933594 257.261719 158.796875 256.789062 C 157.664062 256.320312 156.542969 255.824219 155.433594 255.300781 C 154.324219 254.773438 153.226562 254.222656 152.144531 253.644531 C 151.0625 253.066406 149.996094 252.460938 148.941406 251.828125 C 147.890625 251.199219 146.851562 250.542969 145.832031 249.859375 C 144.8125 249.179688 143.808594 248.472656 142.824219 247.742188 C 141.835938 247.007812 140.871094 246.253906 139.921875 245.476562 C 138.972656 244.695312 138.042969 243.894531 137.132812 243.070312 C 136.222656 242.246094 135.335938 241.402344 134.46875 240.53125 C 133.597656 239.664062 132.753906 238.777344 131.929688 237.867188 C 131.105469 236.957031 130.304688 236.027344 129.523438 235.078125 C 128.746094 234.128906 127.992188 233.164062 127.257812 232.175781 C 126.527344 231.191406 125.820312 230.1875 125.140625 229.167969 C 124.457031 228.148438 123.800781 227.109375 123.171875 226.058594 C 122.539062 225.003906 121.933594 223.9375 121.355469 222.855469 C 120.777344 221.773438 120.226562 220.675781 119.699219 219.566406 C 119.175781 218.457031 118.679688 217.335938 118.210938 216.203125 C 117.738281 215.066406 117.296875 213.921875 116.882812 212.765625 C 116.46875 211.609375 116.085938 210.445312 115.730469 209.269531 C 115.375 208.097656 115.046875 206.914062 114.746094 205.722656 C 114.449219 204.53125 114.179688 203.335938 113.941406 202.132812 C 113.703125 200.929688 113.492188 199.71875 113.3125 198.503906 C 113.132812 197.289062 112.980469 196.074219 112.859375 194.851562 C 112.742188 193.628906 112.652344 192.40625 112.589844 191.179688 C 112.53125 189.953125 112.5 188.726562 112.5 187.5 C 112.5 186.273438 112.53125 185.046875 112.589844 183.820312 C 112.652344 182.59375 112.742188 181.371094 112.859375 180.148438 C 112.980469 178.925781 113.132812 177.710938 113.3125 176.496094 C 113.492188 175.28125 113.703125 174.070312 113.941406 172.867188 C 114.179688 171.664062 114.449219 170.46875 114.746094 169.277344 C 115.046875 168.085938 115.375 166.902344 115.730469 165.730469 C 116.085938 164.554688 116.46875 163.390625 116.882812 162.234375 C 117.296875 161.078125 117.738281 159.933594 118.210938 158.796875 C 118.679688 157.664062 119.175781 156.542969 119.699219 155.433594 C 120.226562 154.324219 120.777344 153.226562 121.355469 152.144531 C 121.933594 151.0625 122.539062 149.996094 123.171875 148.941406 C 123.800781 147.890625 124.457031 146.851562 125.140625 145.832031 C 125.820312 144.8125 126.527344 143.808594 127.257812 142.824219 C 127.992188 141.835938 128.746094 140.871094 129.523438 139.921875 C 130.304688 138.972656 131.105469 138.042969 131.929688 137.132812 C 132.753906 136.222656 133.597656 135.335938 134.46875 134.46875 C 135.335938 133.597656 136.222656 132.753906 137.132812 131.929688 C 138.042969 131.105469 138.972656 130.304688 139.921875 129.523438 C 140.871094 128.746094 141.835938 127.992188 142.824219 127.257812 C 143.808594 126.527344 144.8125 125.820312 145.832031 125.140625 C 146.851562 124.457031 147.890625 123.800781 148.941406 123.171875 C 149.996094 122.539062 151.0625 121.933594 152.144531 121.355469 C 153.226562 120.777344 154.324219 120.226562 155.433594 119.699219 C 156.542969 119.175781 157.664062 118.679688 158.796875 118.210938 C 159.933594 117.738281 161.078125 117.296875 162.234375 116.882812 C 163.390625 116.46875 164.554688 116.085938 165.730469 115.730469 C 166.902344 115.375 168.085938 115.046875 169.277344 114.746094 C 170.46875 114.449219 171.664062 114.179688 172.867188 113.941406 C 174.070312 113.703125 175.28125 113.492188 176.496094 113.3125 C 177.710938 113.132812 178.925781 112.980469 180.148438 112.859375 C 181.371094 112.742188 182.59375 112.652344 183.820312 112.589844 C 185.046875 112.53125 186.273438 112.5 187.5 112.5 C 188.726562 112.5 189.953125 112.53125 191.179688 112.589844 C 192.40625 112.652344 193.628906 112.742188 194.851562 112.859375 C 196.074219 112.980469 197.289062 113.132812 198.503906 113.3125 C 199.71875 113.492188 200.929688 113.703125 202.132812 113.941406 C 203.335938 114.179688 204.53125 114.449219 205.722656 114.746094 C 206.914062 115.046875 208.097656 115.375 209.269531 115.730469 C 210.445312 116.085938 211.609375 116.46875 212.765625 116.882812 C 213.921875 117.296875 215.066406 117.738281 216.203125 118.210938 C 217.335938 118.679688 218.457031 119.175781 219.566406 119.699219 C 220.675781 120.226562 221.773438 120.777344 222.855469 121.355469 C 223.9375 121.933594 225.003906 122.539062 226.058594 123.171875 C 227.109375 123.800781 228.148438 124.457031 229.167969 125.140625 C 230.1875 125.820312 231.191406 126.527344 232.175781 127.257812 C 233.164062 127.992188 234.128906 128.746094 235.078125 129.523438 C 236.027344 130.304688 236.957031 131.105469 237.867188 131.929688 C 238.777344 132.753906 239.664062 133.597656 240.53125 134.46875 C 241.402344 135.335938 242.246094 136.222656 243.070312 137.132812 C 243.894531 138.042969 244.695312 138.972656 245.476562 139.921875 C 246.253906 140.871094 247.007812 141.835938 247.742188 142.824219 C 248.472656 143.808594 249.179688 144.8125 249.859375 145.832031 C 250.542969 146.851562 251.199219 147.890625 251.828125 148.941406 C 252.460938 149.996094 253.066406 151.0625 253.644531 152.144531 C 254.222656 153.226562 254.773438 154.324219 255.300781 155.433594 C 255.824219 156.542969 256.320312 157.664062 256.789062 158.796875 C 257.261719 159.933594 257.703125 161.078125 258.117188 162.234375 C 258.527344 163.390625 258.914062 164.554688 259.269531 165.730469 C 259.625 166.902344 259.953125 168.085938 260.253906 169.277344 C 260.550781 170.46875 260.820312 171.664062 261.058594 172.867188 C 261.296875 174.070312 261.507812 175.28125 261.6875 176.496094 C 261.867188 177.710938 262.019531 178.925781 262.140625 180.148438 C 262.257812 181.371094 262.347656 182.59375 262.410156 183.820312 C 262.46875 185.046875 262.5 186.273438 262.5 187.5 Z M 262.5 187.5 "
       fill-opacity="1"
       fill-rule="nonzero"
       id="path3" />
  </g>
  <g
     clip-path="url(#aa4abb03f7)"
     id="g4">
    <path
       fill="#000000"
       d="m 148.75781,214.44531 c 0.27344,-6.04297 0.54688,-12.08203 1.85938,-17.49609 1.3164,-5.41016 3.67187,-10.1875 6.98047,-15.01172 3.30859,-4.82422 7.57031,-9.69531 11.28906,-12.89453 3.71484,-3.20313 6.89062,-4.73828 9.29297,-5.23438 2.40234,-0.49609 4.03515,0.0469 4.53515,1.35547 0.4961,1.3086 -0.13672,3.37891 -3.44531,5.76953 -3.30859,2.39063 -9.29297,5.09375 -12.37891,7.26172 -3.08203,2.16016 -3.26562,3.78516 -2.49218,5.00391 0.76953,1.21875 2.49218,2.02734 5.03125,1.98437 2.53906,-0.0469 5.89453,-0.94922 8.43359,-1.1289 2.53906,-0.17969 4.26172,0.35937 4.625,1.35156 0.36328,0.99219 -0.63672,2.4375 -3.21875,4.01562 -2.58594,1.57813 -6.75391,3.28907 -9.60937,5.23047 -2.85938,1.9375 -4.39844,4.10157 -5.07813,6.08594 -0.68359,1.98047 -0.5,3.78906 0.76953,4.55469 1.26953,0.76562 3.625,0.49609 6.1211,-0.0469 2.49218,-0.53906 5.12109,-1.35156 6.98046,-1.48437 1.85547,-0.13672 2.94532,0.40234 2.8086,1.52734 -0.13672,1.12891 -1.49219,2.84375 -4.44141,5.14453 -2.94531,2.29688 -7.48047,5.1836 -9.74609,8.20313 -2.26953,3.01953 -2.26953,6.17969 -1.76953,8.97656 0.5,2.79297 1.49609,5.22656 3.44531,6.48828 1.94922,1.26172 4.85156,1.35547 7.66406,-0.26953 2.8086,-1.625 5.52735,-4.95703 7.70313,-6.58203 2.17578,-1.625 3.80859,-1.53125 4.67187,-0.26953 0.86328,1.26172 0.95313,3.69531 1.90235,5.59375 0.95312,1.89062 2.76562,3.24219 4.9414,3.92187 2.17578,0.67578 4.71485,0.67578 6.75391,-0.49609 2.03906,-1.17188 3.58203,-3.51953 3.67187,-5.77344 0.0937,-2.2539 -1.26953,-4.41797 -2.6289,-6.58203 5.89453,-3.24609 11.78906,-6.49219 16.27734,-11.09375 4.48828,-4.59766 7.56641,-10.55078 9.10938,-16.09766 1.53906,-5.54687 1.53906,-10.68359 0.36328,-16.45312 C 228,174.22654 225.64453,167.8242 223.375,163.1367 c -2.26563,-4.69141 -4.44141,-7.66797 -6.61719,-10.64453 0.36328,6.49218 0.72656,12.98828 0.86328,19.03125 0.13672,6.03906 0.043,11.6289 -0.58984,16.76953 -0.63672,5.14062 -1.8125,9.83203 -4.03516,13.84375 -2.22265,4.01172 -5.48437,7.34765 -8.88672,9.42578 -3.40234,2.07031 -6.93359,2.88281 -8.83593,2.34375 -1.90625,-0.54297 -2.17969,-2.4375 -0.77344,-4.33203 1.40625,-1.89063 4.48828,-3.78516 7.11719,-5.58594 2.6289,-1.80859 4.80468,-3.52344 5.75781,-5.41406 0.95312,-1.89453 0.67969,-3.96875 -0.85938,-4.6875 -1.54296,-0.72266 -4.35156,-0.0937 -6.75781,0.40625 -2.40234,0.49609 -4.39453,0.85156 -6.34375,0.22656 -1.95312,-0.63281 -3.85547,-2.25781 -4.03515,-3.92578 -0.1836,-1.66797 1.35937,-3.38281 3.67187,-4.41797 2.30859,-1.03906 5.39453,-1.39844 8.25,-2.97656 2.85547,-1.57813 5.48438,-4.375 6.48047,-6.49219 0.99609,-2.12109 0.36328,-3.5625 -1.12891,-4.01562 -1.5,-0.44922 -3.85937,0.0898 -6.66797,0.63281 -2.80859,0.54297 -6.07421,1.08203 -7.83984,0.72265 -1.76953,-0.36328 -2.04297,-1.625 -1.13672,-3.69921 0.90625,-2.07422 2.99219,-4.96094 6.03125,-8.20704 3.03516,-3.24609 7.02735,-6.85546 9.01953,-10.05468 1.9961,-3.19922 1.9961,-5.9961 0.81641,-8.11328 -1.17969,-2.1211 -3.53516,-3.5625 -6.07422,-4.14844 -2.53906,-0.58985 -5.25781,-0.31641 -7.52344,1.17187 -2.26953,1.48828 -4.08203,4.19141 -5.84765,5.9961 -1.76953,1.80078 -3.49219,2.70703 -4.98828,2.39062 -1.4961,-0.3164 -2.76563,-1.84765 -3.53516,-3.78906 -0.77344,-1.9375 -1.04297,-4.28125 -2.67578,-5.81641 -1.63281,-1.53515 -4.625,-2.2539 -7.07031,-1.71093 -2.44922,0.53906 -4.35547,2.34375 -4.44532,4.64453 -0.0898,2.30078 1.63282,5.09375 3.35547,7.88672 -6.16406,3.8789 -12.33203,7.75781 -16.13672,12.71875 -3.80859,4.95703 -5.26172,11 -6.07422,16.90625 -0.8164,5.90625 -1,11.67578 -0.41015,17.35937 0.58984,5.67969 1.94922,11.27344 3.30859,16.86328 z m 0,0"
       fill-opacity="1"
       fill-rule="evenodd"
       id="path4" />
  </g>
</svg>
