<?xml version="1.0" encoding="UTF-8" standalone="no"?>
<svg
   width="200"
   zoomAndPan="magnify"
   viewBox="0 0 150 150"
   height="200"
   preserveAspectRatio="xMidYMid"
   version="1.0"
   id="svg4"
   sodipodi:docname="gye-nyame.svg"
   inkscape:version="1.3.2 (091e20e, 2023-11-25, custom)"
   xmlns:inkscape="http://www.inkscape.org/namespaces/inkscape"
   xmlns:sodipodi="http://sodipodi.sourceforge.net/DTD/sodipodi-0.dtd"
   xmlns="http://www.w3.org/2000/svg"
   xmlns:svg="http://www.w3.org/2000/svg">
  <sodipodi:namedview
     id="namedview4"
     pagecolor="#ffffff"
     bordercolor="#000000"
     borderopacity="0.25"
     inkscape:showpageshadow="2"
     inkscape:pageopacity="0.0"
     inkscape:pagecheckerboard="0"
     inkscape:deskcolor="#d1d1d1"
     inkscape:zoom="0.472"
     inkscape:cx="99.576271"
     inkscape:cy="99.576271"
     inkscape:window-width="1312"
     inkscape:window-height="461"
     inkscape:window-x="0"
     inkscape:window-y="25"
     inkscape:window-maximized="0"
     inkscape:current-layer="svg4" />
  <defs
     id="defs2">
    <clipPath
       id="63fcefdce0">
      <path
         d="m 112.5,112.5 h 150 v 150 h -150 z m 0,0"
         clip-rule="nonzero"
         id="path1" />
    </clipPath>
    <clipPath
       id="aa4abb03f7">
      <path
         d="m 145,137.47266 h 85.35156 V 237 H 145 Z m 0,0"
         clip-rule="nonzero"
         id="path2" />
    </clipPath>
  </defs>
  <g
     clip-path="url(#63fcefdce0)"
     id="g3"
     transform="translate(-112.5,-112.5)">
    <path
       fill="#65934b"
       d="m 262.5,187.5 c 0,1.22656 -0.0312,2.45312 -0.0898,3.67969 -0.0625,1.22656 -0.15235,2.44922 -0.26954,3.67187 -0.12109,1.22266 -0.27343,2.4375 -0.45312,3.65235 -0.17969,1.21484 -0.39063,2.42578 -0.62891,3.6289 -0.23828,1.20313 -0.50781,2.39844 -0.80468,3.58985 -0.30079,1.1914 -0.62891,2.375 -0.98438,3.54687 -0.35547,1.17578 -0.74219,2.33984 -1.15234,3.49609 -0.41407,1.15625 -0.85547,2.30079 -1.32813,3.4375 -0.46875,1.13282 -0.96484,2.25391 -1.48828,3.36329 -0.52734,1.10937 -1.07812,2.20703 -1.65625,3.28906 -0.57812,1.08203 -1.18359,2.14844 -1.81641,3.20312 -0.6289,1.05078 -1.28515,2.08985 -1.96875,3.10938 -0.67968,1.01953 -1.38671,2.02344 -2.11718,3.00781 -0.73438,0.98828 -1.48828,1.95313 -2.26563,2.90234 -0.78125,0.94922 -1.58203,1.87891 -2.40625,2.78907 -0.82422,0.91015 -1.66797,1.79687 -2.53906,2.66406 -0.86719,0.87109 -1.75391,1.71484 -2.66406,2.53906 -0.91016,0.82422 -1.83985,1.625 -2.78907,2.40625 -0.94921,0.77735 -1.91406,1.53125 -2.90234,2.26563 -0.98437,0.73047 -1.98828,1.4375 -3.00781,2.11718 -1.01953,0.6836 -2.0586,1.33985 -3.10938,1.96875 -1.05468,0.63282 -2.12109,1.23829 -3.20312,1.81641 -1.08203,0.57813 -2.17969,1.12891 -3.28906,1.65625 -1.10938,0.52344 -2.23047,1.01953 -3.36329,1.48828 -1.13671,0.47266 -2.28125,0.91406 -3.4375,1.32813 -1.15625,0.41015 -2.32031,0.79687 -3.49609,1.15234 -1.17187,0.35547 -2.35547,0.68359 -3.54687,0.98438 -1.19141,0.29687 -2.38672,0.5664 -3.58985,0.80468 -1.20312,0.23828 -2.41406,0.44922 -3.6289,0.62891 -1.21485,0.17969 -2.42969,0.33203 -3.65235,0.45312 -1.22265,0.11719 -2.44531,0.20704 -3.67187,0.26954 -1.22657,0.0586 -2.45313,0.0898 -3.67969,0.0898 -1.22656,0 -2.45313,-0.0312 -3.67969,-0.0898 -1.22656,-0.0625 -2.44922,-0.15235 -3.67187,-0.26954 -1.22266,-0.12109 -2.4375,-0.27343 -3.65235,-0.45312 -1.21484,-0.17969 -2.42578,-0.39063 -3.6289,-0.62891 -1.20313,-0.23828 -2.39844,-0.50781 -3.58985,-0.80468 -1.1914,-0.30079 -2.375,-0.62891 -3.54687,-0.98438 -1.17578,-0.35547 -2.33985,-0.74219 -3.4961,-1.15234 -1.15625,-0.41407 -2.30078,-0.85547 -3.4375,-1.32813 -1.13281,-0.46875 -2.2539,-0.96484 -3.36328,-1.48828 -1.10937,-0.52734 -2.20703,-1.07812 -3.28906,-1.65625 -1.08203,-0.57812 -2.14844,-1.18359 -3.20312,-1.81641 -1.05079,-0.6289 -2.08985,-1.28515 -3.10938,-1.96875 -1.01953,-0.67968 -2.02344,-1.38671 -3.00781,-2.11718 -0.98828,-0.73438 -1.95313,-1.48828 -2.90235,-2.26563 -0.94921,-0.78125 -1.8789,-1.58203 -2.78906,-2.40625 -0.91015,-0.82422 -1.79687,-1.66797 -2.66406,-2.53906 -0.87109,-0.86719 -1.71484,-1.75391 -2.53906,-2.66406 -0.82422,-0.91016 -1.625,-1.83985 -2.40625,-2.78907 -0.77735,-0.94921 -1.53125,-1.91406 -2.26563,-2.90234 -0.73047,-0.98437 -1.4375,-1.98828 -2.11718,-3.00781 -0.6836,-1.01953 -1.33985,-2.0586 -1.96875,-3.10938 -0.63282,-1.05468 -1.23829,-2.12109 -1.81641,-3.20312 -0.57813,-1.08203 -1.12891,-2.17969 -1.65625,-3.28906 -0.52344,-1.10938 -1.01953,-2.23047 -1.48828,-3.36329 -0.47266,-1.13671 -0.91406,-2.28125 -1.32813,-3.4375 -0.41406,-1.15625 -0.79687,-2.32031 -1.15234,-3.49609 -0.35547,-1.17187 -0.68359,-2.35547 -0.98438,-3.54687 -0.29687,-1.19141 -0.5664,-2.38672 -0.80468,-3.58985 -0.23828,-1.20312 -0.44922,-2.41406 -0.62891,-3.6289 -0.17969,-1.21485 -0.33203,-2.42969 -0.45312,-3.65235 -0.11719,-1.22265 -0.20704,-2.44531 -0.26954,-3.67187 -0.0586,-1.22657 -0.0898,-2.45313 -0.0898,-3.67969 0,-1.22656 0.0312,-2.45313 0.0898,-3.67969 0.0625,-1.22656 0.15235,-2.44922 0.26954,-3.67187 0.12109,-1.22266 0.27343,-2.4375 0.45312,-3.65235 0.17969,-1.21484 0.39063,-2.42578 0.62891,-3.6289 0.23828,-1.20313 0.50781,-2.39844 0.80468,-3.58985 0.30079,-1.1914 0.62891,-2.375 0.98438,-3.54687 0.35547,-1.17578 0.73828,-2.33985 1.15234,-3.4961 0.41407,-1.15625 0.85547,-2.30078 1.32813,-3.4375 0.46875,-1.13281 0.96484,-2.2539 1.48828,-3.36328 0.52734,-1.10937 1.07812,-2.20703 1.65625,-3.28906 0.57812,-1.08203 1.18359,-2.14844 1.81641,-3.20312 0.6289,-1.05079 1.28515,-2.08985 1.96875,-3.10938 0.67968,-1.01953 1.38671,-2.02344 2.11718,-3.00781 0.73438,-0.98828 1.48828,-1.95313 2.26563,-2.90235 0.78125,-0.94921 1.58203,-1.8789 2.40625,-2.78906 0.82422,-0.91015 1.66797,-1.79687 2.53906,-2.66406 0.86719,-0.87109 1.75391,-1.71484 2.66406,-2.53906 0.91016,-0.82422 1.83985,-1.625 2.78906,-2.40625 0.94922,-0.77735 1.91407,-1.53125 2.90235,-2.26563 0.98437,-0.73047 1.98828,-1.4375 3.00781,-2.11718 1.01953,-0.6836 2.05859,-1.33985 3.10938,-1.96875 1.05468,-0.63282 2.12109,-1.23829 3.20312,-1.81641 1.08203,-0.57813 2.17969,-1.12891 3.28906,-1.65625 1.10938,-0.52344 2.23047,-1.01953 3.36328,-1.48828 1.13672,-0.47266 2.28125,-0.91406 3.4375,-1.32813 1.15625,-0.41406 2.32032,-0.79687 3.4961,-1.15234 1.17187,-0.35547 2.35547,-0.68359 3.54687,-0.98438 1.19141,-0.29687 2.38672,-0.5664 3.58985,-0.80468 1.20312,-0.23828 2.41406,-0.44922 3.6289,-0.62891 1.21485,-0.17969 2.42969,-0.33203 3.65235,-0.45312 1.22265,-0.11719 2.44531,-0.20704 3.67187,-0.26954 1.22656,-0.0586 2.45313,-0.0898 3.67969,-0.0898 1.22656,0 2.45312,0.0312 3.67969,0.0898 1.22656,0.0625 2.44922,0.15235 3.67187,0.26954 1.22266,0.12109 2.4375,0.27343 3.65235,0.45312 1.21484,0.17969 2.42578,0.39063 3.6289,0.62891 1.20313,0.23828 2.39844,0.50781 3.58985,0.80468 1.1914,0.30079 2.375,0.62891 3.54687,0.98438 1.17578,0.35547 2.33984,0.73828 3.49609,1.15234 1.15625,0.41407 2.30079,0.85547 3.4375,1.32813 1.13282,0.46875 2.25391,0.96484 3.36329,1.48828 1.10937,0.52734 2.20703,1.07812 3.28906,1.65625 1.08203,0.57812 2.14844,1.18359 3.20312,1.81641 1.05078,0.6289 2.08985,1.28515 3.10938,1.96875 1.01953,0.67968 2.02344,1.38671 3.00781,2.11718 0.98828,0.73438 1.95313,1.48828 2.90234,2.26563 0.94922,0.78125 1.87891,1.58203 2.78907,2.40625 0.91015,0.82422 1.79687,1.66797 2.66406,2.53906 0.87109,0.86719 1.71484,1.75391 2.53906,2.66406 0.82422,0.91016 1.625,1.83985 2.40625,2.78906 0.77735,0.94922 1.53125,1.91407 2.26563,2.90235 0.73047,0.98437 1.4375,1.98828 2.11718,3.00781 0.6836,1.01953 1.33985,2.05859 1.96875,3.10938 0.63282,1.05468 1.23829,2.12109 1.81641,3.20312 0.57813,1.08203 1.12891,2.17969 1.65625,3.28906 0.52344,1.10938 1.01953,2.23047 1.48828,3.36328 0.47266,1.13672 0.91406,2.28125 1.32813,3.4375 0.41015,1.15625 0.79687,2.32032 1.15234,3.4961 0.35547,1.17187 0.68359,2.35547 0.98438,3.54687 0.29687,1.19141 0.5664,2.38672 0.80468,3.58985 0.23828,1.20312 0.44922,2.41406 0.62891,3.6289 0.17969,1.21485 0.33203,2.42969 0.45312,3.65235 0.11719,1.22265 0.20704,2.44531 0.26954,3.67187 0.0586,1.22656 0.0898,2.45313 0.0898,3.67969 z m 0,0"
       fill-opacity="1"
       fill-rule="nonzero"
       id="path3" />
  </g>
  <g
     clip-path="url(#aa4abb03f7)"
     id="g4"
     transform="translate(-112.5,-112.5)">
    <path
       fill="#000000"
       d="m 148.75781,214.44531 c 0.27344,-6.04297 0.54688,-12.08203 1.85938,-17.49609 1.3164,-5.41016 3.67187,-10.1875 6.98047,-15.01172 3.30859,-4.82422 7.57031,-9.69531 11.28906,-12.89453 3.71484,-3.20313 6.89062,-4.73828 9.29297,-5.23438 2.40234,-0.49609 4.03515,0.0469 4.53515,1.35547 0.4961,1.3086 -0.13672,3.37891 -3.44531,5.76953 -3.30859,2.39063 -9.29297,5.09375 -12.37891,7.26172 -3.08203,2.16016 -3.26562,3.78516 -2.49218,5.00391 0.76953,1.21875 2.49218,2.02734 5.03125,1.98437 2.53906,-0.0469 5.89453,-0.94922 8.43359,-1.1289 2.53906,-0.17969 4.26172,0.35937 4.625,1.35156 0.36328,0.99219 -0.63672,2.4375 -3.21875,4.01562 -2.58594,1.57813 -6.75391,3.28907 -9.60937,5.23047 -2.85938,1.9375 -4.39844,4.10157 -5.07813,6.08594 -0.68359,1.98047 -0.5,3.78906 0.76953,4.55469 1.26953,0.76562 3.625,0.49609 6.1211,-0.0469 2.49218,-0.53906 5.12109,-1.35156 6.98046,-1.48437 1.85547,-0.13672 2.94532,0.40234 2.8086,1.52734 -0.13672,1.12891 -1.49219,2.84375 -4.44141,5.14453 -2.94531,2.29688 -7.48047,5.1836 -9.74609,8.20313 -2.26953,3.01953 -2.26953,6.17969 -1.76953,8.97656 0.5,2.79297 1.49609,5.22656 3.44531,6.48828 1.94922,1.26172 4.85156,1.35547 7.66406,-0.26953 2.8086,-1.625 5.52735,-4.95703 7.70313,-6.58203 2.17578,-1.625 3.80859,-1.53125 4.67187,-0.26953 0.86328,1.26172 0.95313,3.69531 1.90235,5.59375 0.95312,1.89062 2.76562,3.24219 4.9414,3.92187 2.17578,0.67578 4.71485,0.67578 6.75391,-0.49609 2.03906,-1.17188 3.58203,-3.51953 3.67187,-5.77344 0.0937,-2.2539 -1.26953,-4.41797 -2.6289,-6.58203 5.89453,-3.24609 11.78906,-6.49219 16.27734,-11.09375 4.48828,-4.59766 7.56641,-10.55078 9.10938,-16.09766 1.53906,-5.54687 1.53906,-10.68359 0.36328,-16.45312 C 228,174.22654 225.64453,167.8242 223.375,163.1367 c -2.26563,-4.69141 -4.44141,-7.66797 -6.61719,-10.64453 0.36328,6.49218 0.72656,12.98828 0.86328,19.03125 0.13672,6.03906 0.043,11.6289 -0.58984,16.76953 -0.63672,5.14062 -1.8125,9.83203 -4.03516,13.84375 -2.22265,4.01172 -5.48437,7.34765 -8.88672,9.42578 -3.40234,2.07031 -6.93359,2.88281 -8.83593,2.34375 -1.90625,-0.54297 -2.17969,-2.4375 -0.77344,-4.33203 1.40625,-1.89063 4.48828,-3.78516 7.11719,-5.58594 2.6289,-1.80859 4.80468,-3.52344 5.75781,-5.41406 0.95312,-1.89453 0.67969,-3.96875 -0.85938,-4.6875 -1.54296,-0.72266 -4.35156,-0.0937 -6.75781,0.40625 -2.40234,0.49609 -4.39453,0.85156 -6.34375,0.22656 -1.95312,-0.63281 -3.85547,-2.25781 -4.03515,-3.92578 -0.1836,-1.66797 1.35937,-3.38281 3.67187,-4.41797 2.30859,-1.03906 5.39453,-1.39844 8.25,-2.97656 2.85547,-1.57813 5.48438,-4.375 6.48047,-6.49219 0.99609,-2.12109 0.36328,-3.5625 -1.12891,-4.01562 -1.5,-0.44922 -3.85937,0.0898 -6.66797,0.63281 -2.80859,0.54297 -6.07421,1.08203 -7.83984,0.72265 -1.76953,-0.36328 -2.04297,-1.625 -1.13672,-3.69921 0.90625,-2.07422 2.99219,-4.96094 6.03125,-8.20704 3.03516,-3.24609 7.02735,-6.85546 9.01953,-10.05468 1.9961,-3.19922 1.9961,-5.9961 0.81641,-8.11328 -1.17969,-2.1211 -3.53516,-3.5625 -6.07422,-4.14844 -2.53906,-0.58985 -5.25781,-0.31641 -7.52344,1.17187 -2.26953,1.48828 -4.08203,4.19141 -5.84765,5.9961 -1.76953,1.80078 -3.49219,2.70703 -4.98828,2.39062 -1.4961,-0.3164 -2.76563,-1.84765 -3.53516,-3.78906 -0.77344,-1.9375 -1.04297,-4.28125 -2.67578,-5.81641 -1.63281,-1.53515 -4.625,-2.2539 -7.07031,-1.71093 -2.44922,0.53906 -4.35547,2.34375 -4.44532,4.64453 -0.0898,2.30078 1.63282,5.09375 3.35547,7.88672 -6.16406,3.8789 -12.33203,7.75781 -16.13672,12.71875 -3.80859,4.95703 -5.26172,11 -6.07422,16.90625 -0.8164,5.90625 -1,11.67578 -0.41015,17.35937 0.58984,5.67969 1.94922,11.27344 3.30859,16.86328 z m 0,0"
       fill-opacity="1"
       fill-rule="evenodd"
       id="path4" />
  </g>
</svg>
