<?xml version="1.0" encoding="UTF-8" standalone="no"?>
<svg
   width="500"
   zoomAndPan="magnify"
   viewBox="0 0 375 374.999991"
   height="500"
   preserveAspectRatio="xMidYMid meet"
   version="1.0"
   id="svg5"
   sodipodi:docname="sankofa.svg"
   inkscape:version="1.3.2 (091e20e, 2023-11-25)"
   xmlns:inkscape="http://www.inkscape.org/namespaces/inkscape"
   xmlns:sodipodi="http://sodipodi.sourceforge.net/DTD/sodipodi-0.dtd"
   xmlns="http://www.w3.org/2000/svg"
   xmlns:svg="http://www.w3.org/2000/svg">
  <sodipodi:namedview
     id="namedview5"
     pagecolor="#ffffff"
     bordercolor="#000000"
     borderopacity="0.25"
     inkscape:showpageshadow="2"
     inkscape:pageopacity="0.0"
     inkscape:pagecheckerboard="0"
     inkscape:deskcolor="#d1d1d1"
     inkscape:zoom="0.88964472"
     inkscape:cx="228.743"
     inkscape:cy="256.28208"
     inkscape:window-width="1312"
     inkscape:window-height="449"
     inkscape:window-x="0"
     inkscape:window-y="25"
     inkscape:window-maximized="0"
     inkscape:current-layer="svg5" />
  <defs
     id="defs2">
    <clipPath
       id="c66baf4421">
      <path
         d="M 112.5 112.5 L 262.5 112.5 L 262.5 262.5 L 112.5 262.5 Z M 112.5 112.5 "
         clip-rule="nonzero"
         id="path1" />
    </clipPath>
    <clipPath
       id="b7f68fbeda">
      <path
         d="M 147 136 L 229.589844 136 L 229.589844 240.3125 L 147 240.3125 Z M 147 136 "
         clip-rule="nonzero"
         id="path2" />
    </clipPath>
  </defs>
  <g
     clip-path="url(#c66baf4421)"
     id="g3"
     transform="translate(2.5290995,-2.5290995)">
    <path
       fill="#65934b"
       d="m 262.5,187.5 c 0,1.22656 -0.0312,2.45312 -0.0898,3.67969 -0.0625,1.22656 -0.15235,2.44922 -0.26954,3.67187 -0.12109,1.22266 -0.27343,2.4375 -0.45312,3.65235 -0.17969,1.21484 -0.39063,2.42578 -0.62891,3.6289 -0.23828,1.20313 -0.50781,2.39844 -0.80468,3.58985 -0.30079,1.1914 -0.62891,2.375 -0.98438,3.54687 -0.35547,1.17578 -0.74219,2.33984 -1.15234,3.49609 -0.41407,1.15625 -0.85547,2.30079 -1.32813,3.4375 -0.46875,1.13282 -0.96484,2.25391 -1.48828,3.36329 -0.52734,1.10937 -1.07812,2.20703 -1.65625,3.28906 -0.57812,1.08203 -1.18359,2.14844 -1.81641,3.20312 -0.6289,1.05078 -1.28515,2.08985 -1.96875,3.10938 -0.67968,1.01953 -1.38671,2.02344 -2.11718,3.00781 -0.73438,0.98828 -1.48828,1.95313 -2.26563,2.90234 -0.78125,0.94922 -1.58203,1.87891 -2.40625,2.78907 -0.82422,0.91015 -1.66797,1.79687 -2.53906,2.66406 -0.86719,0.87109 -1.75391,1.71484 -2.66406,2.53906 -0.91016,0.82422 -1.83985,1.625 -2.78907,2.40625 -0.94921,0.77735 -1.91406,1.53125 -2.90234,2.26563 -0.98437,0.73047 -1.98828,1.4375 -3.00781,2.11718 -1.01953,0.6836 -2.0586,1.33985 -3.10938,1.96875 -1.05468,0.63282 -2.12109,1.23829 -3.20312,1.81641 -1.08203,0.57813 -2.17969,1.12891 -3.28906,1.65625 -1.10938,0.52344 -2.23047,1.01953 -3.36329,1.48828 -1.13671,0.47266 -2.28125,0.91406 -3.4375,1.32813 -1.15625,0.41015 -2.32031,0.79687 -3.49609,1.15234 -1.17187,0.35547 -2.35547,0.68359 -3.54687,0.98438 -1.19141,0.29687 -2.38672,0.5664 -3.58985,0.80468 -1.20312,0.23828 -2.41406,0.44922 -3.6289,0.62891 -1.21485,0.17969 -2.42969,0.33203 -3.65235,0.45312 -1.22265,0.11719 -2.44531,0.20704 -3.67187,0.26954 -1.22657,0.0586 -2.45313,0.0898 -3.67969,0.0898 -1.22656,0 -2.45313,-0.0312 -3.67969,-0.0898 -1.22656,-0.0625 -2.44922,-0.15235 -3.67187,-0.26954 -1.22266,-0.12109 -2.4375,-0.27343 -3.65235,-0.45312 -1.21484,-0.17969 -2.42578,-0.39063 -3.6289,-0.62891 -1.20313,-0.23828 -2.39844,-0.50781 -3.58985,-0.80468 -1.1914,-0.30079 -2.375,-0.62891 -3.54687,-0.98438 -1.17578,-0.35547 -2.33985,-0.74219 -3.4961,-1.15234 -1.15625,-0.41407 -2.30078,-0.85547 -3.4375,-1.32813 -1.13281,-0.46875 -2.2539,-0.96484 -3.36328,-1.48828 -1.10937,-0.52734 -2.20703,-1.07812 -3.28906,-1.65625 -1.08203,-0.57812 -2.14844,-1.18359 -3.20312,-1.81641 -1.05079,-0.6289 -2.08985,-1.28515 -3.10938,-1.96875 -1.01953,-0.67968 -2.02344,-1.38671 -3.00781,-2.11718 -0.98828,-0.73438 -1.95313,-1.48828 -2.90235,-2.26563 -0.94921,-0.78125 -1.8789,-1.58203 -2.78906,-2.40625 -0.91015,-0.82422 -1.79687,-1.66797 -2.66406,-2.53906 -0.87109,-0.86719 -1.71484,-1.75391 -2.53906,-2.66406 -0.82422,-0.91016 -1.625,-1.83985 -2.40625,-2.78907 -0.77735,-0.94921 -1.53125,-1.91406 -2.26563,-2.90234 -0.73047,-0.98437 -1.4375,-1.98828 -2.11718,-3.00781 -0.6836,-1.01953 -1.33985,-2.0586 -1.96875,-3.10938 -0.63282,-1.05468 -1.23829,-2.12109 -1.81641,-3.20312 -0.57813,-1.08203 -1.12891,-2.17969 -1.65625,-3.28906 -0.52344,-1.10938 -1.01953,-2.23047 -1.48828,-3.36329 -0.47266,-1.13671 -0.91406,-2.28125 -1.32813,-3.4375 -0.41406,-1.15625 -0.79687,-2.32031 -1.15234,-3.49609 -0.35547,-1.17187 -0.68359,-2.35547 -0.98438,-3.54687 -0.29687,-1.19141 -0.5664,-2.38672 -0.80468,-3.58985 -0.23828,-1.20312 -0.44922,-2.41406 -0.62891,-3.6289 -0.17969,-1.21485 -0.33203,-2.42969 -0.45312,-3.65235 -0.11719,-1.22265 -0.20704,-2.44531 -0.26954,-3.67187 -0.0586,-1.22657 -0.0898,-2.45313 -0.0898,-3.67969 0,-1.22656 0.0312,-2.45313 0.0898,-3.67969 0.0625,-1.22656 0.15235,-2.44922 0.26954,-3.67187 0.12109,-1.22266 0.27343,-2.4375 0.45312,-3.65235 0.17969,-1.21484 0.39063,-2.42578 0.62891,-3.6289 0.23828,-1.20313 0.50781,-2.39844 0.80468,-3.58985 0.30079,-1.1914 0.62891,-2.375 0.98438,-3.54687 0.35547,-1.17578 0.73828,-2.33985 1.15234,-3.4961 0.41407,-1.15625 0.85547,-2.30078 1.32813,-3.4375 0.46875,-1.13281 0.96484,-2.2539 1.48828,-3.36328 0.52734,-1.10937 1.07812,-2.20703 1.65625,-3.28906 0.57812,-1.08203 1.18359,-2.14844 1.81641,-3.20312 0.6289,-1.05079 1.28515,-2.08985 1.96875,-3.10938 0.67968,-1.01953 1.38671,-2.02344 2.11718,-3.00781 0.73438,-0.98828 1.48828,-1.95313 2.26563,-2.90235 0.78125,-0.94921 1.58203,-1.8789 2.40625,-2.78906 0.82422,-0.91015 1.66797,-1.79687 2.53906,-2.66406 0.86719,-0.87109 1.75391,-1.71484 2.66406,-2.53906 0.91016,-0.82422 1.83985,-1.625 2.78906,-2.40625 0.94922,-0.77735 1.91407,-1.53125 2.90235,-2.26563 0.98437,-0.73047 1.98828,-1.4375 3.00781,-2.11718 1.01953,-0.6836 2.05859,-1.33985 3.10938,-1.96875 1.05468,-0.63282 2.12109,-1.23829 3.20312,-1.81641 1.08203,-0.57813 2.17969,-1.12891 3.28906,-1.65625 1.10938,-0.52344 2.23047,-1.01953 3.36328,-1.48828 1.13672,-0.47266 2.28125,-0.91406 3.4375,-1.32813 1.15625,-0.41406 2.32032,-0.79687 3.4961,-1.15234 1.17187,-0.35547 2.35547,-0.68359 3.54687,-0.98438 1.19141,-0.29687 2.38672,-0.5664 3.58985,-0.80468 1.20312,-0.23828 2.41406,-0.44922 3.6289,-0.62891 1.21485,-0.17969 2.42969,-0.33203 3.65235,-0.45312 1.22265,-0.11719 2.44531,-0.20704 3.67187,-0.26954 1.22656,-0.0586 2.45313,-0.0898 3.67969,-0.0898 1.22656,0 2.45312,0.0312 3.67969,0.0898 1.22656,0.0625 2.44922,0.15235 3.67187,0.26954 1.22266,0.12109 2.4375,0.27343 3.65235,0.45312 1.21484,0.17969 2.42578,0.39063 3.6289,0.62891 1.20313,0.23828 2.39844,0.50781 3.58985,0.80468 1.1914,0.30079 2.375,0.62891 3.54687,0.98438 1.17578,0.35547 2.33984,0.73828 3.49609,1.15234 1.15625,0.41407 2.30079,0.85547 3.4375,1.32813 1.13282,0.46875 2.25391,0.96484 3.36329,1.48828 1.10937,0.52734 2.20703,1.07812 3.28906,1.65625 1.08203,0.57812 2.14844,1.18359 3.20312,1.81641 1.05078,0.6289 2.08985,1.28515 3.10938,1.96875 1.01953,0.67968 2.02344,1.38671 3.00781,2.11718 0.98828,0.73438 1.95313,1.48828 2.90234,2.26563 0.94922,0.78125 1.87891,1.58203 2.78907,2.40625 0.91015,0.82422 1.79687,1.66797 2.66406,2.53906 0.87109,0.86719 1.71484,1.75391 2.53906,2.66406 0.82422,0.91016 1.625,1.83985 2.40625,2.78906 0.77735,0.94922 1.53125,1.91407 2.26563,2.90235 0.73047,0.98437 1.4375,1.98828 2.11718,3.00781 0.6836,1.01953 1.33985,2.05859 1.96875,3.10938 0.63282,1.05468 1.23829,2.12109 1.81641,3.20312 0.57813,1.08203 1.12891,2.17969 1.65625,3.28906 0.52344,1.10938 1.01953,2.23047 1.48828,3.36328 0.47266,1.13672 0.91406,2.28125 1.32813,3.4375 0.41015,1.15625 0.79687,2.32032 1.15234,3.4961 0.35547,1.17187 0.68359,2.35547 0.98438,3.54687 0.29687,1.19141 0.5664,2.38672 0.80468,3.58985 0.23828,1.20312 0.44922,2.41406 0.62891,3.6289 0.17969,1.21485 0.33203,2.42969 0.45312,3.65235 0.11719,1.22265 0.20704,2.44531 0.26954,3.67187 0.0586,1.22656 0.0898,2.45313 0.0898,3.67969 z m 0,0"
       fill-opacity="1"
       fill-rule="nonzero"
       id="path3" />
  </g>
  <g
     clip-path="url(#b7f68fbeda)"
     id="g5"
     transform="translate(2.5290999,1.6860663)">
    <path
       fill="#000000"
       d="m 219.48828,180.30469 c -2.20312,-0.55078 6.98828,-11.91016 6.98828,-11.91016 0,0 -10.33984,8.10547 -11.20312,7.11719 -0.86328,-0.9961 4.30859,-7.78125 4.30859,-7.78125 0,0 -52.61719,35.1289 -57.17578,3.3125 -2.42578,-16.9375 19.15625,-24.48438 25.66797,-5.51953 0.93359,2.72656 -0.78516,-5.99219 0.57422,-7.27735 1.67187,-1.57812 3.65234,5.95703 3.65234,5.95703 0,0 -0.30469,-25.48046 -12.94141,-27.90625 -9.28515,-1.78125 -29.80078,14.36719 -32.0039,45 -1.51172,21.03516 13.30078,30.60547 28.76172,32.40235 l -3.13282,16.64062 3.4961,2.14453 3.48047,-18.5 c 1.58203,0.0547 3.15625,0.0312 4.70703,-0.0664 l 0.55859,23.9375 3.89063,2.39062 -0.625,-26.72656 c 1.83984,-0.26953 3.6289,-0.64062 5.32422,-1.11719 22.57031,-6.33593 35.4375,-38.71875 35.4375,-38.71875 0,0 -7.56641,7.17188 -9.76563,6.6211 z M 180.625,141.22656 c 0.77734,0 1.40625,0.66406 1.40625,1.48438 0,0.8164 -0.62891,1.48437 -1.40625,1.48437 -0.76953,0 -1.39844,-0.66797 -1.39844,-1.48437 0,-0.82032 0.62891,-1.48438 1.39844,-1.48438 z m 0,0"
       fill-opacity="1"
       fill-rule="nonzero"
       id="path5" />
  </g>
</svg>
